<?xml version="1.0" encoding="utf-8"?>
<!-- Generator: Adobe Illustrator 19.0.1, SVG Export Plug-In . SVG Version: 6.00 Build 0)  -->
<svg version="1.1" id="Layer_1" xmlns="http://www.w3.org/2000/svg" xmlns:xlink="http://www.w3.org/1999/xlink" x="0px" y="0px"
	 viewBox="0 919 693.3 105.1" style="enable-background:new 0 919 693.3 105.1;" xml:space="preserve">
<style type="text/css">
	.st0{fill:#003263;}
	.st1{fill:#004990;}
	.st2{fill:#E21F26;}
</style>
<g>
	<path class="st0" d="M584.1,990.8c-2.3,0-4.2,1.7-4.2,4.1c0,2.4,1.9,4.1,4.2,4.1c2.2,0,4.2-1.7,4.2-4.1S586.4,990.8,584.1,990.8
		L584.1,990.8z M584.1,998.3c-1.9,0-3.4-1.5-3.4-3.4c0-1.9,1.5-3.4,3.4-3.4s3.3,1.5,3.3,3.4C587.4,996.9,586,998.3,584.1,998.3
		L584.1,998.3z"/>
	<path class="st0" d="M584.8,995.2c0.7-0.1,1.2-0.4,1.2-1.3c0-0.9-0.5-1.4-1.7-1.4h-1.8v4.7h0.7v-2.1h0.8l1.3,2.1h0.8L584.8,995.2
		L584.8,995.2z M583.2,994.6v-1.5h1c0.5,0,1,0.1,1,0.7c0,0.7-0.5,0.8-1.1,0.8H583.2L583.2,994.6z"/>
	<path class="st0" d="M92.4,950.9c2.1,0,3.5,0.6,4.7,1.2c2.4,1.1,5.3,2.5,8.8,4.2c0,0,5.7-4.1,6-4.3c2-1.3,3.8-0.3,4.4,0.8
		c2.1,4,6.1,12.4,8.2,20.1c0.2,0.9,0,2.3-1.5,2.8c-0.8,0.2-2.3,0.4-3.7,0.6c-2.1,0.3-2,1.9-2,3c0,1.3,0,9.7,0,12.6
		c0,1.8-1.3,7.6-8,7.6c-0.4,0-15.3,0-15.3,0c-5.8,0-10.4-4.9-10.5-10.1c0-3.4,0-27.2,0-29.9C83.5,954.3,88.2,950.8,92.4,950.9
		L92.4,950.9z"/>
	<path class="st0" d="M68.2,999.3H18.5v5.5h58.3c0,0,2.1-4.9,2.1-10.3c0-0.3,0-37.4,0-37.4c0-2.9,1.2-7.9,7.3-9.3
		c0.2,0,0.3-0.1,0.5-0.1c17.2-4.1,34.9-0.4,44.9,3.9c1.8,0.9,2.2-0.6,2.2-1.2c0.2-8.4-6.2-18-18-18.6c-9.6-0.2-14.9,3.2-16.8,4.2
		c-0.2,0.1-0.4,0-0.6-0.2c-1.8-1.7-5.5-4.3-9.8-5.5c-0.6-0.1-0.7-1.1,0-1.2c9-1,17,0.1,20.3,0.6c0.8,0.1,1.3-0.3,1-1
		c-0.2-0.5-0.4-0.8-0.8-1.6c-0.8-1.7-2.9-3.6-5.6-4.3c-7.1-2-19.2-3.7-30-3.8c-12.1-0.1-25,2.3-28.2,3.1c-0.8,0.2-1.9,0.4-2.1,0.5
		c-0.9,0.2-1.1,1-0.7,1.4c0.2,0.3,0.9,0.8,1.2,1.2c0.4,0.5,0.6,1.2-0.2,2L21,947.4h15.4h0.2c1,0,1.9,0.9,1.9,2c0,1-0.8,2-1.9,2h-0.1
		h-20l-6.1,5.6h26.1h0.1c1,0,1.8,1.1,1.8,2c0,0.9-0.8,2-1.8,2h-0.2H6.1L0,966.5h52.8H53c1,0,1.8,1.1,1.9,2c0,1.1-0.7,2-1.8,2H53H0
		v5.5h52.8H53c1.2,0,1.9,1.1,1.9,2.1c0,0.9-0.9,1.9-1.9,1.9h-0.1H0v5.5h68.9h0.2c1.1,0,1.9,1,1.8,2.1c0,0.9-0.8,1.9-1.8,1.9h-0.2
		H18.6v5.6h49.6h1.1c0.9,0,1.7,1.2,1.7,2.1c0,0.9-0.8,2-1.8,2L68.2,999.3L68.2,999.3z"/>
	<path class="st0" d="M37.1,1018.4v5.7c0,0,7.5,0,11.7,0c10.5-0.1,17.4-5.7,17.4-5.7H37.1L37.1,1018.4z"/>
	<path class="st0" d="M37.1,1008.9v5.5h33.7c1.6-1.6,3.5-4.5,4.1-5.5H37.1L37.1,1008.9z"/>
	<path class="st0" d="M580.8,974.8c0-0.1,0-0.2,0-0.3c-0.2-4.3-1.6-8.1-3.6-11.1c-4.2-6.6-11.5-10.1-20.3-10
		c-8.8-0.1-16.1,3.4-20.3,10c-2,3-3.4,6.8-3.6,11.1c0,0.1,0,0.2,0,0.3c-1.2,14.4,7.2,24.3,21.5,25.5c0.9,0.1,1.7,0.1,2.5,0.1
		s1.7,0,2.5-0.1C573.6,999.1,582,989.1,580.8,974.8L580.8,974.8z M557.9,993.5c-0.4,0-0.8,0-1.1,0.1c-0.4,0-0.7,0-1.1-0.1
		c-2.1-0.2-3.7-0.9-5.3-2.1c-0.4-0.4-0.8-0.8-1.3-1.2c-2.2-2.5-3.4-6.7-3.7-10c-0.6-7.8,0.9-19.2,10.5-19.9c0.2,0,0.5,0,0.7,0h0.1
		h0.1c0.2,0,0.5,0,0.7,0c9.6,0.8,11.1,12.1,10.5,19.9c-0.3,3.3-1.4,7.5-3.7,10c-0.4,0.5-0.8,0.9-1.3,1.2
		C561.6,992.6,559.8,993.3,557.9,993.5L557.9,993.5z"/>
	<path class="st0" d="M485.8,964.1c0-3.6,0.3-9.8,0.3-9.8l0,0h-11.7l0,0c0,0,0.4,6.3,0.4,9.8v25.6c0,3.6-0.3,9.6-0.3,9.6l0,0h11.7
		l0,0c0,0-0.3-6-0.3-9.6L485.8,964.1L485.8,964.1z"/>
	<path class="st0" d="M417.3,992.3c-2.5,0-5.7,0-8.1,0c-0.1-4.5-0.2-8.9-0.2-12.9v-0.6l0,0v-0.1h13.5v-6.4H409
		c0-6.9,0.2-11.4,0.2-11.4H426v-6.8c-11.7,0-28.7,0-28.7,0s0.2,6.2,0.2,9.8v25.7c0,3.3-0.2,8.8-0.2,9.7h29.8v-7.1
		C427.1,992.2,421.2,992.3,417.3,992.3L417.3,992.3z"/>
	<path class="st0" d="M222,992.3c-2.4,0-5.7,0-8.2,0c-0.1-4.5-0.2-8.9-0.2-12.9v-0.6l0,0v-0.1h13.5v-6.4h-13.5
		c0-6.9,0.2-11.4,0.2-11.4h16.8v-6.8c-11.7,0-28.7,0-28.7,0s0.2,6.2,0.2,9.8v25.7c0,3.3-0.2,8.8-0.2,9.7h29.8v-7.1
		C231.8,992.2,225.9,992.3,222,992.3L222,992.3z"/>
	<path class="st0" d="M455.7,975.1l12.9-20.8h-9l-0.1,0.2c-2.7,4.7-6.1,10.4-7.4,12.4l-0.5,0.8l-7.5-13.5h-13.5l13,23.3l-13.5,21.7
		h8.9c5.8-9.9,8.7-14.4,8.7-14.4l8,14.4h13.4L455.7,975.1L455.7,975.1z"/>
	<path class="st0" d="M522.3,993.2c-10.4,0-16-7.7-15.8-17.1c0.3-8.2,4-15.2,13-15.8c3.4-0.2,6.2,0.4,11,1.7l-0.5-7
		c0,0-4.1-1.3-9.9-1.5c-7.4-0.3-14.2,1.1-19.5,6.1c-4.8,4.4-7.6,10.9-7.6,17.2c0,7,2.9,13.4,8.2,17.8c5.6,4.7,11.6,5.8,18.7,5.8
		c4.7,0,7.4-0.3,12-1.6l-0.7-6.9C530.3,992.1,527,993.2,522.3,993.2L522.3,993.2z"/>
	<path class="st0" d="M371.8,947.5h13.1l0.4,3c2.9,30.1,4.7,48.8,4.7,48.8h-13.6l-1.3-18.6l-1.2-16.7l-11.5,35.3c-3,0-7.3,0-7.3,0
		s-3.6-12.5-4.3-14.3l-6.6-21.2c0,0-1,11.8-1.4,16.8c-0.8,10.1-1.5,18.7-1.5,18.7h-10.1c0,0,4.2-42.1,4.5-44.7s0.8-7.1,0.8-7.1h13.3
		l11,30.3L371.8,947.5L371.8,947.5z"/>
	<path class="st0" d="M325.6,974.8c0-0.1,0-0.2,0-0.3c-0.2-4.3-1.6-8.1-3.6-11.1c-4.2-6.5-11.5-10-20.2-9.9
		c-8.8-0.1-16.1,3.4-20.2,9.9c-2,3-3.4,6.8-3.6,11.1c0,0.1,0,0.2,0,0.3c-1.2,14.3,7.1,24.2,21.4,25.4c0.8,0.1,1.7,0.1,2.5,0.1
		s1.6,0,2.5-0.1C318.4,999,326.8,989.1,325.6,974.8L325.6,974.8z M302.8,993.5c-0.4,0-0.7,0-1.1,0.1c-0.4,0-0.7,0-1.1-0.1
		c-2.1-0.2-3.7-0.9-5.2-2.1c-0.4-0.3-0.8-0.8-1.3-1.2c-2.2-2.5-3.4-6.7-3.6-10c-0.6-7.7,0.9-19,10.4-19.8c0.2,0,0.5,0,0.7,0h0.1h0.1
		c0.2,0,0.5,0,0.7,0c9.5,0.8,11.1,12.1,10.4,19.8c-0.3,3.3-1.3,7.4-3.7,10c-0.4,0.4-0.8,0.9-1.3,1.2
		C306.5,992.5,304.7,993.3,302.8,993.5L302.8,993.5z"/>
	<path class="st0" d="M199.2,999.3c-0.4-0.9-2.8-6.6-4.6-11.2l-15.2-40.6h-11.9c0,0-3.4,9.5-3.9,11.1L152.5,990
		c-1.4,4-3.5,9.3-3.5,9.3h9.7c0,0,2.7-8.7,3.3-10.3l1.5-4.4h16.8l2.3,6.7c0.5,1.2,2.5,7.9,2.5,8H199.2L199.2,999.3z M166,977.2
		l5.6-16.8l0.3-1l5.9,17.8H166L166,977.2z"/>
	<path class="st0" d="M278.4,999.3c-2.8-4-3.8-5.7-6-8.6l-8.1-12.5c3.9-1.9,7.5-5.1,8.1-11.9c0.3-4.2-1.9-7.7-3.2-8.9
		c-1.9-1.7-3.8-2.4-6.5-2.8c-2.2-0.3-3.7-0.3-5-0.4h-19c0,0,0.2,6.2,0.2,9.8v25.5c0,3.6-0.2,9.8-0.2,9.8h11.7c0,0-0.3-6.2-0.3-9.8
		l0.1-8.2c0,0,2.5,0,4.3,0l7.4,13.6c1,1.7,2.4,3.9,2.8,4.4H278.4L278.4,999.3z M257.7,974.2c-1.7,0.9-5.7,0.7-7.6,0.5l0.1-12.9
		l1.1-0.1c3.6-0.3,6.2,0.2,7.3,0.7c1.6,0.7,2.6,2.2,2.6,4.8C261.4,971,259.9,973,257.7,974.2L257.7,974.2z"/>
	<polygon class="st1" points="674.3,930.4 673.8,930.2 673.9,929.9 675.3,930.5 675.1,930.8 674.7,930.6 674,932 673.7,931.9 	"/>
	<polygon class="st1" points="675.5,930.6 676.1,930.9 675.8,932.4 675.9,932.4 676.9,931.3 677.4,931.6 676.6,933.3 676.3,933.1 
		677,931.7 677,931.7 675.8,932.9 675.5,932.7 675.7,931.1 675.7,931.1 675,932.5 674.7,932.3 	"/>
	<path class="st1" d="M679.5,945.3L679.5,945.3c6.4,6.5,10.6,15.2,11.3,25.1c1.5,21.7-14.8,40.5-36.5,42
		c-10.2,0.7-19.8-2.5-27.2-8.4l0,0c7.7,7.2,18.3,11.3,29.6,10.5c21.7-1.5,38.1-20.3,36.5-42C692.5,961.5,687.3,951.9,679.5,945.3
		L679.5,945.3z"/>
	<path class="st1" d="M609.7,990.1c-1.2,0.7-1.5,1.8-0.9,3.4c0.6,1.5,1.5,2.1,2.5,1.7c0.8-0.3,0.9-1,0.6-2.8l-0.1-0.7
		c-0.3-1.8-0.4-2.5-0.2-3.3s0.7-1.4,1.4-1.7c1.8-0.7,3.5,0.4,4.5,2.9c1.1,2.7,0.5,4.7-1.6,5.6l-0.5-1.3c1.5-0.6,1.8-2,1.1-4
		c-0.6-1.6-1.7-2.3-2.7-1.9c-0.9,0.3-1.1,1.2-0.8,3l0.1,0.8l0.1,0.7c0.2,1.4,0.3,1.8,0.1,2.4c-0.2,0.7-0.6,1.2-1.4,1.5
		c-1.7,0.7-3.3-0.3-4.2-2.6c-1-2.4-0.5-4.3,1.4-5.1L609.7,990.1L609.7,990.1z"/>
	<polygon class="st1" points="608.6,975.9 614.6,970.8 614.6,972.7 609.6,976.9 611.2,978.7 614.8,978.6 614.8,980.1 604.6,980.3 
		604.6,978.8 608.6,978.7 609.1,978.7 609.7,978.7 609.3,978.4 609,978 604.5,973.2 604.4,971.2 	"/>
	<path class="st1" d="M613.1,960.1l3.9,1.4l-0.5,1.4l-3.9-1.4l-7,2.1l0.6-1.7l4.4-1.2l0.5-0.2c0.2-0.1,0.4-0.1,0.7-0.2
		c-0.3-0.4-0.4-0.5-0.8-1l-2.7-3.6l0.6-1.6L613.1,960.1L613.1,960.1z"/>
	<polygon class="st1" points="620,941.5 617.8,944.1 624.2,949.3 622.7,951.2 616.3,946 614.2,948.6 612.7,947.4 618.5,940.3 	"/>
	<polygon class="st1" points="633.7,931.8 628.6,934.8 629.7,936.7 634.4,934 635.2,935.5 630.5,938.2 631.8,940.4 637,937.3 
		638,938.9 630.6,943.2 625.5,934.5 632.7,930.2 	"/>
	<path class="st1" d="M653.4,935.8l-2.7,0.2l-1.3-2.2l-4.1,0.7l-0.6,2.5l-2.5,0.7l2.7-11.1l2.5-0.4L653.4,935.8L653.4,935.8z
		 M647.5,930.6c-0.6-0.9-0.8-1.3-1.1-2.1c-0.1,0.7-0.2,1.3-0.4,2.3l-0.4,1.9l3-0.5L647.5,930.6L647.5,930.6z"/>
	<path class="st1" d="M669.7,939l-2.1-0.8l0.8-3c0.1-0.4,0.2-0.8,0.4-1.5c0.2-0.6,0.3-1.1,0.4-1.5c0.1-0.4,0.3-0.8,0.4-1.3l0.2-0.7
		c-0.6,1-0.8,1.4-1.4,2.2c-0.2,0.4-0.4,0.7-0.6,0.9l-2.9,4l-1.9-0.5l-0.6-4.9c0-0.2-0.1-0.6-0.1-1.1c0-0.6-0.1-1.1-0.1-1.5
		c0-0.3,0-0.7,0-1.2l-0.3,1.2c-0.3,1.3-0.4,1.9-0.8,3.5l-0.8,3.3l-2.2-0.4l2.5-9.9l3.4,0.7l0.5,4.7c0.1,1.1,0.1,2,0.1,3.3
		c0.4-0.7,0.5-1,1-1.7c0.3-0.5,0.6-0.8,0.8-1.2l2.7-3.8l3.2,1.1L669.7,939L669.7,939z"/>
	<path class="st1" d="M650.3,958.6c-1.2,1.1-3.7,3.4-6,5.7l-2.7,2.6c-2.2-0.4-4.3-0.6-6.6-0.6c-5,0-9.5,1.4-11.5,3.5
		c-0.8,0.8-1.2,1.7-1.2,2.6c0,2.4,2.8,3.6,3.6,3.9c4.4,1.6,8.1,1.2,12-1.5c2.1-1.5,4.7-3.9,6.7-5.8c1.6,0.4,3.3,0.8,5.2,1.4l1.8,0.5
		c-2.3,2.2-4.6,4.6-6.8,6.5l-0.2,0.1c-3,2.7-5.2,4.6-8.4,5.3c-2.2,0.5-3.8,0-4.3-0.3l-0.1,0.1c1.8,1.5,3.6,2.4,6.5,2.1
		c2.8-0.2,6.1-2,9.4-5.2l4.5-4.4l3.2-3.1l6.4,1.9c0.1,0,0.1,0,0.1,0c-0.1,0-4,3.8-4,3.8l-3.4,3.4c-3.5,3.4-5.4,5.1-7.4,6.6
		c-3.4,2.4-6.2,3.6-8.8,3.8c-1.3,0.1-3.2,0-4.8-0.9c-0.1,0-0.2,0.1-0.2,0.1c1.7,1.5,3.8,3.2,7.4,3.1c4.1-0.1,7.7-2.1,13.4-7.3
		c2.6-2.4,5.1-5,7.4-7.3l4.2-4.3c2.8,0.6,5.2,0.9,8,0.8c4-0.1,7.4-2,7.4-4.2c0-1.6-1.3-2.5-2.1-3c-0.7-0.4-2.4-1.4-4.9-1.4
		c-3,0-6.1,1.3-9.3,3.9l-2.1,1.9l-0.8-0.2l-5.8-1.6c1.7-1.6,3.2-3,4.5-4.2c3.2-2.8,6.7-4,8.8-4.1c1.5-0.1,4.1,0,5.2,0.8
		c0.1,0,0.1-0.1,0.1-0.1c-2.9-2.5-5.4-2.8-7.4-2.8s-5.3,0.6-9.2,3.7c-1.6,1.3-3.7,3.4-5.9,5.6l-3-0.9l-0.7-0.2l-3.1-0.9
		c0.1,0,1.8-1.7,1.8-1.7c2.1-2.1,4.1-4,5.6-5.3c5.6-4.7,9.1-5.3,11.6-5.3c2.7,0,4.8,0.5,6.4,1.6l0.1-0.1c-3.2-2.8-5.4-3.8-9.3-3.8
		C658.4,953.2,654.3,955.1,650.3,958.6L650.3,958.6z M628.2,975.4c-1.8-0.1-2.7-0.9-2.7-2.3c0-0.2,0.1-4.6,10.3-5.1
		c1.2-0.1,2.5-0.1,4.4,0.1c-0.1,0-1.2,1-1.2,1l-0.6,0.6C636,971.9,631.9,975.7,628.2,975.4L628.2,975.4z M669.4,971.8
		c2.9-2,5.4-3,6.9-3c0.9,0,2,0.3,2,1.4c0,1.1-1.1,2.1-3.2,2.8c-1.9,0.7-4.7,0.8-7.8,0.5C668.1,972.8,668.8,972.2,669.4,971.8
		L669.4,971.8z"/>
	<path class="st2" d="M332.3,1022.6c0,0,20.5-16.8,72.2-16.8c39,0,62.4,12.5,108,12.5c41,0,68.4-14.1,68.4-14.1s-24,18.8-72.3,18.8
		s-63.6-12.6-111.3-12.6S332.3,1022.6,332.3,1022.6z"/>
</g>
</svg>
