<?xml version="1.0" encoding="utf-8"?>
<!-- Generator: Adobe Illustrator 19.0.1, SVG Export Plug-In . SVG Version: 6.00 Build 0)  -->
<svg version="1.1" id="Layer_1" xmlns="http://www.w3.org/2000/svg" xmlns:xlink="http://www.w3.org/1999/xlink" x="0px" y="0px"
	 viewBox="0 0 187.1 30.8" style="enable-background:new 0 0 187.1 30.8;" xml:space="preserve">
<style type="text/css">
	.st0{fill-rule:evenodd;clip-rule:evenodd;fill:#FFFFFF;}
</style>
<g>
	<path class="st0" d="M30.4,15.3c-0.2-7.6-6.4-13.9-14-13.9c-7.6,0-13.7,6.4-13.7,14H0C0,7,6.7,0.2,15.1,0c8.4,0,15.5,6.9,15.5,15.3
		H30.4L30.4,15.3z"/>
	<path class="st0" d="M30.3,15.5c0-6.2-4.9-11.2-11.2-11.2c-6.2,0-10.7,4.9-10.7,11.2h-3c0-7,5.7-12.6,12.7-12.7
		c6.9,0,12.4,6.4,12.6,12.6L30.3,15.5L30.3,15.5z"/>
	<path class="st0" d="M30.4,15.3c0-4.5-3.8-8.1-8.4-8.1s-8,3.7-8,8.3h-2.9c0-5.4,4.1-9.9,9.6-9.9c5.4,0,9.7,4.5,9.9,9.7H30.4
		L30.4,15.3z"/>
	<path class="st0" d="M0.3,15.5c0,7.6,6.2,13.9,13.9,13.9c7.8,0,13.9-6.4,13.9-14h2.7c0,8.4-6.9,15.5-15.3,15.5S0.2,23.9,0,15.5H0.3
		L0.3,15.5z"/>
	<path class="st0" d="M0.3,15.3c0,6.2,4.9,11.2,11.2,11.2s10.8-4.9,10.7-11.2h3c0,7-5.7,12.7-12.6,12.7C5.6,28,0,21.7,0,15.5
		L0.3,15.3L0.3,15.3z"/>
	<path class="st0" d="M0.2,15.5c0.2,4.5,4,8.1,8.4,8.1c4.6,0,8-3.7,8-8.3h2.9c0,5.4-4.1,9.9-9.6,9.9C4.5,25.2,0.2,20.9,0.2,15.5
		L0.2,15.5L0.2,15.5z"/>
	<path class="st0" d="M54.5,19h-5.1l4.1-8.9L54.5,19L54.5,19z M45.6,27.2l1.4-3.2h8l0.5,3.2h8L59,2.5h-8.1L37.6,27.2H45.6L45.6,27.2
		z"/>
	<polygon class="st0" points="67.1,27.2 71.4,2.5 79.5,2.5 75.2,27.2 67.1,27.2 	"/>
	<path class="st0" d="M91.2,8.6h4c1.3,0,2.1,0.2,2.5,0.6c0.3,0.3,0.5,1,0.3,1.6c-0.2,0.8-0.5,1.4-1.1,1.8c-0.5,0.5-1.4,0.6-2.7,0.6
		h-3.8L91.2,8.6L91.2,8.6z M88,27.2l1.4-8.6h3.2c1,0,1.8,0.2,2.2,0.3c0.5,0.3,0.8,0.6,1,1.1c0.2,0.5,0.2,1.1,0,1.9l-0.2,1.9
		c-0.3,1.6-0.3,2.7-0.3,3.3h8.3v-0.8c-0.2,0-0.5,0-0.5-0.2c-0.2-0.2-0.2-0.5,0-1.1l0.6-3.8c0.2-1.8,0.2-3-0.3-3.7
		c-0.5-0.8-1.4-1.4-2.9-2.1c0.8-0.2,1.4-0.5,2.1-0.8c0.8-0.6,1.4-1.3,1.9-2.1c0.6-1,1-1.9,1.3-3.2c0.2-1,0.2-1.8,0-2.4
		c-0.2-0.8-0.5-1.4-0.8-1.9c-0.5-0.6-1-1.1-1.6-1.6c-0.8-0.3-1.6-0.6-2.7-0.8c-1.1-0.2-2.5-0.3-4.3-0.3h-12l-4.3,24.7H88L88,27.2z"
		/>
	<path class="st0" d="M121.1,8.1c1.1,0,1.9,0.2,2.2,0.2c0.5,0.2,0.8,0.5,1,0.8c0.3,0.3,0.3,0.8,0.3,1.3c-0.2,0.6-0.5,1.1-1.1,1.6
		c-0.5,0.3-1.4,0.6-2.7,0.6h-3l0.8-4.5H121.1L121.1,8.1z M119.8,27.2c1.9,0,3.2-0.2,4-0.3c0.8-0.2,1.8-0.5,2.5-0.8
		c1-0.5,1.6-0.8,2.1-1.3c0.8-0.5,1.3-1.3,1.8-2.1c0.6-1,1-1.9,1.1-2.9c0.2-1.4,0-2.7-0.5-3.7c-0.6-1.1-1.4-1.8-2.7-2.1
		c2.4-1.4,3.8-3.2,4.1-5.3c0.5-2.2-0.2-3.8-1.9-4.9c-1.3-1-3.3-1.4-6.5-1.4h-12.1l-4.3,24.7H119.8L119.8,27.2z M120.3,16.9
		c1.6,0,2.5,0.3,3,0.6c0.5,0.5,0.6,1,0.5,1.8c-0.2,0.6-0.5,1.3-1.1,1.8c-0.6,0.3-1.6,0.6-3.2,0.6h-3.3l0.8-4.8H120.3L120.3,16.9z"/>
	<path class="st0" d="M139,2.5h8l-2.7,15.3c-0.2,1-0.2,1.8,0,2.2c0.2,0.5,0.5,1,1.1,1.3c0.6,0.3,1.3,0.5,2.1,0.5
		c1.1,0,2.2-0.3,2.9-1c0.8-0.6,1.3-1.8,1.6-3l2.7-15.3h8L160,17.1c-0.3,1.8-0.6,3.2-1.1,4.3c-0.5,1-1.1,1.9-1.9,2.7
		c-0.8,0.8-1.8,1.6-2.7,2.1c-1.1,0.6-2.2,1.1-3.5,1.4c-1.4,0.2-2.9,0.3-4.3,0.3c-1.8,0-3.2-0.2-4.5-0.3c-1.3-0.3-2.2-0.8-3-1.4
		c-1-0.6-1.6-1.3-2.1-2.1c-0.5-0.8-0.8-1.9-0.8-3.2c-0.2-0.8,0-2.2,0.3-4L139,2.5L139,2.5z"/>
	<path class="st0" d="M187.1,9.7h-7.8c0-0.6-0.3-1.3-0.6-1.6c-0.5-0.3-1.1-0.5-2.1-0.5c-1,0-1.8,0.2-2.2,0.5
		c-0.5,0.3-0.6,0.6-0.8,1.1c0,0.5,0,0.6,0.3,1c0.3,0.3,1.1,0.6,2.5,1l3,0.8c2.7,0.8,4.6,1.8,5.6,3c1,1.3,1.3,2.7,1,4.5
		c-0.3,1.4-0.8,2.6-1.6,3.7c-0.8,1.1-1.8,2.1-2.7,2.7c-1,0.6-2.2,1.1-3.7,1.6c-1.4,0.3-3,0.5-4.6,0.5c-1.6,0-3.2-0.2-4.6-0.6
		c-1.4-0.5-2.5-1.1-3.3-1.9c-0.8-0.8-1.4-1.8-1.8-2.9c-0.2-0.8-0.2-1.8-0.2-2.9h7.8c0,0.8,0.3,1.4,0.8,1.8c0.5,0.5,1.4,0.6,2.7,0.6
		c1.1,0,1.9-0.2,2.4-0.5c0.5-0.3,0.6-0.6,0.8-1.1c0-0.5,0-1-0.3-1.3c-0.3-0.3-1.1-0.6-2.5-1l-2.7-0.6c-1.3-0.3-2.7-0.8-3.8-1.4
		c-1.1-0.6-2.1-1.4-2.5-2.6c-0.5-1-0.5-2.1-0.3-3.5c0.3-1.4,0.8-2.5,1.6-3.7c0.8-1.1,1.8-1.9,2.9-2.5c1-0.8,2.2-1.1,3.5-1.4
		c1.3-0.3,2.5-0.5,3.8-0.5c1.6,0,2.9,0.2,4.1,0.5c1.3,0.3,2.1,0.8,2.9,1.3c0.6,0.5,1.1,1.1,1.4,1.8c0.5,0.6,0.6,1.3,0.8,1.9
		C186.9,8,187.1,8.8,187.1,9.7L187.1,9.7z"/>
</g>
</svg>
