<?xml version="1.0" encoding="utf-8"?>
<!-- Generator: Adobe Illustrator 19.0.1, SVG Export Plug-In . SVG Version: 6.00 Build 0)  -->
<svg version="1.1" id="Layer_1" xmlns="http://www.w3.org/2000/svg" xmlns:xlink="http://www.w3.org/1999/xlink" x="0px" y="0px"
	 viewBox="0 0 2000 656" style="enable-background:new 0 0 2000 656;" xml:space="preserve">
<style type="text/css">
	.st0{fill:#102C51;}
</style>
<g>
	<path class="st0" d="M887.7,112.7c-16.8,7.6-33.2,16.1-49.1,25.5c-30.5,18-62.2,33.9-91.6,53.8c-31.4,21.3-65.1,38.8-97.9,57.8
		c-4.7,2.7-9.3,5.5-13.6,9c34.3-4.1,68.6-8.2,103.1-12.4c0.2,4.4-1.5,6.9-3.7,9.2c-12.1,12.1-24.1,24.5-36.5,36.4
		c-10.2,9.7-22.1,15-36.7,15.6c-20.8,0.8-41.5,3.2-62.3,4.9c-17.4,1.5-34.8,3-52.3,4.4c-2.9,0.2-5.5,1.1-8,2.5
		c-22.8,13.4-44.5,28.5-66.7,42.9c-42.8,27.8-85.9,55.3-128.1,84.1c-25.3,17.3-51.5,33.2-76.5,50.8c-18.8,13.2-37.9,26-56,40.1
		c-13.6,10.6-28.6,15.3-45.7,15.8c-24.5,0.8-49,1.8-73.5,1.9c-5.3,0-10.6,0.7-15.9,1c-2.3,0.1-5,0.7-6.2-1.9
		c-1.1-2.4,0.3-4.7,1.7-6.4c5.2-6.5,11.2-12.2,17.6-17.6c31.7-26.6,66.9-48.3,100.5-72.3c36.6-26.2,75.6-48.5,114-71.8
		c22.8-13.8,45.2-28.2,67.7-42.3c1.2-0.8,2.4-1.7,4.8-3.4c-12.7-0.4-24-0.4-35.4,0.4c-42.9,3-85.1,10.9-127.3,19
		c-30.7,5.9-61.7,10.1-92.5,15.5c-31.5,5.5-62.8,11.7-94.2,17.5c-4.6,0.8-10.3,2.2-12.5-2.8c-2.1-4.6,2.8-7.5,6.2-10.1
		c31.3-24.2,63.4-47.6,95.4-70.9c3.2-2.4,6.6-4.5,9.5-7.3c11.5-11.4,25.5-16.3,41.5-18.5c35.7-4.8,71.7-6.5,107.6-8.7
		c45.1-2.9,90.1-5.3,135.2-7.9c26.3-1.5,52.6-3.2,78.9-4.2c11.6-0.5,21.9-3.1,31.8-9.6c29.6-19.5,59.6-38.4,90.7-55.4
		c29.8-16.2,60.2-31.2,89.6-48.1c27.4-15.7,54.9-31.2,82.9-46c21.5-11.3,44.3-19.9,66.1-30.4c31.4-15,63.1-28.9,96.1-39.9
		c18.1-6,36.2-12.3,55-16.2c5.4-1.1,10.9-1.1,16.3,0.5c4.8,1.4,5.9,3.5,4.2,8.1c-0.6,1.5-1.3,3.1-2.3,4.4
		c-7.8,11.6-15.7,23.2-23.6,34.7c-12.3,18-25.1,35.6-36.8,54c-19.8,31-44.4,58.2-67.8,86.4C847,258.1,802.9,312,760,366.8
		c-28.9,37-58.6,73.4-85.5,112c-2,2.9-3.8,5.8-5,9.2c-1.1,3.4,0.1,4.7,3.6,4.3c5.9-0.8,11.9-1.5,17.8-2.2c3.6-0.4,7.4-0.5,8.8,3.8
		c1.4,4.3,0.1,8.4-3.5,11.2c-6,4.6-12.9,7.6-19.9,10.3c-42.8,16.7-86.4,30.7-130.2,44.2c-2.9,0.9-6,2-9.4,1.4
		c-0.5-4.7,1.7-8.1,4.1-11.5c24.9-35.6,50.8-70.5,78-104.4c40.3-50.3,79.6-101.4,120.1-151.5c42.3-52.3,85.9-103.6,129.2-155.1
		c6.9-8.2,13.6-16.4,20.4-24.6c0.3-0.4,1.2-0.8,0.6-1.4C888.8,111.8,888.1,112,887.7,112.7z"/>
	<path class="st0" d="M1417.5,519.7c4.3-1.1,8.5-2.9,13.1-3c2.6,0,5.2,0.2,6.4,3c1.3,3,0.3,5.6-2,7.7c-1.3,1.2-2.9,2.3-4.5,3.1
		c-30.4,13.9-60.8,27.7-91.2,41.5c-7.1,3.2-11.3,0.5-11.4-7.4c-0.1-9.7,4.1-18.1,9-26.1c7-11.3,14.3-22.5,21.4-33.7
		c29.8-47.5,60.3-94.5,90.8-141.6c59.2-91.3,123.2-179.4,182.4-270.8c2.2-3.4,4.8-6.8,5.8-11.2c-4.3-1.1-8,0.4-11.7,1.3
		c-4,1-7.9,2.7-12.2,2.1c-3-0.4-6.1-1.1-6.4-5c-0.3-3.7,1.6-5.9,5-7.1c10.4-3.6,21.1-5.8,31.7-8.7c26.2-7,53.1-10.8,79.5-16.8
		c3.5-0.8,6.8-0.8,8.9,2.5c2.1,3.3,0.2,6.3-1.9,8.6c-16.8,18.2-30.2,38.9-44.3,59.1c-13,18.6-28.1,35.5-41.7,53.7
		c-22.2,29.8-42.8,60.7-64.4,90.9c-16,22.3-32,44.7-47.4,67.4c-1.6,2.3-2.8,4.9-4.2,7.3c-0.2,0.5-0.9,0.9-0.1,1.3
		c0.2,0.1,0.6-0.4,0.9-0.6c17.2-9.6,33.3-20.7,49.2-32.3c23.5-17.2,47.7-33.5,71.7-49.9c8.8-6,18.9-7.1,29.1-7.8
		c21.8-1.5,43.6-2.9,65.4-0.2c4.1,0.5,9.5-0.7,10.8,5c1.3,5.6-3.5,8.2-7.1,11c-4.4,3.4-9.9,4.8-14.9,6.8
		c-25.1,10.3-48.2,24-70.7,38.9c-30.7,20.5-63.7,36.5-96.3,53.5c-8,4.1-16.4,7.1-24.8,10.8c0.8,10.9,4.2,21,6.8,31.2
		c11.6,44.3,28,87,42,130.5c3.9,12,7.6,24.1,11.9,35.9c5.1,14.1,13.6,26.6,20.7,39.8c3.1,5.7,6.7,11.1,9.7,16.9
		c2.5,4.7,1.6,6.7-3.7,8.7c-8.2,3.1-16.9,3.4-25.6,3.8c-13.8,0.7-27.2-2-40.6-4.6c-7.3-1.4-12-6.3-14.7-13
		c-5.9-14.3-9.6-29.4-13.2-44.4c-11.7-48.2-21.3-96.8-32-145.2c-2.6-11.5-4.7-23.1-7.3-35.6c-1.5,1.8-2.5,3-3.6,4.4
		c-21.4,26.7-39,55.9-56.4,85.3c-6.4,10.7-12.6,21.5-18.8,32.3c-0.2,0.3-0.4,0.5-0.5,0.8C1416.7,519.7,1417.1,519.7,1417.5,519.7z"
		/>
	<path class="st0" d="M1105.7,500.7c5.1-1,9.3-3.4,14.1-2c3,0.9,5.9,1.7,6.4,5.3c0.6,3.9-2,5.8-5,7.2c-8.8,4-17.7,7.6-26.4,11.7
		c-16.9,8.1-33.5,17-49.4,27c-4.6,2.8-9.4,4.9-14.9,5.2c-3.1,0.1-4.7-1.2-5.3-4c-0.7-3.7-0.2-7.1,1.6-10.6
		c15.3-29.1,30.1-58.5,46.7-87c1.7-2.8,3.4-5.7,3.6-9.5c-2.2,0.2-3.1,1.9-4.4,2.9c-23.8,20.8-47.2,42.1-70.6,63.4
		c-18.4,16.8-39.7,29.6-62.3,40c-8.6,4-17.7,6.9-27.2,7.8c-7.3,0.7-10.9-1.9-12.6-9.1c-4.2-18-1.8-35.5,4.6-52.4
		c24-63.5,58.3-120.9,103.4-171.7c12.1-13.6,26-25.4,40.3-36.5c13.9-10.7,30.5-15.4,47.2-19.2c22.9-5.1,46.2-8.1,69.5-10.4
		c28.8-2.8,57.8-4.3,86.6-6.9c2.5-0.2,5-0.3,7.5-0.4c4.6-0.3,5.5,0.8,4.1,5.2c-3.8,12.8-11,23.8-18.8,34.4
		c-28.8,38.7-55.7,78.8-82,119.3c-19,29.3-37.3,59.1-56.2,88.4C1106.1,499,1106,499.5,1105.7,500.7z M1169.8,298
		c-2.6-1.7-2.6-1.6-4.4-2c-21.2-3.8-41.1,1.5-59.1,11.5c-25.5,14.2-48.1,32.7-65.7,56.1c-23.3,30.7-44.9,62.8-63.3,96.8
		c-3.4,6.3-5.8,13-7.6,20c-0.7,2.8-0.9,5.6-0.5,8.4c0.6,4.6,3.4,5.9,7.3,3.5c2.4-1.5,4.7-3.2,6.9-5c20.3-16.5,39.2-34.6,58-52.8
		c43.4-42.1,85.7-85.3,125.2-131.2C1167.8,301.7,1169.6,300.3,1169.8,298z"/>
	<path class="st0" d="M1826.6,500.6c4.6-0.6,8.5-3.1,12.9-2.1c3.2,0.7,6.8,1.2,7.6,5.3c0.8,4.4-2.4,6.3-5.6,7.8
		c-5.6,2.5-11.4,4.7-17,7.2c-19.5,8.9-38.4,19.1-56.7,30.2c-4.9,3-9.8,5.6-15.6,6.1c-4.1,0.3-5.7-1.5-6.2-5.3
		c-0.4-3.4,0.3-6.5,2-9.6c15.3-29.1,30.1-58.5,46.7-87c1.6-2.8,3.4-5.7,3.5-10.1c-7.2,6.3-13.7,12.1-20.3,17.8
		c-20.7,17.6-39.4,37.4-60.6,54.3c-23.4,18.7-48.4,35.4-78.4,42.2c-12.2,2.8-17-0.7-18.8-12.9c-3.1-21.8,3-41.8,11-61.6
		c21.6-53.9,51.6-102.7,88.6-147.3c14.5-17.5,31.3-32.8,49.2-46.7c15.4-12,33.9-16.7,52.4-20.7c35.9-7.7,72.5-10.3,109-13.1
		c16.6-1.3,33.2-2.4,49.8-3.6c4.9-0.3,5.7,0.6,4.2,5.4c-3.8,12.6-10.8,23.5-18.6,33.9c-29.5,39.5-56.8,80.5-83.6,121.7
		c-18.5,28.4-36.1,57.4-54.5,85.9C1827,498.9,1827,499.6,1826.6,500.6z M1890.9,298.3c-1.3-2-3-2-4.6-2.3
		c-21.4-3.7-41.5,1.4-59.5,11.8c-28.9,16.7-53.9,38.5-73.2,66.1c-11.9,17.1-23.7,34.2-35,51.6c-8.8,13.7-17.4,27.6-23.9,42.5
		c-2.6,5.9-4.9,12-4.8,18.7c0.1,2.6,0.3,5.1,2.9,6.5c2.4,1.2,4.2-0.6,5.8-1.8c5.8-4.5,11.6-8.9,17.1-13.8
		c56.9-50.9,110.3-105.4,161.2-162.2C1881.8,309.9,1887.1,304.6,1890.9,298.3z"/>
	<path class="st0" d="M1069,76.2c-7.5,0-14.5,0.1-21.5,0c-2.6,0-6.2,1-6.7-3.2c-0.5-4.2,1.3-7.3,5.6-8.1c8-1.6,16-3.1,24-4.5
		c26.9-4.7,53.8-9,80.9-12.7c3.3-0.5,7.5-2.2,9.5,1.8c1.9,3.8,0.6,8-2,11.2c-5.9,7.3-12,14.3-18,21.4
		c-46.8,55.9-92.5,112.8-135.1,172.1c-16.2,22.6-32.8,44.9-49.8,66.9c-10.1,13-22,24.6-31.7,38c-22.3,30.9-44.1,62.2-64.6,94.4
		c-8.6,13.4-15.1,28.1-22.5,42.2c-1,1.9-1.8,3.9-1.3,6.5c3.7,0.4,7-1.6,10.5-2c3.3-0.3,6.7-1.2,9.3,1.8c3.9,4.5,2.7,9.7-3.2,11.7
		c-14.5,4.8-29.2,8.9-43.6,14.1c-23.6,8.6-47.3,16.8-70.9,25.2c-1.3,0.4-2.5,1.1-3.8,1.2c-2.5,0.3-5.3,3.1-7.4,0.5
		c-2.1-2.6-1.3-6.1,0.1-9c4-7.7,7.9-15.4,12.2-22.9c36.9-63,79.3-122.3,122.7-181c40.3-54.5,82.2-107.8,124.4-160.8
		c26.2-32.8,51-66.7,78.3-98.6C1066.1,80.7,1067.4,78.6,1069,76.2z"/>
	<path class="st0" d="M1277.8,399.4c9.4-2.3,18.1-4.4,26.7-6.6c26-6.8,51.7-14.9,77.3-23.1c9.2-3,14-0.9,18.1,7.9
		c5.6,12.2,4.4,20.4-5.2,29.9c-13.1,12.8-27.1,24.8-42.1,35.3c-23.1,16.2-44.6,34.4-65.1,53.7c-51,48-106.4,90.1-165.5,127.5
		c-8.4,5.3-15.9,12-25.3,15.9c-4.6,1.9-8.6,1.8-12.5-1.4c-10.3-8.4-12.1-19.4-10-31.6c2.4-13.3,8.6-23.8,20.3-31.7
		c58.9-39.6,114.9-83.1,171-126.6c4.6-3.6,9-7.4,12.7-12c1-1.3,1.9-2.6,3.5-4.8c-7.7,0.3-14.1,2.5-20.6,3.9c-14,3-27.9,6.5-42,8.8
		c-15.1,2.5-23.3-6.7-19-21.5c2.5-8.6,7.3-16,12.5-23.1c24.3-33.4,53.8-62.2,82.4-91.8c14.7-15.2,29.8-30.1,43.7-46
		c9.9-11.4,22.5-13.3,35.9-13.9c16.4-0.7,32.5,1.8,48.4,5.6c3.6,0.9,6.9,2.2,7.5,6.3c0.6,4.3-1.8,7.2-5.4,9.3
		c-21,12-40.4,26.3-59.7,40.8c-15.5,11.6-27.8,26.3-41.1,40c-13.8,14.2-28.4,27.7-42,42.1C1280.6,394,1278.8,395.7,1277.8,399.4z"/>
</g>
</svg>
