<?xml version="1.0" encoding="utf-8"?>
<!-- Generator: Adobe Illustrator 21.0.2, SVG Export Plug-In . SVG Version: 6.00 Build 0)  -->
<svg version="1.1" id="Layer_1" xmlns="http://www.w3.org/2000/svg" xmlns:xlink="http://www.w3.org/1999/xlink" x="0px" y="0px"
	 viewBox="0 0 792 179" style="enable-background:new 0 0 792 179;" xml:space="preserve">
<style type="text/css">
	.st0{fill:url(#SVGID_1_);}
	.st1{fill:url(#SVGID_2_);}
	.st2{fill:url(#SVGID_3_);}
	.st3{fill:url(#SVGID_4_);}
	.st4{fill:#394C75;}
</style>
<g>
	<g>
		
			<linearGradient id="SVGID_1_" gradientUnits="userSpaceOnUse" x1="668.6" y1="924.3132" x2="668.6" y2="968.6298" gradientTransform="matrix(1 0 0 1 0 -900)">
			<stop  offset="0" style="stop-color:#00D9FF"/>
			<stop  offset="1" style="stop-color:#0E518A"/>
		</linearGradient>
		<path class="st0" d="M638.8,23.6c12.5,0,20.6-1.9,29.7,8.7l29.9,36.9h-22.2c-5,0-10.7-1.4-15.4-9.3L638.8,23.6z"/>
		
			<linearGradient id="SVGID_2_" gradientUnits="userSpaceOnUse" x1="684.2842" y1="1008.5" x2="753.79" y2="1008.5" gradientTransform="matrix(1 0 0 1 0 -900)">
			<stop  offset="0" style="stop-color:#F12E1F"/>
			<stop  offset="1" style="stop-color:#9F1E1C"/>
		</linearGradient>
		<path class="st1" d="M706.6,79.9l47.2,57.2h-33.1c-11.4,0-18-6.8-22.3-14.1l-14.2-24.1l4.1-12.7L706.6,79.9z"/>
		<g>
			<g>
				
					<linearGradient id="SVGID_3_" gradientUnits="userSpaceOnUse" x1="725.8567" y1="965.6062" x2="686.5468" y2="1000.4497" gradientTransform="matrix(1 0 0 1 0 -900)">
					<stop  offset="0" style="stop-color:#F12E1F"/>
					<stop  offset="1" style="stop-color:#9F1E1C"/>
				</linearGradient>
				<path class="st2" d="M687.8,105c2.1-9.3,18.3-17,26.7-15.7L706,78.9l-13.9,3L683,96.6L687.8,105z"/>
			</g>
		</g>
		
			<linearGradient id="SVGID_4_" gradientUnits="userSpaceOnUse" x1="686.9995" y1="988.157" x2="724.1168" y2="987.4399" gradientTransform="matrix(1 0 0 1 0 -900)">
			<stop  offset="0" style="stop-color:#E6EAEF"/>
			<stop  offset="1" style="stop-color:#95AAB1"/>
		</linearGradient>
		<path class="st3" d="M687.5,104.6l-10.9-18.4c-3.2-5.7-0.3-12.5,11.3-13.8s31.8-3.2,37.5,8.6C709.7,79.4,686.3,84.2,687.5,104.6z"
			/>
	</g>
	<g>
		<g>
			<g>
				<path class="st4" d="M125.8,114.9V92.1c0-7.5-2.7-11.4-7.8-11.4c-3.4,0-6.4,2.3-7.7,5.8c-0.3,0.9-0.5,2.3-0.5,3.6v24.7h-9.6V91
					c0-6.5-2.8-10.3-7.6-10.3c-4.2,0-6.9,3.3-8,6.2c-0.4,1.2-0.5,2.4-0.5,3.6v24.4h-9.6v-29c0-4.7-0.2-8.7-0.3-12.1h8.3L83,80h0.8
					l0.1-0.2c1.9-3.2,5.7-7,12.6-7c5.2,0,9.5,2.9,11.3,7.5l0.1,0.2h0.6l0.1-0.2c1.4-2.2,3-3.9,5-5.1c2.5-1.7,5.1-2.4,8.4-2.4
					c3.2,0,13.6,1.3,13.6,17.8v24.3C135.6,114.9,125.8,114.9,125.8,114.9z"/>
				<path class="st4" d="M163.4,115.7c-13.1,0-21.2-8-21.2-20.8c0-10.7,6.3-22.2,20.1-22.2c13.1,0,17.7,10.8,17.7,20
					c0,2-0.2,3.4-0.3,4.1h-28.1v0.4c0.3,8.2,7,11.2,13.2,11.2c5.2,0,8.6-0.9,11.3-1.8l1.4,6.6C174.8,114.4,170.1,115.7,163.4,115.7
					L163.4,115.7z M161.7,79.3c-7.1,0-9.7,6.6-10,10.5v0.4h19.1v-0.3c0-1.2-0.1-5.4-2.8-8.2C166.3,80.1,164.2,79.3,161.7,79.3
					L161.7,79.3z"/>
				<path class="st4" d="M187.4,114.9v-28c0-5.9-0.1-9.7-0.3-13.1h8.4l0.4,7.9h0.8l0.1-0.2c1.8-5.2,6.2-8.6,11.2-8.6
					c0.9,0,1.4,0.1,3.9,0.2v9.2c-2.6-0.1-3.5-0.2-4.6-0.2c-5,0-8.8,3.2-9.8,8.3c-0.2,1-0.3,2.1-0.3,3.2V115L187.4,114.9L187.4,114.9
					L187.4,114.9z"/>
				<path class="st4" d="M255.1,115.7c-12.9,0-21.2-8.3-21.2-21c0-13.1,9.2-21.9,22.9-21.9c3.4,0,7.2,0.7,9.8,1.8l-1.7,7.3
					c-2.2-1-4.7-1.5-7.8-1.5c-3.8,0-7,1.3-9.3,3.6c-2.5,2.5-3.8,6.2-3.8,10.3c0,8.3,5.3,13.8,13.1,13.8c2.9,0,5.5-0.5,8.1-1.5
					l1.3,7.1C264.4,114.7,260.2,115.7,255.1,115.7L255.1,115.7z"/>
				<path class="st4" d="M283.9,115.8c-8.4,0-12.8-6.1-12.8-12.1c0-10,8.6-15.5,24.1-15.5h0.7v-1c0-2.9-1.1-7.6-8.8-7.6
					c-3.8,0-8,1.1-11,2.9l-1.9-6.2c1.7-1,6.8-3.5,14.7-3.5c14,0,16.9,9.4,16.9,17.3v15c0,4.2,0.2,7.4,0.6,9.7h-8.8l-0.8-4.6h-0.7
					l-0.1,0.1C293.4,113.8,289,115.8,283.9,115.8L283.9,115.8z M295.3,94.4c-9.5,0-14.4,2.7-14.4,8.2c0,3.9,2.4,6.4,6.4,6.4
					c4.6,0,7.6-3,8.7-6c0.3-0.8,0.3-1.6,0.3-2.4v-6.1L295.3,94.4z"/>
				<path class="st4" d="M341.2,114.9V91.6c0-7-3-10.9-8.3-10.9c-4.7,0-7.5,3.5-8.6,6.4c-0.3,0.8-0.5,2.1-0.5,3.5v24.3h-9.9v-29
					c0-4.7-0.2-8.7-0.3-12.1h8.5l0.5,6.3h0.8l0.1-0.2c2-3.4,6.4-7,13.1-7c7,0,14.5,4.6,14.5,17.6V115L341.2,114.9L341.2,114.9z"/>
				<path class="st4" d="M441.5,114.9v-28c0-5.9-0.1-9.7-0.3-13.1h8.4l0.4,7.9h0.8l0.1-0.2c1.8-5.2,6.2-8.6,11.2-8.6
					c0.9,0,1.4,0.1,3.9,0.2v9.2c-2.6-0.1-3.5-0.2-4.6-0.2c-5,0-8.8,3.2-9.8,8.3c-0.2,1-0.3,2.1-0.3,3.2V115L441.5,114.9L441.5,114.9
					L441.5,114.9z"/>
				<rect x="470.3" y="54.6" class="st4" width="9.9" height="60.3"/>
				<path class="st4" d="M538.3,114.9V91.6c0-7-3-10.9-8.3-10.9c-4.7,0-7.5,3.5-8.6,6.4c-0.3,0.8-0.5,2.1-0.5,3.5v24.3H511v-29
					c0-4.7-0.2-8.7-0.3-12.1h8.5l0.5,6.3h0.8l0.1-0.2c2-3.4,6.4-7,13.1-7c7,0,14.5,4.6,14.5,17.6V115L538.3,114.9L538.3,114.9z"/>
				<path class="st4" d="M576.9,115.7c-13.1,0-21.2-8-21.2-20.8c0-10.7,6.3-22.2,20.1-22.2c13.1,0,17.7,10.8,17.7,20
					c0,2-0.2,3.4-0.3,4.1h-28.1v0.4c0.3,8.2,7,11.2,13.2,11.2c5.2,0,8.6-0.9,11.3-1.8l1.4,6.6C588.3,114.4,583.6,115.7,576.9,115.7
					L576.9,115.7z M575.2,79.3c-7.1,0-9.7,6.6-10,10.5v0.4h19.1v-0.3c0-1.2-0.1-5.4-2.8-8.2C579.8,80.1,577.7,79.3,575.2,79.3
					L575.2,79.3z"/>
				<path class="st4" d="M610.7,115.7c-4.6,0-9-1-12.3-2.7l2-7c2.5,1.5,6.8,2.9,10.4,2.9c4.5,0,7-1.8,7-5.1c0-3.2-2.3-4.7-7.1-6.4
					c-7.4-2.5-11.3-6.6-11.3-11.9c0-7.5,6.4-12.7,15.5-12.7c4,0,8,0.9,10.8,2.3l-1.9,6.7c-2-1.1-5.2-2.2-8.6-2.2
					c-3.8,0-6.2,1.9-6.2,4.8s2.2,4.2,7.5,6.2c7.6,2.6,10.9,6.3,10.9,12.4C627.4,110.8,621,115.7,610.7,115.7L610.7,115.7z"/>
			</g>
			<path class="st4" d="M59.2,114.9h10.7L51.4,57.7h-13L20,114.9h10.2l3.6-12.6h21.6L59.2,114.9z M35.9,95.1l5.4-18.6
				c0.6-2.2,1.2-4.6,1.8-7c0.3-1.3,0.6-2.6,1-3.8l0.1-0.3h0.7l0.6,2.2c0.7,2.8,1.5,6,2.4,8.8L53.4,95L35.9,95.1L35.9,95.1z"/>
			<path class="st4" d="M405.3,114.9H416l-18.6-57.2h-13l-18.3,57.2h10.2l3.6-12.6h21.6L405.3,114.9z M382,95.1l5.4-18.6
				c0.6-2.2,1.2-4.6,1.8-7c0.3-1.3,0.6-2.6,1-3.8l0.1-0.3h0.7l0.6,2.2c0.7,2.8,1.5,6,2.4,8.8l5.5,18.6H382V95.1z"/>
		</g>
		<g>
			<path class="st4" d="M217.3,114.9V73.7h9.9v41.1h-9.9V114.9z"/>
			<rect x="217.8" y="58" class="st4" width="8.9" height="8.4"/>
		</g>
		<g>
			<path class="st4" d="M420.8,114.9V73.7h9.9v41.1h-9.9V114.9z"/>
			<rect x="421.3" y="58" class="st4" width="8.9" height="8.4"/>
		</g>
		<g>
			<path class="st4" d="M491.4,114.9V73.7h9.9v41.1h-9.9V114.9z"/>
			<rect x="492" y="58" class="st4" width="8.9" height="8.4"/>
		</g>
	</g>
	<g>
		<path class="st4" d="M758.3,131.9h-1.8v-0.6h4.3v0.6H759v5.2h-0.8L758.3,131.9L758.3,131.9z"/>
		<path class="st4" d="M766.4,134.5c0-0.8-0.1-1.8-0.1-2.5l0,0c-0.2,0.7-0.4,1.4-0.7,2.2l-1,2.8H764l-0.9-2.8
			c-0.3-0.8-0.5-1.6-0.7-2.3l0,0c0,0.7-0.1,1.7-0.1,2.6l-0.2,2.5h-0.7l0.4-5.8h1l1,2.8c0.2,0.7,0.4,1.3,0.6,2l0,0
			c0.2-0.6,0.4-1.2,0.6-2l1-2.8h1l0.4,5.8h-0.7L766.4,134.5z"/>
	</g>
</g>
</svg>
