<?xml version="1.0" encoding="utf-8"?>
<!-- Generator: Adobe Illustrator 19.0.1, SVG Export Plug-In . SVG Version: 6.00 Build 0)  -->
<svg version="1.1" id="Layer_1" xmlns="http://www.w3.org/2000/svg" xmlns:xlink="http://www.w3.org/1999/xlink" x="0px" y="0px"
	 viewBox="-310 593.3 169.6 38.7" style="enable-background:new -310 593.3 169.6 38.7;" xml:space="preserve">
<style type="text/css">
	.st0{fill:#FFFFFF;}
</style>
<g>
	<path class="st0" d="M-284.2,616.8c0.8-1.7,1.3-3.7,1.3-5.7c0-4.7-2.4-8.8-6-11.3c2.2-2.2,4.5-4.4,7-6.6c-2.9,1.7-5.7,3.7-8.2,5.8
		c-1.9-1-4-1.5-6.3-1.5c-7.5,0.1-13.6,6.2-13.6,13.6c0,3.4,1.2,6.5,3.3,8.8c-2.6,5.6-3,10.1-0.8,11.6c2.4,1.6,7.8-1.3,11-6.1
		c0,0-4.9,4.5-7.6,3.4c-1.7-0.6-1.7-3.2-0.3-6.8c2.2,1.6,5,2.6,8,2.6c3.7,0,7.1-1.5,9.5-3.9l0.5,0.9c5.9-0.5,23.5-0.9,23.5-0.9
		C-263,619.9-274.6,620.6-284.2,616.8z M-308.4,611.1c0-6.6,5.4-11.9,11.9-11.9c1.8,0,3.4,0.4,4.9,1.1c-6.4,5.7-11.4,12.3-14.3,18.1
		C-307.5,616.3-308.4,613.8-308.4,611.1z M-296.5,623c-2.8,0-5.3-1-7.4-2.6c2.4-5.3,7.2-12.5,13.7-19.4c3.3,2.1,5.6,5.8,5.6,10.1
		c0,1.8-0.4,3.5-1.1,5.1c-2.1-1-4-2.2-5.7-3.7l3.6,6.7C-289.9,621.6-293,623-296.5,623z"/>
	<g>
		<g>
			<g>
				<g>
					<g>
						<g>
							<polygon class="st0" points="-203.4,609.9 -201.2,607 -208.9,607 -207,604.4 -199.3,604.4 -197.1,601.5 -212.5,601.5 
								-223,615.5 -207.7,615.5 -205.5,612.6 -213.2,612.6 -211.1,609.9 							"/>
							<polygon class="st0" points="-192.8,601.5 -203.3,615.5 -195.7,615.5 -185.1,601.5 							"/>
							<polygon class="st0" points="-167.3,601.5 -172.6,608.6 -174.3,601.5 -180.3,601.5 -190.8,615.5 -185.7,615.5 -180.4,608.5 
								-178.8,615.5 -172.8,615.5 -162.2,601.5 							"/>
							<path class="st0" d="M-142.3,601.5h-12.3c-2.1,0-4,1-5.2,2.6l-6.3,8.4c-0.2,0.3-0.4,0.7-0.4,1.1c0,1,0.8,1.9,1.9,1.9h12.3
								c2.1,0,4-1,5.2-2.6l1.5-2h1.8l2.2-3h-9.4l-3,3.9c-0.3,0.4-0.8,0.7-1.3,0.7h-2.2c-0.3,0-0.5-0.2-0.5-0.5c0-0.1,0-0.2,0.1-0.3
								l5-6.7c0.3-0.4,0.8-0.7,1.3-0.7h2.2c0.3,0,0.5,0.2,0.5,0.5c0,0.1,0,0.2-0.1,0.3l-0.8,1.1h7.6l1.4-1.8
								c0.2-0.3,0.4-0.7,0.4-1.1C-140.4,602.4-141.2,601.5-142.3,601.5L-142.3,601.5z"/>
							<path class="st0" d="M-218.7,603.4c0-1-0.8-1.9-1.9-1.9h-12.3c-2.1,0-4,1-5.2,2.6l-6.4,8.4c-0.2,0.3-0.4,0.7-0.4,1.1
								c0,1,0.8,1.9,1.9,1.9h12.3c2.1,0,4-1,5.2-2.6l6.3-8.4C-218.9,604.2-218.7,603.8-218.7,603.4L-218.7,603.4z M-227.3,605.2
								l-5,6.7c-0.3,0.4-0.8,0.7-1.3,0.7h-2.2c-0.3,0-0.5-0.2-0.5-0.5c0-0.1,0-0.2,0.1-0.3l5-6.7c0.3-0.4,0.8-0.7,1.3-0.7h2.2
								c0.3,0,0.5,0.2,0.5,0.5C-227.2,605-227.2,605.1-227.3,605.2L-227.3,605.2z"/>
							<path class="st0" d="M-247.7,608.9c1.5-0.3,2.8-1.2,3.7-2.4l1.5-1.9c0.2-0.3,0.4-0.7,0.4-1.1c0-1-0.8-1.9-1.9-1.9h-7.9l0,0
								h-7.7l-10.5,14h7.5h8.6c2.1,0,4-1,5.2-2.6l1.5-2c0.2-0.2,0.3-0.6,0.3-0.9C-247.1,609.6-247.3,609.1-247.7,608.9L-247.7,608.9
								z M-254.8,610.7l-0.9,1.3c-0.3,0.4-0.8,0.7-1.3,0.7h-3.1l2-2.7h3c0.3,0,0.5,0.2,0.5,0.5
								C-254.7,610.5-254.7,610.6-254.8,610.7L-254.8,610.7z M-250.7,605.2l-0.8,1.1c-0.3,0.4-0.8,0.7-1.3,0.7h-3.1l1.9-2.5h3
								c0.3,0,0.5,0.2,0.5,0.5C-250.6,605-250.6,605.1-250.7,605.2L-250.7,605.2z"/>
						</g>
					</g>
				</g>
			</g>
		</g>
	</g>
</g>
</svg>
