<?xml version="1.0" encoding="utf-8"?>
<!-- Generator: Adobe Illustrator 19.0.1, SVG Export Plug-In . SVG Version: 6.00 Build 0)  -->
<svg version="1.1" id="Layer_1" xmlns="http://www.w3.org/2000/svg" xmlns:xlink="http://www.w3.org/1999/xlink" x="0px" y="0px"
	 viewBox="0 0 408.8 62.6" style="enable-background:new 0 0 408.8 62.6;" xml:space="preserve">
<style type="text/css">
	.st0{fill:#B38808;stroke:#B38808;}
	.st1{fill:#FFFFFF;}
	.st2{fill:#00674E;}
</style>
<g>
	<g>
		<path class="st0" d="M31.3,0.5c-17,0-30.8,13.8-30.8,30.8c0,17,13.9,30.8,30.8,30.8c17,0,30.8-13.8,30.8-30.8
			C62.1,14.3,48.3,0.5,31.3,0.5z M31.3,61C14.9,61,1.6,47.7,1.6,31.3c0-16.4,13.4-29.7,29.7-29.7C47.7,1.6,61,14.9,61,31.3
			C61,47.7,47.7,61,31.3,61z"/>
		<path class="st1" d="M31.3,2.6C15.5,2.6,2.7,15.5,2.7,31.3C2.7,47.1,15.5,60,31.3,60C47.1,60,60,47.1,60,31.3
			C60,15.5,47.1,2.6,31.3,2.6z M49.3,51.2c-0.9,0.3-1.8,0.5-2.7,0.1c-0.7-0.3-1.1-1-1.3-1.8c-0.2-1.1,0.5-2.5,1-3.4
			c0.8-1.3,2.5-3.5,4.6-5c2.9-2.1,4.9-2.7,4.1-3.2c-0.5-0.4-3.2,1.1-3.8,1.4c-3.1,1.6-7.3,6.1-7.8,9.5c-0.4,2.7,2.7,4.6,4.8,3.8
			c-6.8,5.8-14.3,6-16.9,6.1l0,0c0,0,0,0,0,0c0,0,0,0,0,0l0,0c-2.6-0.1-10.2-0.3-17-6.1c2.1,0.7,5.2-1.2,4.8-3.8
			c-0.5-3.4-4.7-7.9-7.8-9.5C10.8,39,8,37.4,7.5,37.8c-0.7,0.5,1.3,1.1,4.1,3.2c2,1.5,3.8,3.8,4.5,5c0.6,0.9,1.2,2.2,1.1,3.4
			c-0.1,0.8-0.6,1.5-1.3,1.8c-0.9,0.4-1.8,0.3-2.7-0.1c-1.4-0.5-2.5-1.6-3.4-2.9c-1.8-2.4-3.6-5.2-4.4-8.2c0.8,1.7,5.6,8.8,7.8,8.9
			c2.2,0.1-2.2-5.8-5.2-8.2c-0.7-0.6-1.6-1.3-1.7-2.4C6.2,37.6,6.6,37,7.4,37c1.2,0,4.3,1.6,4.4,1.5c-5.4-9.7,2.9-14.7-0.6-16.8
			c-1.2-0.8-3.7,0-5.1,0.2c12.8-7.5,15,0,18.9,3.4c0.6,0.6,3.3,0,3.8-0.6c0.7-0.8,2-3.8,0.5-5.7C27,16.2,17.8,7.9,9.3,15.2
			C13.4,8.6,23,3.7,31.3,3.9c8.4-0.2,17.9,4.7,22,11.3c-8.5-7.4-17.7,1-20,3.8c-1.5,1.9-0.2,4.9,0.5,5.7c0.5,0.6,3.2,1.2,3.8,0.6
			c3.8-3.5,6.1-11,18.8-3.4c-1.4-0.2-3.9-1-5.1-0.2c-3.4,2.1,4.8,7.1-0.6,16.8c0,0.1,3.2-1.6,4.4-1.5c0.8,0,1.2,0.6,1.1,1.4
			c-0.2,1.1-1,1.8-1.7,2.4c-3,2.5-7.4,8.4-5.2,8.2c2.2-0.1,7-7.2,7.8-8.9c-0.9,3-2.7,5.8-4.5,8.2C51.8,49.6,50.7,50.7,49.3,51.2z
			 M34.5,47.9c-1,0.1-2.2,0.3-3.1,0.3c-0.9,0-2.1-0.2-3.1-0.3C28.1,47.9,28,48,28,48c-0.6,1.3,2.9,2,3.4,2c0.5,0,4-0.7,3.4-2
			C34.8,48,34.6,47.9,34.5,47.9z M31.4,36.6L31.4,36.6C31.4,36.6,31.4,36.6,31.4,36.6C31.3,36.6,31.3,36.6,31.4,36.6L31.4,36.6
			c-1,0-1.5,0.9-2.5,1.8c-1.6,1.7-4.8,6-2.5,8c1,0.9,2.4,1.5,4.3,0.9c0.5-0.3,0.2-1.3,0-1.7c-0.9-1.1-2.3-0.7-2.6-1.3
			c-0.4-0.6-0.1-1,0.1-1.3c0.3-0.4,0.9-0.3,1.3-0.2c0.8,0.2,1.3,0.5,1.8,1v0c0,0,0,0,0,0c0,0,0,0,0,0v0c0.5-0.5,1-0.8,1.8-1
			c0.4-0.1,1-0.2,1.3,0.2c0.2,0.3,0.5,0.7,0.1,1.3c-0.4,0.6-1.7,0.1-2.6,1.3c-0.2,0.4-0.5,1.4-0.1,1.7c1.9,0.6,3.3,0,4.3-0.9
			c2.4-2-0.9-6.3-2.5-8C32.9,37.4,32.3,36.6,31.4,36.6z M51.5,29.5c-0.1-1.2-1.2-1.6-2.1-1.8c-2.7-0.8-3.8,0.2-4.6,0.3
			c0.8-1,0.6-2.6-0.5-2.7c-2.1-0.3-1.5,1.9-1,3c0.3,0.7,0.7,1.7,1.8,1.7c1.3-0.1,1.1-1.1,2.9-1.3c0,0,2.3,0.2,2.2,0.9
			c-0.1,1.1-1.3,1.5-2,1.7c-1.1,0.4-2.4-0.2-3.3,0.9c-0.3,0.3-0.5,0.8-0.4,1.2c0.1,0.4,0.1,0.2,1.4,0.3c-0.7,0.9-1.1,2.2-1.1,3.3
			c0,3.1-0.8,5.5-0.5,6.6c1.5-1.8,1.5-4.5,1.7-6.7c0.1-1.1,0.6-2.4,1.1-3.2c0.6-1,1.8-1,2.6-1.6C50.4,31.4,51.6,30.4,51.5,29.5z
			 M18.5,25.2c-1.1,0.2-1.3,1.8-0.5,2.7c-0.8-0.1-1.9-1.1-4.5-0.3c-0.9,0.3-2,0.7-2.1,1.8c-0.1,0.9,1.1,1.8,1.8,2.4
			c0.8,0.6,2,0.6,2.6,1.6c0.5,0.8,1,2.1,1.1,3.2c0.2,2.2,0.2,4.9,1.7,6.7c0.3-1.1-0.5-3.5-0.5-6.6c0-1.1-0.5-2.5-1.1-3.3
			c1.2-0.1,1.3,0.1,1.4-0.3c0.1-0.4-0.1-0.8-0.4-1.2c-0.9-1.1-2.2-0.5-3.3-0.9c-0.8-0.3-1.9-0.7-2-1.7c0-0.7,2.2-0.9,2.2-0.9
			c1.8,0.1,1.6,1.2,2.8,1.3c1,0.1,1.5-1,1.8-1.7C20.1,27.1,20.6,24.9,18.5,25.2z M26.5,38.4c0.8-1.3,1.7-4.1,1.2-5.3
			c-0.8-0.3-1.8-1-2.4-1.9c-0.6-0.9-0.9-1.8-2-2.1c-0.7-0.3-1.5-0.1-2,0.2c-0.9,0.5-1.1,1.8-1.3,2.8c-0.1,2.1,0.3,5.1,1.2,7.1
			c0.5,1.4,1.8,3.8,3.3,6C24.1,41.7,26.1,39.4,26.5,38.4z M23.8,33.9c-0.4-0.7-1.5-0.6-1.9-0.9c-0.8-0.5-0.8-1.6,0-2.3
			c1-0.9,3.5,2,2.9,4.2C24.5,35,24.4,34.8,23.8,33.9z M41.3,29.4c-0.6-0.3-1.4-0.5-2-0.2c-1,0.3-1.4,1.2-2,2.1
			c-0.6,0.9-1.6,1.5-2.4,1.9c-0.5,1.2,0.4,4,1.2,5.3c0.5,1,2.4,3.3,2,6.8c1.5-2.2,2.8-4.6,3.3-6c0.9-1.9,1.3-5,1.2-7.1
			C42.5,31.2,42.2,29.9,41.3,29.4z M40.7,33c-0.5,0.3-1.5,0.1-1.9,0.9c-0.6,0.9-0.7,1.1-0.9,1c-0.6-2.2,1.9-5,2.9-4.2
			C41.5,31.4,41.5,32.5,40.7,33z"/>
		<path class="st2" d="M31.3,1.6C14.9,1.6,1.6,14.9,1.6,31.3C1.6,47.7,14.9,61,31.3,61C47.7,61,61,47.7,61,31.3
			C61,14.9,47.7,1.6,31.3,1.6z M31.3,60C15.5,60,2.7,47.1,2.7,31.3c0-15.8,12.9-28.7,28.7-28.7C47.1,2.6,60,15.5,60,31.3
			C60,47.1,47.1,60,31.3,60z M49.4,49c-2.2,0.1,2.2-5.8,5.2-8.2c0.7-0.6,1.6-1.3,1.7-2.4c0.1-0.8-0.3-1.3-1.1-1.4
			c-1.2,0-4.3,1.6-4.4,1.5c5.4-9.7-2.9-14.7,0.6-16.8c1.2-0.8,3.7,0,5.1,0.2c-12.8-7.5-15,0-18.8,3.4c-0.6,0.6-3.3,0-3.8-0.6
			c-0.7-0.8-2-3.8-0.5-5.7c2.3-2.8,11.5-11.2,20-3.8c-4.1-6.6-13.6-11.5-22-11.3C23,3.7,13.4,8.6,9.3,15.2c8.4-7.4,17.7,1,19.9,3.8
			c1.6,1.9,0.2,4.9-0.5,5.7c-0.5,0.6-3.2,1.2-3.8,0.6c-3.8-3.5-6.1-11-18.9-3.4c1.4-0.2,3.9-1,5.1-0.2c3.4,2.1-4.9,7.1,0.6,16.8
			c0,0.1-3.2-1.6-4.4-1.5c-0.8,0-1.2,0.6-1.1,1.4c0.2,1.1,1,1.8,1.7,2.4c3,2.5,7.4,8.4,5.2,8.2c-2.2-0.1-7-7.2-7.8-8.9
			c0.9,3,2.6,5.8,4.4,8.2c1,1.3,2,2.4,3.4,2.9c0.9,0.3,1.8,0.5,2.7,0.1c0.7-0.3,1.1-1,1.3-1.8c0.2-1.1-0.5-2.5-1.1-3.4
			c-0.8-1.3-2.5-3.5-4.5-5c-2.9-2.1-4.9-2.7-4.1-3.2c0.5-0.4,3.2,1.1,3.8,1.4c3,1.6,7.3,6.1,7.8,9.5c0.4,2.7-2.7,4.6-4.8,3.8
			c6.8,5.8,14.3,6,17,6.1l0,0c0,0,0,0,0,0c0,0,0,0,0,0l0,0c2.6-0.1,10.2-0.3,16.9-6.1c-2.1,0.7-5.2-1.2-4.8-3.8
			c0.5-3.4,4.7-7.9,7.8-9.5c0.5-0.3,3.3-1.8,3.8-1.4c0.7,0.5-1.3,1.1-4.1,3.2c-2,1.5-3.8,3.8-4.6,5c-0.6,0.9-1.2,2.2-1,3.4
			c0.1,0.8,0.6,1.5,1.3,1.8c0.9,0.4,1.8,0.3,2.7-0.1c1.4-0.5,2.5-1.6,3.4-2.9c1.8-2.4,3.6-5.2,4.5-8.2C56.4,41.8,51.6,48.9,49.4,49z
			 M17.8,29.9c-1.2-0.1-1-1.1-2.8-1.3c0,0-2.3,0.2-2.2,0.9c0.1,1.1,1.2,1.5,2,1.7c1.1,0.4,2.4-0.2,3.3,0.9c0.3,0.3,0.5,0.8,0.4,1.2
			c-0.1,0.4-0.1,0.2-1.4,0.3c0.7,0.9,1.1,2.2,1.1,3.3c0,3.1,0.8,5.5,0.5,6.6c-1.5-1.8-1.5-4.5-1.7-6.7c-0.1-1.1-0.6-2.4-1.1-3.2
			c-0.6-1-1.9-1-2.6-1.6c-0.8-0.6-1.9-1.5-1.8-2.4c0.1-1.2,1.2-1.6,2.1-1.8c2.7-0.8,3.8,0.2,4.5,0.3c-0.8-1-0.6-2.6,0.5-2.7
			c2.1-0.3,1.5,1.9,1,3C19.2,28.8,18.8,29.9,17.8,29.9z M21.2,39.2c-0.9-1.9-1.3-5-1.2-7.1c0.1-1,0.4-2.3,1.3-2.8
			c0.6-0.3,1.4-0.5,2-0.2c1,0.3,1.4,1.2,2,2.1c0.6,0.9,1.6,1.5,2.4,1.9c0.5,1.2-0.4,4-1.2,5.3c-0.5,1-2.4,3.3-2,6.8
			C23,43,21.8,40.7,21.2,39.2z M31.3,50c-0.5,0-4-0.7-3.4-2c0,0,0.1-0.1,0.3-0.1c1,0.1,2.2,0.3,3.1,0.3c0.9,0,2.1-0.2,3.1-0.3
			c0.2,0,0.3,0.1,0.3,0.1C35.4,49.3,31.9,50,31.3,50z M36.2,46.4c-1,0.9-2.4,1.5-4.3,0.9c-0.5-0.3-0.2-1.3,0.1-1.7
			c0.9-1.1,2.2-0.7,2.6-1.3c0.4-0.6,0.1-1-0.1-1.3c-0.3-0.4-0.9-0.3-1.3-0.2c-0.8,0.2-1.4,0.5-1.8,1v0c0,0,0,0,0,0c0,0,0,0,0,0v0
			c-0.5-0.5-1-0.8-1.8-1c-0.5-0.1-1-0.2-1.3,0.2c-0.2,0.3-0.5,0.7-0.1,1.3c0.4,0.6,1.8,0.1,2.6,1.3c0.2,0.4,0.5,1.4,0,1.7
			c-1.9,0.6-3.3,0-4.3-0.9c-2.4-2,0.9-6.3,2.5-8c0.9-1,1.4-1.8,2.4-1.8l0,0c0,0,0,0,0,0c0,0,0,0,0,0l0,0c1,0,1.5,0.9,2.4,1.8
			C35.4,40.1,38.6,44.4,36.2,46.4z M41.3,39.2c-0.5,1.4-1.7,3.8-3.3,6c0.4-3.5-1.5-5.9-2-6.8c-0.8-1.3-1.7-4.1-1.2-5.3
			c0.8-0.3,1.8-1,2.4-1.9c0.6-0.9,0.9-1.8,2-2.1c0.7-0.3,1.5-0.1,2,0.2c0.9,0.5,1.2,1.8,1.3,2.8C42.7,34.3,42.2,37.3,41.3,39.2z
			 M49.6,31.9c-0.8,0.6-2,0.6-2.6,1.6c-0.6,0.8-1,2.1-1.1,3.2c-0.2,2.2-0.2,4.9-1.7,6.7c-0.3-1.1,0.5-3.5,0.5-6.6
			c0-1.1,0.4-2.5,1.1-3.3c-1.3-0.1-1.3,0.1-1.4-0.3c-0.1-0.4,0.1-0.8,0.4-1.2c0.9-1.1,2.2-0.5,3.3-0.9c0.8-0.3,1.9-0.7,2-1.7
			c0-0.7-2.2-0.9-2.2-0.9c-1.8,0.1-1.6,1.2-2.9,1.3c-1,0.1-1.4-1-1.8-1.7c-0.5-1-1.1-3.3,1-3c1.1,0.2,1.3,1.8,0.5,2.7
			c0.8-0.1,1.9-1.1,4.6-0.3c0.9,0.3,2,0.7,2.1,1.8C51.6,30.4,50.4,31.4,49.6,31.9z M24.8,34.9c0.6-2.2-1.9-5-2.9-4.2
			c-0.7,0.7-0.8,1.8,0,2.3c0.5,0.3,1.5,0.1,1.9,0.9C24.4,34.8,24.5,35,24.8,34.9z M40.7,30.7c-1-0.9-3.5,2-2.9,4.2
			c0.2,0.1,0.4-0.1,0.9-1c0.4-0.7,1.5-0.6,1.9-0.9C41.5,32.5,41.5,31.4,40.7,30.7z"/>
	</g>
	<path class="st2" d="M152.8,25.8c-1.9-1.5-3.7-1.3-4.4-0.4l-2.9,3.5V25h-7.1v0.6c1.8,0,2.5,0.5,2.5,2.2v9c0,1.8-0.5,2.4-2.3,2.4
		l0,0.7h9.4v-0.6c-1.8-0.1-2.4-0.7-2.4-2.5v-5c0-1.9,1.3-2.8,2.5-2.8c1.3,0,2.8,1,3.8,2.4L152.8,25.8z M131.1,25.1
		c-4.7,0-8.6,3.4-8.6,7.5c0,4.2,3.8,7.6,8.6,7.6c4.7,0,8.5-3.4,8.5-7.6C139.6,28.5,135.8,25.1,131.1,25.1z M131,38.9
		c-2.3,0-4.2-2.9-4.2-6.3c0-3.5,1.9-6.3,4.2-6.3c2.3,0,4.2,2.8,4.2,6.3C135.2,36,133.3,38.9,131,38.9z M191.6,25.1
		c-4.7,0-8.5,3.4-8.5,7.5c0,4.2,3.8,7.6,8.5,7.6c4.7,0,8.6-3.4,8.6-7.6C200.1,28.5,196.3,25.1,191.6,25.1z M191.5,38.9
		c-2.3,0-4.2-2.9-4.2-6.3c0-3.5,1.9-6.3,4.2-6.3c2.3,0,4.2,2.8,4.2,6.3C195.7,36,193.9,38.9,191.5,38.9z M121.3,36.9V19.9h-7.1v0.6
		c1.8,0.1,2.2,0.4,2.3,2v14.2c0,2-0.5,2.5-2.2,2.6v0.7h9.3v-0.6C121.9,39.2,121.4,38.6,121.3,36.9z M164.9,36.6v-7.4
		c0-2.4-3.1-4.2-5.7-4.2c-2.9,0-6.3,1.6-6.6,5.5c1.6-2.3,3.9-3.3,6.4-2.3c1.6,0.7,1.9,2.7,0.7,3l-4.9,1.5c-2.1,0.6-3.1,2.1-3,3.8
		c0.1,1.7,1.3,3.7,4,3.6c1.7,0,3.3-0.8,4.8-2.2c0.6,1.6,1.8,2.3,3.1,2.3c1.2,0,2.6-1,3-2.4C165.5,38.4,164.9,37.8,164.9,36.6z
		 M158.2,38.1c-1.6,0-2.3-1.3-2.3-2.5c0-0.9,0.5-1.6,1.1-1.9l3.4-1.5l0,3.5C160.5,37.2,159.7,38.1,158.2,38.1z M181.6,37V19.9h-6.9
		v0.5c1.8,0.2,2.4,0.1,2.4,2l0,4.2c-1.1-1.1-2.7-1.5-4.3-1.5c-4.2,0-6.9,3.9-6.9,7.3c0,4.2,2.1,7.5,8.1,7.5h9.7v-0.6
		C182.2,38.9,181.6,38,181.6,37z M177.1,37.3c0,0.7-0.6,1.6-1.7,1.5c-2.9-0.1-4.9-3.3-5-6.4c-0.1-2.4,1.1-5.7,3.7-5.8
		c1.7,0,3,0.6,3,2.6V37.3z M107.1,25.1c-4.7,0-8.6,3.4-8.6,7.5c0,0.8,0.1,1.6,0.4,2.3c-2.2,2.3-4.8,3.2-6.5,3
		c-8.5-0.5-8.6-16.7,0.2-16.6c5.1,0.1,5.7,4.1,6,6.1l0.8-0.2l-0.1-7.1h-0.6c-0.1,0.4-0.4,0.9-1.1,0.9c-0.4-0.1-3.7-1.2-6.2-1.2
		C88.2,20,80.7,22.1,80.6,30c-0.1,8,6.5,10.3,10.6,10.2c3.8-0.1,6.4-2.3,8.2-4.2c1.4,2.5,4.3,4.2,7.7,4.2c4.7,0,8.5-3.4,8.5-7.6
		C115.7,28.5,111.8,25.1,107.1,25.1z M107.1,38.9c-2.3,0-4.3-2.9-4.3-6.3c0-3.5,1.9-6.3,4.3-6.3c2.3,0,4.2,2.8,4.2,6.3
		C111.3,36,109.4,38.9,107.1,38.9z M380.1,36.9V25h-7v0.6c1.6,0,1.9,0.4,2.2,0.7c0.4,0.3,0.3,1.6,0.3,2.5v7.6c0,0.9,0,1.7-0.5,2.2
		c-0.3,0.3-0.9,0.5-1.8,0.6v0.6h9.2v-0.6C380.9,39.2,380.1,38.9,380.1,36.9z M380.5,18.6c0-3.2-5.2-3.2-5.2,0
		C375.3,21.8,380.5,21.9,380.5,18.6z M357.7,25.4l-3,3.5V25h-7.1v0.6c1.8,0,2.5,0.5,2.5,2.2v9c0,1.8-0.5,2.4-2.3,2.4l0,0.7h9.4v-0.6
		c-1.8-0.1-2.4-0.7-2.4-2.5v-5c0-1.9,1.3-2.8,2.5-2.8c1.3,0,2.8,1,3.8,2.4l1.1-5.6C360.2,24.3,358.4,24.5,357.7,25.4z M348.6,34.7
		c-2.3,3.3-4,3.4-6,3.4c-2.5-0.1-4.5-3.2-4.4-6.5h10.3c-0.3-3.8-2.3-6.6-6.7-6.5c-4.9,0.1-8.6,2.8-8.5,8.1c0.2,5,5,7.1,8.2,7.1
		c4.4,0,6.7-2.5,7.6-5.1L348.6,34.7z M341.2,26.4c1.3,0,2.5,1.7,2.5,3.7h-5.3C338.4,27.8,339.8,26.4,341.2,26.4z M317.5,18.6
		c0-3.2-5.2-3.2-5.2,0C312.3,21.8,317.5,21.9,317.5,18.6z M335.5,25.7v-0.6h-5.9v0.6c1.2,0.1,1.8,0.6,1.8,1.6c0,0.6-0.2,1.2-0.6,2
		l-2.6,5.2l-3.4-6.6c-0.2-0.4-0.3-0.7-0.3-1c0-0.7,0.5-1.1,1.4-1.3v-0.6h-8.8v0l-6.9,0v0.6c1.6,0,1.9,0.4,2.2,0.7
		c0.3,0.4,0.3,1.6,0.3,2.5v7.6c0,0.9,0,1.7-0.5,2.2c-0.2,0.2-0.6,0.4-1.1,0.5c-0.8-0.1-1.1-0.3-1.4-0.5c-0.5-0.3-0.6-1.3-0.6-2.2
		v-6.2c0-1.6-0.5-2.8-1.4-3.8c-1-0.9-2.1-1.4-3.5-1.4c-2.2,0-4.1,1.2-5.4,3.5h-0.1V25h-0.6h-6.2v0.6c0.9,0,1.5,0.1,1.9,0.5
		c0.4,0.4,0.5,0.8,0.5,2.6v8c0,0.7,0,1.5-0.6,2.1c-0.3,0.3-0.8,0.4-1.2,0.4c-0.7-0.1-1.2-0.2-1.4-0.5c-0.4-0.4-0.5-0.9-0.5-2.2V20
		H284v0.6c0.6,0,1.5,0.1,1.8,0.5c0.3,0.4,0.5,0.5,0.5,2.3v12.4c-1.7,1.8-3.2,2.8-4.8,2.8c-1.1,0-2-0.3-2.7-1c-0.7-0.7-1-1.6-1-2.9
		l0-14.7H271l0,0.6c0.7,0,1.5,0.2,1.8,0.5c0.5,0.5,0.4,1.4,0.4,2.3v10.4c0,2,0.6,3.6,1.8,4.8c1.2,1.2,2.9,1.8,4.9,1.8
		c1.2,0,2.3-0.2,3.2-0.7c0.9-0.4,1.9-1.3,3.1-2.5v2.7h6.1v0h8.6v-0.6c-0.8-0.1-1.1-0.2-1.5-0.5c-0.6-0.5-0.7-1.2-0.7-2.3v-6.7
		c0.9-1.7,2.1-2.5,3.6-2.5c0.8,0,1.5,0.3,1.9,0.9c0.5,0.6,0.7,1.4,0.7,2.5v5.9c0,0.8-0.1,1.6-0.6,2c-0.4,0.4-1,0.5-1.7,0.5v0.7h7.8
		l0,0h9.2v-0.6c-1.7-0.1-2.5-0.4-2.4-2.4V25.7c0.6,0.1,1.2,0.3,1.6,0.6c0.5,0.4,1.1,1.2,1.7,2.4l5.5,11.1h0.8L332,29
		c0.6-1.1,1.1-2,1.6-2.5C334.1,26.1,334.7,25.8,335.5,25.7z M372.8,32.4c-0.7-0.8-2.2-1.6-4.3-2.3c-1.4-0.5-2.3-0.9-2.7-1.2
		c-0.4-0.3-0.6-0.7-0.6-1.2c0-0.4,0.2-0.8,0.7-1.1c0.5-0.3,1.1-0.4,1.8-0.4c1,0,1.9,0.3,2.7,0.9c0.8,0.6,1.4,1.4,1.9,2.5h0.7v-3.4
		c-1.9-0.9-5.5-1-5.5-1c-1.5,0-2.8,0.4-3.7,1.2c-1,0.8-1.5,1.8-1.5,3c0,1,0.3,1.8,1,2.5c0.6,0.7,2,1.4,4,2.1
		c1.6,0.6,2.6,1.1,3.1,1.5c0.5,0.4,0.7,1,0.7,1.6c0,0.6-0.3,1-0.8,1.4c-0.5,0.4-1.1,0.6-1.9,0.6c-2.1,0-3.9-1.5-5.4-4.4h-0.7v4.6v0
		c3.3,0.9,6.2,0.8,6.2,0.8c1.4,0,2.6-0.5,3.7-1.5c1.1-0.9,1.7-2.1,1.7-3.4C373.9,34.1,373.5,33.2,372.8,32.4z M261.3,38
		c-2.5-0.1-4.5-3.2-4.4-6.5h10.3c-0.3-3.8-2.3-6.6-6.7-6.5c-4.9,0.1-8.6,2.8-8.5,8.1c0,1.3,0.4,2.4,1,3.3c-1.8,2-4.1,1.4-4.1-1.6
		l0-8.3l4.5,0l0-1.5l-4.5,0l0-6.7l-0.6-0.2v0c-0.7,4.2-3.2,6.1-6.2,6.9l0,1.5h1.9v8.9c0,2.4,1.4,3.7,2.8,4.3c2.8,1.1,5.3,0,6.7-2.6
		c1.7,2.1,4.6,3,6.7,3c4.4,0,6.8-2.5,7.6-5.1l-0.5-0.5C265,37.9,263.3,38.1,261.3,38z M259.9,26.4c1.3,0,2.6,1.7,2.5,3.7H257
		C257.1,27.8,258.5,26.4,259.9,26.4z M241.6,36.6v-7.4c0-2.4-3-4.2-5.6-4.2c-2.8,0-6.2,1.6-6.4,5.5c1.6-2.3,3.8-3.3,6.2-2.3
		c1.6,0.7,1.9,2.6,0.7,3l-4.8,1.5c-2,0.6-3,2.1-2.9,3.8c0,0.2,0,0.4,0.1,0.5c-2.6,1.1-3.7-0.3-3.7-2.6l0-8h4.5l0-1.5h-4.5l0-6.7
		l-0.6-0.2c-0.8,4.2-1.9,5.4-5.2,6.8l0-6.6c-4.5-1.9-9.3-1.1-11.2-0.2c-4.4,1.9-5.6,7.4-1.6,10.7l5.9,4.8c3.3,2.7,1.8,7.5-1.3,8.3
		c-2.9,0.7-5.7-1.2-7-3.1l-0.8,0.4c1.7,3.2,4.9,5.1,8.2,4.9c3.1-0.1,7-1.9,8-5c1.1-3.8-0.8-7.4-2.5-8.7l-6.9-5.4
		c-1.1-0.9-1.4-1.6-1.4-2.7c0.1-2.6,2.7-3.8,4.3-3.8c3.3-0.1,5.4,3.7,5.5,8l1.7,0V35c0,2.9,1.3,5.1,3.9,5.2c1.5,0.1,3.7-0.3,4.9-1.9
		c0.6,1.1,1.7,1.9,3.4,1.9c1.7-0.1,3.3-0.8,4.7-2.2c0.6,1.6,1.7,2.3,3,2.3c1.1,0,2.5-1,2.9-2.4C242.2,38.4,241.6,37.9,241.6,36.6z
		 M235.2,38.1c-1.6,0-2.3-1.3-2.3-2.5c0-0.9,0.4-1.6,1.1-1.9l3.3-1.5l0,3.5C237.3,37.2,236.6,38.1,235.2,38.1z M402.1,25v0.7
		c1.3,0.3,1.9,0.9,1.9,1.9c0,0.7-0.3,1.7-0.9,2.9l-2.2,4.9l-3.4-6.7c-0.4-0.9-0.6-1.5-0.7-1.9c0-0.6,0.5-1,1.5-1.1V25h-6.5v0l-1.7,0
		h-1.6v0h-1.2l0-6.7l-0.6-0.2c-0.7,4.2-2.9,6.4-6,6.9l0,1.5h1.7v8.9c0,2.4,1.4,3.8,2.8,4.3c2.9,1.2,5.5-0.1,6.9-2.9
		c0,0.1-0.6-0.7-0.6-0.5c-1.9,2.1-4.2,1.6-4.2-1.4l0-8.3c0,0,3.8-0.1,5.1,2.6l5.9,11.9c-0.7,1.6-1.5,2.8-2.2,3.5
		c-1,1-2.2,1.5-3.6,1.5c-0.7,0-1.4-0.1-2.2-0.4l-1,4.6c0.4,0.1,0.8,0.1,1.4,0.1c1.7,0,3-0.4,4-1.1c1-0.8,2-2.1,2.8-3.9l7.2-15.7
		c0.7-1.4,1.2-2.4,1.7-2.9c0.5-0.5,1.2-0.8,2.2-1.1V25H402.1z"/>
</g>
</svg>
