<?xml version="1.0" encoding="utf-8"?>
<!-- Generator: Adobe Illustrator 19.0.1, SVG Export Plug-In . SVG Version: 6.00 Build 0)  -->
<svg version="1.1" id="Layer_1" xmlns="http://www.w3.org/2000/svg" xmlns:xlink="http://www.w3.org/1999/xlink" x="0px" y="0px"
	 viewBox="0 0 795.6 176.2" style="enable-background:new 0 0 795.6 176.2;" xml:space="preserve">
<style type="text/css">
	.st0{fill:#CEB77C;}
	.st1{fill:#231F20;}
	.st2{fill:#FFFFFF;}
</style>
<g>
	<polyline class="st0" points="131.9,44.4 131.9,24.2 107.8,0 24.2,0 0,24.2 0,107.6 24.2,131.8 50.7,131.8 50.7,152.1 75.1,176.2 
		145.7,176.2 170.1,152.1 170.1,87.4 182.6,87.4 182.6,44.4 	"/>
	<polyline class="st1" points="106.7,2.5 129.4,25.2 129.4,46.9 180.1,46.9 180.1,85 167.6,85 167.6,151 144.6,173.7 76.2,173.7 
		53.3,151 53.3,129.3 25.2,129.3 2.5,106.6 2.5,25.2 25.2,2.5 	"/>
	<polyline class="st2" points="27.8,123 59.5,123 59.5,148.4 78.7,167.5 142.1,167.5 161.3,148.4 161.3,78.7 173.8,78.7 173.8,53.2 
		135.6,53.2 135.6,142 85,142 85,123 104.1,123 123.1,104 123.1,78.7 97.7,78.7 97.7,97.6 85,97.6 85,53.2 46.9,53.2 46.9,78.7 
		59.5,78.7 59.5,97.6 34.2,97.6 34.2,34 97.7,34 97.7,53.2 123.1,53.2 123.1,27.8 104.1,8.8 27.8,8.8 8.8,27.8 8.8,104 27.8,123 	
		"/>
	<polyline class="st0" points="81.9,119.8 102.8,119.8 120,102.7 120,81.8 100.8,81.8 100.8,100.7 81.9,100.7 81.9,56.3 50,56.3 
		50,75.6 62.7,75.6 62.7,100.7 31.1,100.7 31.1,30.9 100.8,30.9 100.8,50.1 120,50.1 120,29.1 102.8,11.9 29.1,11.9 11.9,29.1 
		11.9,102.7 29.1,119.8 62.7,119.8 62.7,147.1 80,164.3 140.8,164.3 158.2,147.1 158.2,75.6 170.7,75.6 170.7,56.3 138.7,56.3 
		138.7,145.1 81.9,145.1 	"/>
	<g>
		<path class="st1" d="M225.1,49.4v27.1c0,2.5,0.3,4.7,0.9,6.5c0.6,1.8,1.4,3.2,2.5,4.4c1.1,1.1,2.5,1.9,4.1,2.5
			c1.6,0.5,3.4,0.8,5.4,0.8c2,0,3.9-0.3,5.5-0.8c1.6-0.5,2.9-1.3,4.1-2.5c1.1-1.1,1.9-2.6,2.5-4.4c0.6-1.8,0.9-3.9,0.9-6.5V49.4h4.2
			v28c0,2.3-0.3,4.4-1,6.4c-0.6,2-1.6,3.8-3,5.3c-1.4,1.5-3.1,2.7-5.3,3.6c-2.1,0.9-4.8,1.3-7.8,1.3c-3,0-5.6-0.4-7.8-1.3
			c-2.1-0.9-3.9-2.1-5.3-3.6c-1.4-1.5-2.4-3.3-3-5.3c-0.6-2-1-4.2-1-6.4v-28H225.1z"/>
		<path class="st1" d="M266.4,61.6V67h0.1c0.7-1.9,2-3.5,3.9-4.6c1.9-1.2,3.9-1.7,6.2-1.7c2.2,0,4.1,0.3,5.6,0.9
			c1.5,0.6,2.7,1.4,3.6,2.4c0.9,1,1.5,2.3,1.9,3.8c0.4,1.5,0.6,3.2,0.6,5.1v20.4h-3.9V73.5c0-1.3-0.1-2.6-0.4-3.8
			c-0.2-1.2-0.7-2.2-1.3-3c-0.6-0.9-1.4-1.5-2.5-2c-1-0.5-2.3-0.7-3.9-0.7c-1.6,0-2.9,0.3-4.1,0.8c-1.2,0.6-2.2,1.3-3.1,2.3
			c-0.8,1-1.5,2.1-2,3.4c-0.5,1.3-0.7,2.8-0.8,4.3v18.5h-3.9V61.6H266.4z"/>
		<path class="st1" d="M299.5,49.4v6.2h-3.9v-6.2H299.5z M299.5,61.6v31.7h-3.9V61.6H299.5z"/>
		<path class="st1" d="M307.7,61.6l9.9,27.8h0.1l9.8-27.8h4l-11.8,31.7h-4.1l-12.2-31.7H307.7z"/>
		<path class="st1" d="M338.2,82.8c0.4,1.5,1,2.8,1.9,4c0.9,1.2,1.9,2.2,3.3,2.9c1.3,0.8,2.9,1.2,4.7,1.2c2.8,0,5-0.7,6.6-2.2
			c1.6-1.5,2.7-3.4,3.3-5.9h3.9c-0.8,3.6-2.3,6.4-4.5,8.3c-2.2,2-5.3,2.9-9.3,2.9c-2.5,0-4.7-0.4-6.5-1.3c-1.8-0.9-3.3-2.1-4.4-3.6
			c-1.1-1.5-2-3.3-2.5-5.3s-0.8-4.2-0.8-6.4c0-2.1,0.3-4.1,0.8-6.1c0.6-2,1.4-3.8,2.5-5.4c1.1-1.6,2.6-2.8,4.4-3.8
			c1.8-1,4-1.4,6.5-1.4c2.5,0,4.7,0.5,6.5,1.5c1.8,1,3.3,2.4,4.4,4c1.1,1.7,1.9,3.6,2.4,5.7c0.5,2.1,0.7,4.3,0.6,6.5h-24.4
			C337.6,79.8,337.8,81.3,338.2,82.8z M357.3,71c-0.5-1.4-1.1-2.5-2-3.6c-0.9-1-1.9-1.9-3.1-2.5c-1.2-0.6-2.6-1-4.2-1
			c-1.6,0-3,0.3-4.2,1c-1.2,0.6-2.3,1.5-3.1,2.5c-0.9,1-1.5,2.3-2.1,3.6c-0.5,1.4-0.8,2.8-1,4.2h20.5
			C358.1,73.7,357.8,72.3,357.3,71z"/>
		<path class="st1" d="M370.8,61.6V69h0.1c1-2.6,2.5-4.6,4.6-6c2.1-1.4,4.5-2,7.4-1.9V65c-1.8-0.1-3.4,0.2-4.8,0.7
			c-1.4,0.6-2.7,1.3-3.7,2.4c-1,1-1.9,2.2-2.4,3.7c-0.6,1.4-0.9,3-0.9,4.6v16.9h-3.9V61.6H370.8z"/>
		<path class="st1" d="M404.8,67.7c-0.5-0.9-1.1-1.6-1.8-2.2c-0.8-0.6-1.6-1-2.6-1.3c-1-0.3-2-0.4-3.1-0.4c-0.9,0-1.7,0.1-2.6,0.3
			c-0.9,0.2-1.7,0.5-2.4,0.9s-1.3,1-1.8,1.7c-0.5,0.7-0.7,1.6-0.7,2.6c0,0.9,0.2,1.6,0.6,2.2c0.4,0.6,1,1.1,1.6,1.5
			c0.7,0.4,1.4,0.7,2.1,1c0.8,0.3,1.5,0.5,2.1,0.6l5.2,1.2c1.1,0.2,2.2,0.5,3.3,0.9c1.1,0.4,2,1,2.9,1.7c0.8,0.7,1.5,1.6,2.1,2.6
			c0.5,1,0.8,2.2,0.8,3.6c0,1.7-0.4,3.2-1.2,4.4c-0.8,1.2-1.8,2.2-3,2.9c-1.2,0.8-2.6,1.3-4.1,1.6c-1.5,0.3-3,0.5-4.5,0.5
			c-3.7,0-6.7-0.9-9.1-2.6c-2.3-1.8-3.6-4.6-4-8.5h3.9c0.2,2.6,1.1,4.6,2.9,5.9c1.7,1.3,3.9,2,6.5,2c0.9,0,1.9-0.1,2.9-0.3
			c1-0.2,1.9-0.6,2.8-1c0.9-0.5,1.6-1.1,2.1-1.9c0.6-0.8,0.8-1.7,0.8-2.8c0-0.9-0.2-1.7-0.6-2.4c-0.4-0.6-0.9-1.2-1.6-1.6
			c-0.7-0.4-1.4-0.8-2.2-1.1c-0.8-0.3-1.7-0.5-2.5-0.7l-5-1.1c-1.3-0.3-2.4-0.7-3.5-1.1c-1.1-0.4-2-1-2.8-1.6
			c-0.8-0.6-1.4-1.4-1.9-2.3c-0.5-0.9-0.7-2.1-0.7-3.4c0-1.6,0.4-3,1.1-4.1c0.7-1.1,1.6-2.1,2.8-2.8c1.1-0.7,2.4-1.2,3.8-1.5
			c1.4-0.3,2.8-0.5,4.2-0.5c1.6,0,3.1,0.2,4.4,0.6c1.4,0.4,2.6,1,3.6,1.9c1,0.9,1.9,1.9,2.5,3.2c0.6,1.3,1,2.8,1,4.5h-3.9
			C405.4,69.7,405.2,68.6,404.8,67.7z"/>
		<path class="st1" d="M420,49.4v6.2h-3.9v-6.2H420z M420,61.6v31.7h-3.9V61.6H420z"/>
		<path class="st1" d="M440,61.6v3.3h-6.4v21.4c0,1.3,0.2,2.3,0.5,3c0.3,0.7,1.2,1.1,2.6,1.2c1.1,0,2.2-0.1,3.3-0.2v3.3
			c-0.6,0-1.1,0-1.7,0.1c-0.6,0-1.1,0.1-1.7,0.1c-2.6,0-4.4-0.5-5.4-1.5c-1-1-1.5-2.9-1.5-5.6V64.8h-5.5v-3.3h5.5v-9.5h3.9v9.5H440z
			"/>
		<path class="st1" d="M446.1,61.6l10.4,27l9.8-27h3.9L456.4,98c-0.6,1.4-1.1,2.5-1.6,3.3c-0.5,0.9-1,1.6-1.6,2.1
			c-0.6,0.5-1.3,0.9-2.1,1.1c-0.8,0.2-1.8,0.3-3,0.3c-0.8,0-1.4-0.1-1.8-0.1c-0.4,0-0.8-0.1-1.1-0.2v-3.3c0.5,0.1,0.9,0.2,1.3,0.2
			c0.4,0.1,0.9,0.1,1.3,0.1c0.9,0,1.6-0.1,2.1-0.4c0.6-0.2,1-0.6,1.4-1c0.4-0.4,0.8-1,1-1.6s0.6-1.3,0.9-2l1.3-3.6L442,61.6H446.1z"
			/>
		<path class="st1" d="M510.8,62c1.9,0.9,3.4,2.1,4.7,3.6c1.3,1.5,2.2,3.3,2.9,5.3c0.7,2,1,4.2,1,6.5c0,2.3-0.3,4.4-1,6.5
			c-0.7,2-1.6,3.8-2.9,5.3c-1.3,1.5-2.8,2.7-4.7,3.6c-1.9,0.9-4,1.3-6.4,1.3c-2.4,0-4.6-0.4-6.4-1.3c-1.9-0.9-3.4-2.1-4.7-3.6
			c-1.3-1.5-2.2-3.3-2.9-5.3c-0.7-2-1-4.2-1-6.5c0-2.3,0.3-4.4,1-6.5c0.7-2,1.6-3.8,2.9-5.3c1.3-1.5,2.8-2.7,4.7-3.6
			c1.9-0.9,4-1.4,6.4-1.4C506.8,60.7,508.9,61.1,510.8,62z M499.5,65.1c-1.4,0.8-2.5,1.8-3.5,3.1c-0.9,1.3-1.6,2.7-2.1,4.3
			c-0.5,1.6-0.7,3.3-0.7,4.9c0,1.7,0.2,3.3,0.7,4.9c0.5,1.6,1.2,3.1,2.1,4.3c0.9,1.3,2.1,2.3,3.5,3.1c1.4,0.8,3,1.2,4.8,1.2
			s3.5-0.4,4.8-1.2c1.4-0.8,2.5-1.8,3.5-3.1c0.9-1.3,1.6-2.7,2.1-4.3c0.5-1.6,0.7-3.3,0.7-4.9c0-1.7-0.2-3.3-0.7-4.9
			c-0.5-1.6-1.2-3.1-2.1-4.3c-0.9-1.3-2.1-2.3-3.5-3.1c-1.4-0.8-3-1.2-4.8-1.2S500.9,64.3,499.5,65.1z"/>
		<path class="st1" d="M531,64.8v28.4h-3.9V64.8h-5.4v-3.3h5.4v-2.9c0-1.4,0.1-2.6,0.3-3.7c0.2-1.1,0.6-2.1,1.2-2.9
			c0.6-0.8,1.4-1.5,2.4-1.9c1-0.4,2.3-0.7,3.8-0.7c0.6,0,1.1,0,1.6,0.1c0.5,0,1,0.1,1.7,0.2V53c-0.5-0.1-1-0.2-1.5-0.2
			c-0.5-0.1-0.9-0.1-1.4-0.1c-1.1,0-1.9,0.2-2.5,0.5c-0.6,0.3-1,0.8-1.3,1.3c-0.3,0.6-0.4,1.2-0.5,1.9S531,58,531,58.8v2.8h6.3v3.3
			H531z"/>
		<path class="st1" d="M589,58.2c-0.8-1.3-1.9-2.4-3.1-3.3c-1.2-0.9-2.5-1.6-4-2.1c-1.5-0.5-3-0.7-4.6-0.7c-2.9,0-5.4,0.6-7.5,1.7
			c-2.1,1.1-3.8,2.6-5.1,4.4c-1.3,1.8-2.3,3.9-2.9,6.2c-0.6,2.3-1,4.6-1,7.1c0,2.4,0.3,4.7,1,7c0.6,2.3,1.6,4.4,2.9,6.2
			c1.3,1.8,3,3.3,5.1,4.4c2.1,1.1,4.6,1.7,7.5,1.7c2,0,3.9-0.4,5.5-1.1c1.6-0.7,3-1.7,4.2-3c1.2-1.3,2.1-2.8,2.9-4.4
			c0.7-1.7,1.2-3.5,1.4-5.5h4.2c-0.3,2.7-0.9,5.1-1.9,7.3c-1,2.2-2.2,4-3.8,5.5c-1.6,1.5-3.4,2.7-5.5,3.5c-2.1,0.8-4.4,1.2-7,1.2
			c-3.4,0-6.5-0.6-9.1-1.9c-2.6-1.2-4.8-2.9-6.5-5c-1.7-2.1-3-4.5-3.9-7.2c-0.9-2.7-1.3-5.6-1.3-8.7c0-3,0.4-5.9,1.3-8.7
			c0.9-2.7,2.1-5.2,3.9-7.3c1.7-2.1,3.9-3.8,6.5-5c2.6-1.2,5.6-1.9,9.1-1.9c2.1,0,4.1,0.3,6.1,0.9c2,0.6,3.8,1.5,5.4,2.7
			c1.6,1.2,3,2.7,4.1,4.4c1.1,1.8,1.8,3.8,2.1,6.1h-4.2C590.4,61,589.8,59.5,589,58.2z"/>
		<path class="st1" d="M621,62c1.9,0.9,3.4,2.1,4.7,3.6c1.3,1.5,2.2,3.3,2.9,5.3c0.7,2,1,4.2,1,6.5c0,2.3-0.3,4.4-1,6.5
			c-0.7,2-1.6,3.8-2.9,5.3c-1.3,1.5-2.8,2.7-4.7,3.6c-1.9,0.9-4,1.3-6.4,1.3c-2.4,0-4.6-0.4-6.4-1.3c-1.9-0.9-3.4-2.1-4.7-3.6
			c-1.3-1.5-2.2-3.3-2.9-5.3c-0.7-2-1-4.2-1-6.5c0-2.3,0.3-4.4,1-6.5c0.7-2,1.6-3.8,2.9-5.3c1.3-1.5,2.8-2.7,4.7-3.6
			c1.9-0.9,4-1.4,6.4-1.4C617,60.7,619.2,61.1,621,62z M609.8,65.1c-1.4,0.8-2.5,1.8-3.5,3.1c-0.9,1.3-1.6,2.7-2.1,4.3
			c-0.5,1.6-0.7,3.3-0.7,4.9c0,1.7,0.2,3.3,0.7,4.9c0.5,1.6,1.2,3.1,2.1,4.3c0.9,1.3,2.1,2.3,3.5,3.1c1.4,0.8,3,1.2,4.8,1.2
			s3.5-0.4,4.8-1.2c1.4-0.8,2.5-1.8,3.5-3.1c0.9-1.3,1.6-2.7,2.1-4.3c0.5-1.6,0.7-3.3,0.7-4.9c0-1.7-0.2-3.3-0.7-4.9
			c-0.5-1.6-1.2-3.1-2.1-4.3c-0.9-1.3-2.1-2.3-3.5-3.1c-1.4-0.8-3-1.2-4.8-1.2S611.2,64.3,609.8,65.1z"/>
		<path class="st1" d="M639.3,49.4v43.8h-3.9V49.4H639.3z"/>
		<path class="st1" d="M666.5,62c1.9,0.9,3.4,2.1,4.7,3.6c1.3,1.5,2.2,3.3,2.9,5.3c0.7,2,1,4.2,1,6.5c0,2.3-0.3,4.4-1,6.5
			c-0.7,2-1.6,3.8-2.9,5.3c-1.3,1.5-2.8,2.7-4.7,3.6c-1.9,0.9-4,1.3-6.4,1.3c-2.4,0-4.6-0.4-6.4-1.3c-1.9-0.9-3.4-2.1-4.7-3.6
			c-1.3-1.5-2.2-3.3-2.9-5.3c-0.7-2-1-4.2-1-6.5c0-2.3,0.3-4.4,1-6.5c0.7-2,1.6-3.8,2.9-5.3c1.3-1.5,2.8-2.7,4.7-3.6
			c1.9-0.9,4-1.4,6.4-1.4C662.5,60.7,664.6,61.1,666.5,62z M655.2,65.1c-1.4,0.8-2.5,1.8-3.5,3.1c-0.9,1.3-1.6,2.7-2.1,4.3
			c-0.5,1.6-0.7,3.3-0.7,4.9c0,1.7,0.2,3.3,0.7,4.9c0.5,1.6,1.2,3.1,2.1,4.3c0.9,1.3,2.1,2.3,3.5,3.1c1.4,0.8,3,1.2,4.8,1.2
			s3.5-0.4,4.8-1.2c1.4-0.8,2.5-1.8,3.5-3.1c0.9-1.3,1.6-2.7,2.1-4.3c0.5-1.6,0.7-3.3,0.7-4.9c0-1.7-0.2-3.3-0.7-4.9
			c-0.5-1.6-1.2-3.1-2.1-4.3c-0.9-1.3-2.1-2.3-3.5-3.1c-1.4-0.8-3-1.2-4.8-1.2S656.6,64.3,655.2,65.1z"/>
		<path class="st1" d="M684.4,61.6V69h0.1c1-2.6,2.5-4.6,4.6-6c2.1-1.4,4.5-2,7.4-1.9V65c-1.8-0.1-3.4,0.2-4.8,0.7
			c-1.4,0.6-2.7,1.3-3.7,2.4c-1,1-1.9,2.2-2.4,3.7c-0.6,1.4-0.9,3-0.9,4.6v16.9h-3.9V61.6H684.4z"/>
		<path class="st1" d="M701,66.5c0.7-1.4,1.5-2.5,2.7-3.3c1.1-0.9,2.4-1.5,4-1.9c1.5-0.4,3.2-0.6,5-0.6c1.4,0,2.8,0.1,4.2,0.4
			c1.4,0.3,2.6,0.8,3.7,1.5s2,1.8,2.7,3.1c0.7,1.3,1,3.1,1,5.2v16.8c0,1.6,0.8,2.3,2.3,2.3c0.5,0,0.9-0.1,1.2-0.2V93
			c-0.5,0.1-0.8,0.1-1.2,0.2c-0.3,0-0.8,0.1-1.3,0.1c-1,0-1.8-0.1-2.4-0.4c-0.6-0.3-1.1-0.6-1.4-1.1c-0.3-0.5-0.5-1.1-0.6-1.7
			c-0.1-0.7-0.2-1.4-0.2-2.2h-0.1c-0.7,1-1.4,1.9-2.1,2.7s-1.5,1.5-2.4,2c-0.9,0.5-1.9,0.9-3,1.2c-1.1,0.3-2.5,0.4-4,0.4
			c-1.5,0-2.9-0.2-4.1-0.5c-1.3-0.3-2.4-0.9-3.4-1.7c-1-0.8-1.7-1.7-2.3-2.9c-0.6-1.2-0.8-2.5-0.8-4.1c0-2.2,0.5-3.9,1.5-5.2
			c1-1.2,2.3-2.2,3.9-2.9c1.6-0.7,3.4-1.1,5.5-1.4c2-0.3,4.1-0.5,6.2-0.8c0.8-0.1,1.5-0.2,2.1-0.3c0.6-0.1,1.1-0.3,1.5-0.6
			c0.4-0.3,0.7-0.7,1-1.3c0.2-0.5,0.3-1.2,0.3-2.1c0-1.3-0.2-2.4-0.6-3.2c-0.4-0.8-1-1.5-1.8-2c-0.8-0.5-1.6-0.8-2.6-1
			c-1-0.2-2.1-0.3-3.2-0.3c-2.5,0-4.5,0.6-6,1.7c-1.6,1.2-2.4,3-2.5,5.6h-3.9C699.9,69.4,700.3,67.8,701,66.5z M720.3,75.9
			c-0.2,0.5-0.7,0.8-1.4,1c-0.7,0.2-1.3,0.3-1.8,0.4c-1.6,0.3-3.3,0.5-5.1,0.8c-1.7,0.2-3.3,0.6-4.8,1c-1.4,0.5-2.6,1.1-3.5,1.9
			c-0.9,0.8-1.4,2-1.4,3.6c0,1,0.2,1.9,0.6,2.6c0.4,0.8,0.9,1.4,1.6,2c0.7,0.6,1.4,1,2.3,1.3c0.9,0.3,1.7,0.4,2.6,0.4
			c1.5,0,2.9-0.2,4.2-0.7c1.3-0.4,2.5-1.1,3.5-2c1-0.9,1.8-1.9,2.4-3.1c0.6-1.2,0.9-2.6,0.9-4.2v-5H720.3z"/>
		<path class="st1" d="M756.3,93.2v-6h-0.1c-0.4,1-1,2-1.8,2.8c-0.8,0.9-1.7,1.6-2.7,2.2c-1,0.6-2.1,1.1-3.3,1.4
			c-1.2,0.3-2.3,0.5-3.5,0.5c-2.4,0-4.5-0.4-6.3-1.3c-1.8-0.9-3.3-2.1-4.4-3.6c-1.2-1.5-2.1-3.3-2.6-5.3c-0.6-2-0.9-4.2-0.9-6.4
			c0-2.2,0.3-4.4,0.9-6.4c0.6-2,1.5-3.8,2.6-5.3c1.2-1.5,2.7-2.8,4.4-3.7c1.8-0.9,3.9-1.4,6.3-1.4c1.2,0,2.3,0.1,3.5,0.4
			c1.1,0.3,2.2,0.7,3.2,1.3c1,0.6,1.9,1.3,2.6,2.2c0.8,0.9,1.3,1.9,1.7,3h0.1V49.4h3.9v43.8H756.3z M735.1,82.3
			c0.4,1.6,1,3.1,1.8,4.3c0.8,1.3,1.9,2.3,3.2,3.1c1.3,0.8,2.9,1.2,4.7,1.2c2,0,3.8-0.4,5.2-1.2c1.4-0.8,2.6-1.8,3.4-3.1
			c0.9-1.3,1.5-2.7,1.9-4.3c0.4-1.6,0.6-3.2,0.6-4.9c0-1.6-0.2-3.3-0.6-4.9c-0.4-1.6-1-3.1-1.9-4.3c-0.9-1.3-2-2.3-3.4-3.1
			s-3.1-1.2-5.2-1.2c-1.8,0-3.4,0.4-4.7,1.2c-1.3,0.8-2.4,1.8-3.2,3.1c-0.8,1.3-1.5,2.7-1.8,4.3c-0.4,1.6-0.6,3.2-0.6,4.9
			C734.5,79,734.7,80.7,735.1,82.3z"/>
		<path class="st1" d="M787,62c1.9,0.9,3.4,2.1,4.7,3.6c1.3,1.5,2.2,3.3,2.9,5.3c0.7,2,1,4.2,1,6.5c0,2.3-0.3,4.4-1,6.5
			c-0.7,2-1.6,3.8-2.9,5.3c-1.3,1.5-2.8,2.7-4.7,3.6c-1.9,0.9-4,1.3-6.4,1.3c-2.4,0-4.6-0.4-6.4-1.3c-1.9-0.9-3.4-2.1-4.7-3.6
			c-1.3-1.5-2.2-3.3-2.9-5.3c-0.7-2-1-4.2-1-6.5c0-2.3,0.3-4.4,1-6.5c0.7-2,1.6-3.8,2.9-5.3c1.3-1.5,2.8-2.7,4.7-3.6
			c1.9-0.9,4-1.4,6.4-1.4C783,60.7,785.2,61.1,787,62z M775.8,65.1c-1.4,0.8-2.5,1.8-3.5,3.1c-0.9,1.3-1.6,2.7-2.1,4.3
			c-0.5,1.6-0.7,3.3-0.7,4.9c0,1.7,0.2,3.3,0.7,4.9c0.5,1.6,1.2,3.1,2.1,4.3c0.9,1.3,2.1,2.3,3.5,3.1c1.4,0.8,3,1.2,4.8,1.2
			s3.5-0.4,4.8-1.2c1.4-0.8,2.5-1.8,3.5-3.1c0.9-1.3,1.6-2.7,2.1-4.3c0.5-1.6,0.7-3.3,0.7-4.9c0-1.7-0.2-3.3-0.7-4.9
			c-0.5-1.6-1.2-3.1-2.1-4.3c-0.9-1.3-2.1-2.3-3.5-3.1c-1.4-0.8-3-1.2-4.8-1.2S777.2,64.3,775.8,65.1z"/>
	</g>
	<g>
		<path class="st1" d="M239.9,121c1.8,0,3.6,0.2,5.3,0.5c1.7,0.3,3.2,0.9,4.5,1.8c1.3,0.8,2.3,1.9,3.1,3.3c0.8,1.4,1.2,3.1,1.2,5.1
			c0,1.1-0.2,2.3-0.6,3.3c-0.4,1.1-0.9,2.1-1.6,2.9c-0.7,0.9-1.5,1.6-2.4,2.2s-2,1-3.1,1.3v0.1c2.8,0.4,5.1,1.5,6.8,3.5
			c1.7,1.9,2.5,4.3,2.5,7.2c0,0.7-0.1,1.5-0.2,2.4c-0.1,0.9-0.4,1.8-0.7,2.7s-0.9,1.8-1.6,2.7c-0.7,0.9-1.6,1.7-2.8,2.4
			c-1.2,0.7-2.6,1.2-4.3,1.7c-1.7,0.4-3.7,0.6-6.1,0.6h-18.5V121H239.9z M239.9,140.2c1.7,0,3.1-0.2,4.4-0.6
			c1.2-0.4,2.2-0.9,3.1-1.6c0.8-0.7,1.4-1.5,1.8-2.4c0.4-0.9,0.6-1.9,0.6-2.9c0-5.5-3.3-8.2-9.9-8.2h-14.4v15.6H239.9z M239.9,161.3
			c1.6,0,3-0.1,4.4-0.4c1.4-0.3,2.6-0.7,3.7-1.4c1.1-0.7,1.9-1.6,2.5-2.8c0.6-1.2,0.9-2.6,0.9-4.4c0-2.8-1-4.9-3-6.4
			c-2-1.4-4.8-2.1-8.6-2.1h-14.4v17.5H239.9z"/>
		<path class="st1" d="M281.3,133.6c1.9,0.9,3.4,2.1,4.7,3.6c1.3,1.5,2.2,3.3,2.9,5.3c0.7,2,1,4.2,1,6.5s-0.3,4.4-1,6.5
			c-0.7,2-1.6,3.8-2.9,5.3c-1.3,1.5-2.8,2.7-4.7,3.6c-1.9,0.9-4,1.3-6.4,1.3c-2.4,0-4.6-0.4-6.4-1.3c-1.9-0.9-3.4-2.1-4.7-3.6
			c-1.3-1.5-2.2-3.3-2.9-5.3c-0.7-2-1-4.2-1-6.5s0.3-4.4,1-6.5c0.7-2,1.6-3.8,2.9-5.3c1.3-1.5,2.8-2.7,4.7-3.6
			c1.9-0.9,4-1.4,6.4-1.4C277.3,132.3,279.5,132.7,281.3,133.6z M270.1,136.7c-1.4,0.8-2.5,1.8-3.5,3.1c-0.9,1.3-1.6,2.7-2.1,4.3
			c-0.5,1.6-0.7,3.3-0.7,4.9c0,1.7,0.2,3.3,0.7,4.9c0.5,1.6,1.2,3.1,2.1,4.3c0.9,1.3,2.1,2.3,3.5,3.1c1.4,0.8,3,1.2,4.8,1.2
			s3.5-0.4,4.8-1.2c1.4-0.8,2.5-1.8,3.5-3.1c0.9-1.3,1.6-2.7,2.1-4.3c0.5-1.6,0.7-3.3,0.7-4.9c0-1.7-0.2-3.3-0.7-4.9
			c-0.5-1.6-1.2-3.1-2.1-4.3c-0.9-1.3-2.1-2.3-3.5-3.1c-1.4-0.8-3-1.2-4.8-1.2S271.4,135.9,270.1,136.7z"/>
		<path class="st1" d="M317.7,164.8v-5.7h-0.1c-1,2.1-2.5,3.8-4.4,4.9c-1.9,1.1-4.1,1.7-6.5,1.7c-2,0-3.7-0.3-5.1-0.8
			c-1.4-0.6-2.6-1.3-3.4-2.4c-0.9-1-1.5-2.3-1.9-3.7c-0.4-1.5-0.6-3.1-0.6-5v-20.6h3.9v20.6c0.1,2.9,0.7,5,2,6.5
			c1.2,1.5,3.4,2.2,6.5,2.2c1.7,0,3.1-0.4,4.3-1.1c1.2-0.7,2.2-1.7,2.9-2.9c0.8-1.2,1.4-2.5,1.7-4.1s0.6-3.1,0.6-4.7v-16.6h3.9v31.7
			H317.7z"/>
		<path class="st1" d="M332.5,121v43.8h-3.9V121H332.5z"/>
		<path class="st1" d="M364.3,164.8v-6h-0.1c-0.4,1-1,2-1.8,2.8c-0.8,0.9-1.7,1.6-2.7,2.2c-1,0.6-2.1,1.1-3.3,1.4
			c-1.2,0.3-2.3,0.5-3.5,0.5c-2.4,0-4.5-0.4-6.3-1.3c-1.8-0.9-3.3-2.1-4.4-3.6c-1.2-1.5-2.1-3.3-2.6-5.3c-0.6-2-0.9-4.2-0.9-6.4
			s0.3-4.4,0.9-6.4c0.6-2,1.5-3.8,2.6-5.3c1.2-1.5,2.7-2.8,4.4-3.7c1.8-0.9,3.9-1.4,6.3-1.4c1.2,0,2.3,0.1,3.5,0.4
			c1.1,0.3,2.2,0.7,3.2,1.3c1,0.6,1.9,1.3,2.6,2.2c0.8,0.9,1.3,1.9,1.7,3h0.1V121h3.9v43.8H364.3z M343.1,153.9
			c0.4,1.6,1,3.1,1.8,4.3c0.8,1.3,1.9,2.3,3.2,3.1c1.3,0.8,2.9,1.2,4.7,1.2c2,0,3.8-0.4,5.2-1.2c1.4-0.8,2.6-1.8,3.4-3.1
			c0.9-1.3,1.5-2.7,1.9-4.3c0.4-1.6,0.6-3.2,0.6-4.9c0-1.6-0.2-3.3-0.6-4.9c-0.4-1.6-1-3.1-1.9-4.3c-0.9-1.3-2-2.3-3.4-3.1
			c-1.4-0.8-3.1-1.2-5.2-1.2c-1.8,0-3.4,0.4-4.7,1.2c-1.3,0.8-2.4,1.8-3.2,3.1c-0.8,1.3-1.5,2.7-1.8,4.3c-0.4,1.6-0.6,3.2-0.6,4.9
			C342.5,150.7,342.7,152.3,343.1,153.9z"/>
		<path class="st1" d="M378,154.4c0.4,1.5,1,2.8,1.9,4c0.9,1.2,1.9,2.2,3.3,2.9c1.3,0.8,2.9,1.2,4.7,1.2c2.8,0,5-0.7,6.6-2.2
			c1.6-1.5,2.7-3.4,3.3-5.9h3.9c-0.8,3.6-2.3,6.4-4.5,8.3c-2.2,2-5.3,2.9-9.3,2.9c-2.5,0-4.7-0.4-6.5-1.3c-1.8-0.9-3.3-2.1-4.4-3.6
			c-1.1-1.5-2-3.3-2.5-5.3c-0.6-2-0.8-4.2-0.8-6.4c0-2.1,0.3-4.1,0.8-6.1c0.6-2,1.4-3.8,2.5-5.4c1.1-1.6,2.6-2.8,4.4-3.8
			c1.8-1,4-1.4,6.5-1.4c2.5,0,4.7,0.5,6.5,1.5c1.8,1,3.3,2.4,4.4,4s1.9,3.6,2.4,5.7c0.5,2.1,0.7,4.3,0.6,6.5h-24.4
			C377.4,151.4,377.6,152.9,378,154.4z M397.2,142.6c-0.5-1.4-1.1-2.5-2-3.6s-1.9-1.9-3.1-2.5c-1.2-0.6-2.6-1-4.2-1
			c-1.6,0-3,0.3-4.2,1c-1.2,0.6-2.3,1.5-3.1,2.5c-0.9,1-1.5,2.2-2.1,3.6c-0.5,1.4-0.8,2.8-1,4.2h20.5
			C397.9,145.3,397.6,143.9,397.2,142.6z"/>
		<path class="st1" d="M410.6,133.2v7.4h0.1c1-2.6,2.5-4.6,4.6-6c2.1-1.4,4.5-2,7.4-1.9v3.9c-1.8-0.1-3.4,0.2-4.8,0.7
			c-1.4,0.6-2.7,1.3-3.7,2.4s-1.9,2.2-2.4,3.7c-0.6,1.4-0.9,3-0.9,4.6v16.9H407v-31.7H410.6z"/>
	</g>
</g>
</svg>
