<?xml version="1.0" encoding="utf-8"?>
<!-- Generator: Adobe Illustrator 19.0.1, SVG Export Plug-In . SVG Version: 6.00 Build 0)  -->
<svg version="1.1" id="Layer_1" xmlns="http://www.w3.org/2000/svg" xmlns:xlink="http://www.w3.org/1999/xlink" x="0px" y="0px"
	 viewBox="0 0 170.7 65.7" style="enable-background:new 0 0 170.7 65.7;" xml:space="preserve">
<style type="text/css">
	.st0{fill-rule:evenodd;clip-rule:evenodd;fill:#E54043;}
</style>
<g>
	<path class="st0" d="M85.4,62.4c47.5,0,81.9-11.5,81.9-29.6c0-17.9-34.4-29.4-81.9-29.4V0c49.5,0,85.3,12.9,85.3,32.8
		c0,20-35.8,32.9-85.3,32.9V62.4L85.4,62.4z M85.4,3.3C37.9,3.3,3.5,14.9,3.5,32.8c0,18.1,34.4,29.6,81.9,29.6v3.3
		C36,65.7,0,52.8,0,32.8C0,12.9,36,0,85.4,0V3.3L85.4,3.3z M28.7,25.9v-4.7c0-1.1-0.8-1.8-2-1.4c-0.9,0.3-3.5,1.4-5.2,2.1v3.9h-4.9
		v-6.7c3.2-2,8.3-4.1,10.6-4.7c2.6-0.9,6.2,0.3,6.2,4.4v7H28.7L28.7,25.9z M33.5,25.9v20.8c0,3.3-2.9,5.6-5.5,4.7
		c-2.6-0.9-8.5-3-11.4-5V25.9h4.9v17.7c1.5,0.6,3.5,1.5,4.9,2.1c1.7,0.6,2.3-0.2,2.3-1.4V25.9H33.5L33.5,25.9z M56.6,8.3v42.2
		c0,6.4-4.4,6.5-9,5.8c-4.7-0.9-8.9-1.5-8.9-7.3V11.4l4.7-1.1v38.2c0,2.3,2.1,2.4,4.2,2.9c2,0.3,4.1,0.8,4.1-1.8V8.9L56.6,8.3
		L56.6,8.3z M119.4,56.6c-1.8,0.3-2.9,0.5-4.9,0.8V8.5c2,0.1,3.2,0.3,5,0.6l8.2,29.7V10.3c2,0.5,2.9,0.6,4.7,1.1v42.9
		c-1.7,0.4-3.2,0.6-5,1.1l-8-28.4V56.6L119.4,56.6z M149,49c-1.7,0.8-2.9,1.2-4.7,2V19.9c-2.3-0.9-4.5-1.7-6.7-2.1v-5
		c8.5,2.3,12.9,4.4,17.9,7.4v5.8c-1.8-1.4-4.1-2.7-6.5-3.9V49L149,49z M68.4,25.9V7.4c3.2-0.3,8.3-0.6,12.9-0.6
		c2.3,0,5.2,1.2,5.2,5.3v13.8h-4.9V12.7c0-0.9-0.6-1.1-1.1-1.1c-0.5,0-6.8,0.2-7.3,0.2v14.1H68.4L68.4,25.9z M86.5,25.9v11.8
		c0,4.9-4.1,5.9-7,5.9h-6.2v14.9c-1.1,0-3.8-0.1-4.9-0.1V25.9h4.9v12.9l6.4,0.2c1.1,0,2-0.3,2-2.1V25.9H86.5L86.5,25.9z M109.4,25.9
		h-4.7V14.6c0-2.4-2.3-2.6-4.2-2.7c-1.8-0.2-4.1,0.2-4.1,2.6v11.5h-4.9V13.2c0-5.6,4.4-6.4,9-6.1c4.6,0.2,8.9,1.2,8.9,6.7V25.9
		L109.4,25.9z M109.4,25.9v25.8c0,5.8-4.4,6.7-8.9,6.8c-4.6,0.3-9-0.4-9-6.1V25.9h4.9v25.2c0,2.6,2.3,2.7,4.1,2.7
		c2-0.1,4.2-0.3,4.2-2.6V25.9H109.4L109.4,25.9z"/>
	<path class="st0" d="M156.8,59.3c0-2.6,2.1-4.7,4.8-4.7c2.6,0,4.7,2.1,4.7,4.7c0,2.6-2.1,4.8-4.7,4.8
		C158.9,64,156.8,61.9,156.8,59.3L156.8,59.3z M165.5,59.3c0-2.1-1.7-3.9-3.9-3.9c-2.2,0-3.9,1.8-3.9,3.9c0,2.2,1.8,3.9,3.9,3.9
		C163.7,63.2,165.5,61.5,165.5,59.3L165.5,59.3z M160.5,59.6V62h-0.9v-5.6h1.8c1,0,2.1,0.3,2.1,1.5c0,0.6-0.4,1.1-1.1,1.3v0
		c0.8,0.1,0.9,0.5,0.9,1.1c0.1,0.5,0.1,1.1,0.3,1.6h-1.1c-0.1-0.3-0.2-0.7-0.2-1c-0.1-0.5-0.1-0.9-0.3-1.2c-0.2-0.2-0.5-0.2-0.8-0.2
		H160.5L160.5,59.6z M161.5,58.7c0.8,0,1-0.4,1-0.8c0-0.4-0.2-0.6-0.9-0.6h-1v1.4H161.5L161.5,58.7z"/>
</g>
</svg>
