<?xml version="1.0" encoding="utf-8"?>
<!-- Generator: Adobe Illustrator 19.0.1, SVG Export Plug-In . SVG Version: 6.00 Build 0)  -->
<svg version="1.1" id="Express" xmlns="http://www.w3.org/2000/svg" xmlns:xlink="http://www.w3.org/1999/xlink" x="0px" y="0px"
	 viewBox="0 0 79.6 22.1" style="enable-background:new 0 0 79.6 22.1;" xml:space="preserve">
<style type="text/css">
	.st0{fill:#AEAFB1;}
	.st1{fill:#4E2D87;}
</style>
<g>
	<g>
		<g>
			<path class="st0" d="M79.1,19.2c0-1.2-0.9-2.1-2.1-2.1c-1.2,0-2.1,0.9-2.1,2.1s0.9,2.1,2.1,2.1C78.3,21.3,79.1,20.4,79.1,19.2
				L79.1,19.2L79.1,19.2z M76.5,19.3v1.4h-0.4v-3.1h1.1c0.7,0,1,0.3,1,0.8c0,0.3-0.2,0.6-0.5,0.7v0c0.3,0,0.4,0.3,0.4,0.7
				c0,0.3,0.1,0.7,0.2,0.9h-0.5c-0.1-0.3-0.1-0.7-0.2-1c-0.1-0.3-0.2-0.4-0.5-0.4H76.5L76.5,19.3z M77.1,18.9c0.4,0,0.6-0.2,0.6-0.4
				c0-0.2-0.1-0.4-0.6-0.4h-0.6v0.9H77.1L77.1,18.9z M74.5,19.2c0-1.5,1.2-2.5,2.6-2.5c1.4,0,2.6,1,2.6,2.5c0,1.5-1.2,2.5-2.6,2.5
				C75.7,21.7,74.5,20.7,74.5,19.2L74.5,19.2z"/>
		</g>
		<g>
			<g>
				<g>
					<polygon class="st0" points="65.6,21.3 62.7,18 59.8,21.3 53.6,21.3 59.6,14.5 53.6,7.8 60,7.8 62.9,11.1 65.8,7.8 71.9,7.8 
						65.9,14.5 72,21.3 					"/>
					<polygon class="st0" points="41.8,21.3 41.8,0 53.6,0 53.6,4.7 46.8,4.7 46.8,7.8 53.6,7.8 53.6,12.3 46.8,12.3 46.8,16.5 
						53.6,16.5 53.6,21.3 					"/>
				</g>
				<path class="st1" d="M36.8,0v8.7h-0.1C35.7,7.4,34.3,7,32.7,7c-3.3,0-5.7,2.2-6.6,5.2c-1-3.2-3.5-5.2-7.3-5.2
					c-3.1,0-5.5,1.4-6.8,3.6V7.8H5.7v-3h6.9V0H0v21.3h5.7v-8.9h5.6C11.1,13,11,13.7,11,14.4c0,4.4,3.4,7.6,7.7,7.6
					c3.6,0,6-1.7,7.3-4.8h-4.8c-0.7,0.9-1.2,1.2-2.5,1.2c-1.5,0-2.8-1.3-2.8-2.9h9.9c0.4,3.5,3.2,6.6,6.9,6.6c1.6,0,3.1-0.8,4-2.2
					h0.1v1.4h5V0H36.8z M16.1,12.4c0.3-1.4,1.4-2.2,2.7-2.2c1.4,0,2.4,0.9,2.7,2.2C21.6,12.4,16.1,12.4,16.1,12.4z M33.8,18
					c-1.8,0-3-1.7-3-3.5c0-1.9,1-3.7,3-3.7c2.1,0,2.9,1.8,2.9,3.7C36.7,16.4,35.8,18,33.8,18z"/>
			</g>
		</g>
	</g>
</g>
</svg>
