<?xml version="1.0" encoding="utf-8"?>
<!-- Generator: Adobe Illustrator 19.0.1, SVG Export Plug-In . SVG Version: 6.00 Build 0)  -->
<svg version="1.1" id="Layer_1" xmlns="http://www.w3.org/2000/svg" xmlns:xlink="http://www.w3.org/1999/xlink" x="0px" y="0px"
	 viewBox="0 0 895.2 198.4" style="enable-background:new 0 0 895.2 198.4;" xml:space="preserve">
<style type="text/css">
	.st0{fill:#288067;}
	.st1{fill:#9F9A97;}
</style>
<g>
	<path class="st0" d="M33.2,6.2C36.6,2.9,41.5,2,46,2c30.9,0,61.7,0,92.6,0c-1.2,5.8-2.9,11.4-4.4,17.1c-2.3,8.6-10,16.3-19.3,16.4
		c-26.3,0-52.6,0-79,0c-5.1-0.1-9.9,1.7-14.5,3.7c0.7-5.1,2.5-10,3.7-15.1C26.9,17.8,28.4,11,33.2,6.2L33.2,6.2z"/>
	<path class="st0" d="M406.1,2c10.2,0,20.4-0.1,30.6,0.1c9.7,21.5,19.9,42.8,29.7,64.3c0.6-1.4,1.1-2.9,1.5-4.4
		C473.3,42,478.9,22,484.2,2C495,2,505.8,2,516.7,2c-6.3,24.3-13,48.6-19.5,72.9c-4.1,14.7-7.7,29.6-12.1,44.2
		c-9.4,0.4-18.9-0.1-28.4,0.2c-10.8-22.1-20.7-44.6-31.6-66.6c-6.2,22-11.7,44.3-18,66.4c-10.8,0.4-21.6,0.1-32.4,0.1
		C385.1,80.1,395.7,41.1,406.1,2L406.1,2z"/>
	<path class="st0" d="M522.9,30.8c2.6-9.5,4.9-19.2,7.9-28.7c34.2-0.3,68.4,0,102.5-0.1c-2.4,9.6-5,19.2-7.6,28.8
		c-11.6,0-23.3-0.2-34.9,0.1c-3.4,10.5-5.8,21.4-8.8,32.1c-5,18.7-10,37.5-15.1,56.2c-11,0-21.9,0.2-32.9-0.1
		c8-29.4,15.9-58.9,23.9-88.3C546.3,30.7,534.6,30.7,522.9,30.8L522.9,30.8z"/>
	<path class="st0" d="M647.3,2c10.9-0.1,21.9,0,32.8,0c-10.4,39-21.1,78-31.4,117.1c-10.9,0.3-21.9,0.1-32.8,0.1
		C626.3,80.1,636.9,41.1,647.3,2L647.3,2z"/>
	<path class="st0" d="M694,2c31.4,0,62.7,0,94.1,0c-2.5,9.2-5.1,18.4-7.5,27.7c-20.5,0.2-41,0-61.6,0.1c-1.6,5.8-3.3,11.6-4.7,17.5
		c18.6,0,37.1,0,55.7,0c-2.2,8.7-4.6,17.3-6.9,26c-18.6,0.1-37.2,0-55.8,0c-1.6,6.1-3.3,12.1-4.9,18.3c20.8,0,41.6,0,62.4,0
		c-2.6,9.2-4.5,18.7-7.7,27.7c-31.5,0.2-63.1,0-94.6,0.1C672.9,80.1,683.5,41.1,694,2L694,2z"/>
	<path class="st0" d="M368.2,21.9C359,8.8,343.4,1.4,327.7,0h-11.4c-14.3,1.1-28.3,6.6-39.3,15.9c-15.8,13.1-25.6,33.4-25,54
		c0,11.3,3.8,22.6,10.8,31.4c8.2,10.6,21,17.2,34.1,19.3c18.4,3,38-1.7,52.9-12.9C364,97,374,80.7,376.8,63
		C379.2,48.9,376.7,33.6,368.2,21.9z M326,87.9c-10.9,6.5-27.1,5.8-35.4-4.6c-6.7-8.5-6.6-20.6-2.8-30.4
		c4.2-11.5,14.2-21.6,26.7-23.4c7.5-1,15.7,0.4,21.5,5.4c5.8,4.9,8.4,12.7,8.3,20.1C344.1,68.1,337.3,81.2,326,87.9z"/>
	<path class="st0" d="M245.9,31.9C244.8,23,239.7,14.6,232,10c-10.4-6.6-23-7.8-35-8c-14.7,0.1-29.5-0.2-44.2,0.1
		C152.1,4,151.6,6,151.1,8c-9.9,37.1-20,74.2-29.8,111.3c10.9-0.2,21.9,0.3,32.8-0.2c3.4-11.6,6.4-23.3,9.4-35
		c4.8-0.6,9.6-0.3,14.3-0.2c5,11.8,10.4,23.5,15.3,35.3c12.1,0.2,24.1,0.1,36.1,0.1c-5.8-13.2-12-26.2-17.8-39.3
		c9.7-2.9,19.4-7.4,26-15.4C245,55.6,247.6,43.2,245.9,31.9z M208.7,51.7c-4.9,4.9-12,6.2-18.7,6.5c-6.5,0.1-13,0-19.5,0
		c2.3-9.3,5-18.4,7.5-27.7c6.3-0.1,12.6,0,19-0.1c4.4,0.1,9.3,0.7,12.7,3.8C214.3,39,213.4,47.4,208.7,51.7z"/>
	<path class="st0" d="M895,38c1.2-10.3-3.6-20.9-12-26.9c-10.1-7.2-22.9-8.8-35-9.1c-15.4,0-30.7,0-46.1,0
		c-10.4,39.1-21,78.1-31.4,117.2c10.9,0,21.9,0,32.8,0c3.3-11.8,6.4-23.7,9.6-35.5c3.7,0,7.4-0.1,11.1,0c1.2,0.2,3.2-0.4,3.5,1.3
		c4.6,10.5,9.2,21,13.8,31.5c0.6,1.1,1,3.1,2.7,2.7c11.5,0,23.1,0,34.6,0c-5.7-13.2-12.2-26-17.7-39.3c6.8-2.4,13.8-4.9,19.5-9.5
		C890.4,63,896.4,50.4,895,38z M858.3,51.3c-4.7,5-11.8,6.5-18.4,6.9c-6.7,0.2-13.5,0-20.2,0c2.3-9.2,5.1-18.4,7.4-27.6
		c6.3-0.2,12.6-0.1,18.9-0.1c4.4,0.1,9.3,0.7,12.7,3.7C863.4,38.7,862.7,46.8,858.3,51.3z"/>
	<path class="st0" d="M21.5,48.6c2.8-3.3,7.2-4.6,11.4-4.6c30.1,0,60.3,0,90.4,0c-2.3,8.8-3.8,18.3-9.7,25.5
		c-3.5,4.4-8.9,7.6-14.6,7.7c-24.2,0-48.5-0.1-72.8,0.1c-5.6-0.1-11,1.6-16.1,3.7c1-5.4,2.8-10.6,4.1-16
		C15.9,59.3,17.5,53.2,21.5,48.6L21.5,48.6z"/>
	<path class="st0" d="M9.5,91.4c3.4-4.5,9.2-5.7,14.6-5.7c13.4,0,26.8-0.1,40.2,0.1c-2,7.3-3.2,14.9-6.7,21.8
		c-3.3,6.5-10,11.6-17.6,11.6c-13.3,0.1-26.7,0-40,0v-1.7C3.1,108.8,3.7,99,9.5,91.4L9.5,91.4z"/>
	<path class="st1" d="M853,152c9.5-3.7,20.9-1.9,29.1,4.2c-2.1,3.3-4.3,6.5-6.7,9.5c-4.6-2.8-10.2-5.6-15.7-4.1
		c-2.2,0.5-2.5,4.1-0.3,4.9c6.4,2.8,14,2.8,19.7,7.3c7.1,5.7,4.9,18.4-3.1,22.2c-4.5,2.9-9.9,1.7-14.9,2c-7,0.7-13.6-2.8-18.9-7
		c2.3-3,4.8-5.9,7.2-8.8c4.9,3.2,10.5,6.1,16.5,5.5c1.6-0.2,3.8-0.8,4-2.7c0.5-2.3-2.2-3.2-3.9-3.8c-6.6-2-14.3-2.5-19.1-8.1
		C841.8,166.2,845,155.1,853,152L853,152z"/>
	<path class="st1" d="M586.8,151c4.4,0,8.8,0,13.2,0c0,15.7,0,31.3,0,47c-4.4,0.3-8.8,0.4-13.2,0.1
		C586.7,182.4,586.7,166.7,586.8,151L586.8,151z"/>
	<path class="st1" d="M666.2,151.1c4.3-0.1,8.7-0.1,13,0c0.1,11.7,0.1,23.3,0,35c7.5,0.4,15.1,0.2,22.7,0.1c0.1,4,0.1,8,0.1,12
		c-7,0.7-14-0.6-21-0.1c-5,0.4-9.9-0.1-14.8-0.2C666.3,182.3,666.2,166.7,666.2,151.1L666.2,151.1z"/>
	<path class="st1" d="M712.6,151c4.4,0,8.8-0.1,13.2,0.1c-0.1,15.6-0.1,31.2,0,46.9c-4.4,0.4-8.8,0.1-13.2,0
		C712.5,182.3,712.4,166.7,712.6,151L712.6,151z"/>
	<path class="st1" d="M739,151c4.2,0.2,8.6-0.7,12.6,0.5c6.4,7.4,11.7,15.8,18.4,22.9c0.4-7.8,0.1-15.6,0.1-23.4
		c4.3-0.1,8.7-0.1,13-0.1c0.1,15.7,0.1,31.3,0,47c-3.9,0-8.2,1-11.7-0.6c-6.6-8-12.7-16.5-19.3-24.6c-0.4,8.4-0.1,16.8-0.2,25.2
		c-4.3,0.2-8.7,0.1-13-0.1C739,182.3,739,166.7,739,151L739,151z"/>
	<path class="st1" d="M796.2,151.1c12.7-0.2,25.3,0,38-0.1c0.1,3.7,0.1,7.5,0,11.2c-8.2,0.1-16.4,0.1-24.6,0
		c-0.1,2.2-0.1,4.5-0.1,6.8c7.4,0.1,14.8-0.1,22.2,0.1c0,3.5,0,7-0.1,10.5c-7.4-0.2-14.7-0.1-22.1,0c-0.1,2.4,0,4.8,0.2,7.2
		c8.3,0.1,16.6-0.4,24.9,0.3c-0.1,3.6-0.1,7.2,0,10.7c-8.2,1.5-16.4-0.2-24.6,0.5c-4.6,0.2-9.2-0.2-13.8-0.4
		C796.3,182.3,796.3,166.7,796.2,151.1L796.2,151.1z"/>
	<path class="st1" d="M645.5,181.8c4-2.4,7.9-5.6,8.9-10.3c0.8-4.8,0.8-10.3-2.6-14.2c-3.7-4.8-10-6.3-15.8-6.2
		c-7.6,0-15.2-0.1-22.8,0.1c0.1,15.6,0.1,31.2,0,46.8c4.4,0.5,8.8,0.4,13.2,0.2c0.1-4.7,0.1-9.4,0-14c1.8-0.1,3.7-0.6,5.4,0
		c3.4,4.4,6.3,9.2,9.3,14c5.1,0.4,10.2,0.1,15.3,0C653,192.4,649.1,187.2,645.5,181.8z M638.7,172.6c-4,1.3-8.2,0.6-12.3,0.3
		c0-3.5,0.1-6.9,0.2-10.4c3.8,0.1,7.6-0.4,11.3,0.3C642.4,163.9,642.8,170.8,638.7,172.6z"/>
	<path class="st1" d="M557.1,150.5c-4.2,0.4-8.9-0.9-12.7,0.6c-6.8,15.5-13.4,31.1-19.8,46.8c4.6,0,9.3,0.6,14-0.1
		c1-2.8,1.8-5.6,3.3-8.2c5.9-0.4,11.9-0.2,17.8,0c1,2.8,2.1,5.5,3.3,8.2c4.7,0.5,9.4,0.4,14.1,0C570.6,182.1,564,166.2,557.1,150.5z
		 M545.9,179.1c1.5-4.2,3.1-8.3,4.9-12.3c1.9,4,3.4,8.2,4.8,12.4C552.3,179.3,549.1,179.3,545.9,179.1z"/>
</g>
</svg>
