<?xml version="1.0" encoding="utf-8"?>
<!-- Generator: Adobe Illustrator 19.1.0, SVG Export Plug-In . SVG Version: 6.00 Build 0)  -->
<svg version="1.1" id="Layer_1" xmlns="http://www.w3.org/2000/svg" xmlns:xlink="http://www.w3.org/1999/xlink" x="0px" y="0px"
	 viewBox="0 0 242.1 45.3" style="enable-background:new 0 0 242.1 45.3;" xml:space="preserve">
<style type="text/css">
	.st0{fill-rule:evenodd;clip-rule:evenodd;fill:#ED1C2E;}
	.st1{fill:none;stroke:#ED1C2E;stroke-width:0.216;stroke-miterlimit:2.6131;}
</style>
<g>
	<polygon class="st0" points="0.1,0.2 11,0.2 11,14.8 19.5,14.8 19.5,0.1 30.3,0.1 30.3,35.5 19.5,35.5 19.5,19.3 10.9,19.3 
		10.9,35.3 0.1,35.3 0.1,0.2 	"/>
	<polygon class="st1" points="0.1,0.2 11,0.2 11,14.8 19.5,14.8 19.5,0.1 30.3,0.1 30.3,35.5 19.5,35.5 19.5,19.3 10.9,19.3 
		10.9,35.3 0.1,35.3 0.1,0.2 	"/>
	<path class="st0" d="M51.2,14.8c0.3,0.8,0.6,2.3,0.6,4.3c0,3.5,0,7.6,0,8.5c-0.1,1.7-0.7,4-2.1,5.2c-1.4,1.2-3.1,0.7-4.2-0.9
		c-1.1-1.6-1.4-3.1-1.4-7.6c0.1-4.5-0.2-7.6,0.7-9.5c0.8-1.8,1.7-2.6,2.5-2.8C49.1,11.6,50.3,12.7,51.2,14.8L51.2,14.8z M47.5,8.9
		c0,0,3.5-0.2,6.3,0.9c2.8,1.1,4.9,2.4,6.9,5.7c2,3.4,2.2,8.3,0.8,12.3c-1.4,4-4.2,5.9-6.1,7c-1.9,1-4.8,1.5-7.7,1.5
		c-2.9,0-6.6-0.6-9-2.6c-2.5-2-4.1-4.1-4.9-7.1c-0.8-2.9-1.2-8.2,1.9-12.3c3.1-4.1,7.1-4.9,8.9-5.2C46.3,8.8,47.4,8.9,47.5,8.9
		L47.5,8.9z"/>
	<path class="st1" d="M51.2,14.8c0.3,0.8,0.6,2.3,0.6,4.3c0,3.5,0,7.6,0,8.5c-0.1,1.7-0.7,4-2.1,5.2c-1.4,1.2-3.1,0.7-4.2-0.9
		c-1.1-1.6-1.4-3.1-1.4-7.6c0.1-4.5-0.2-7.6,0.7-9.5c0.8-1.8,1.7-2.6,2.5-2.8C49.1,11.6,50.3,12.7,51.2,14.8L51.2,14.8z M47.5,8.9
		c0,0,3.5-0.2,6.3,0.9c2.8,1.1,4.9,2.4,6.9,5.7c2,3.4,2.2,8.3,0.8,12.3c-1.4,4-4.2,5.9-6.1,7c-1.9,1-4.8,1.5-7.7,1.5
		c-2.9,0-6.6-0.6-9-2.6c-2.5-2-4.1-4.1-4.9-7.1c-0.8-2.9-1.2-8.2,1.9-12.3c3.1-4.1,7.1-4.9,8.9-5.2C46.3,8.8,47.4,8.9,47.5,8.9
		L47.5,8.9z"/>
	<path class="st0" d="M75.5,16.9v18.5l-10.1,0V9.7h10.2v3.5c0,0,1.3-2,3.4-3c2.1-1,5.6-1.9,9.2-0.4c3.6,1.5,4.2,4.8,4.3,6l0,19.5
		h-10V17.5c0-0.6,0-1.7-0.8-2.7c-0.6-0.7-2.2-1.1-3.6-0.4C76.8,15.2,75.3,16.7,75.5,16.9L75.5,16.9z"/>
	<path class="st1" d="M75.5,16.9v18.5l-10.1,0V9.7h10.2v3.5c0,0,1.3-2,3.4-3c2.1-1,5.6-1.9,9.2-0.4c3.6,1.5,4.2,4.8,4.3,6l0,19.5
		h-10V17.5c0-0.6,0-1.7-0.8-2.7c-0.6-0.7-2.2-1.1-3.6-0.4C76.8,15.2,75.3,16.7,75.5,16.9L75.5,16.9z"/>
	<path class="st0" d="M97.2,15.8c2-4.1,7.1-7.3,13.5-7c6.3,0.3,10,2.6,12.2,6.9c1.9,3.6,1.6,8.4,1.6,8.4l-18.2-0.1v5.2
		c0,0,0.2,1.1,0.6,1.6c0.4,0.5,2.1,2.7,7,1.9c5.5-0.9,5.3-4.8,5.4-4.8l4.3,0c0,0-0.1,2.6-1.9,4.3c-1.8,1.7-5,3.5-8.6,3.9
		c-3.6,0.4-8.6,0.5-12.7-2.9c-2.4-2-3.5-4.1-4.2-6.1C95.4,24.6,95.2,19.9,97.2,15.8L97.2,15.8z M106.2,20.7c0,0-0.1-3.3,0.2-5
		c0.3-1.6,1.2-2.9,2-3.5c1-0.7,2.9-0.8,3.9,0.3c1.1,1.1,1.3,2,1.4,2.4c0.1,0.5,0.4,2,0.4,3.4c0,1.4,0,2.3,0,2.3H106.2L106.2,20.7z"
		/>
	<path class="st1" d="M97.2,15.8c2-4.1,7.1-7.3,13.5-7c6.3,0.3,10,2.6,12.2,6.9c1.9,3.6,1.6,8.4,1.6,8.4l-18.2-0.1v5.2
		c0,0,0.2,1.1,0.6,1.6c0.4,0.5,2.1,2.7,7,1.9c5.5-0.9,5.3-4.8,5.4-4.8l4.3,0c0,0-0.1,2.6-1.9,4.3c-1.8,1.7-5,3.5-8.6,3.9
		c-3.6,0.4-8.6,0.5-12.7-2.9c-2.4-2-3.5-4.1-4.2-6.1C95.4,24.6,95.2,19.9,97.2,15.8L97.2,15.8z M106.2,20.7c0,0-0.1-3.3,0.2-5
		c0.3-1.6,1.2-2.9,2-3.5c1-0.7,2.9-0.8,3.9,0.3c1.1,1.1,1.3,2,1.4,2.4c0.1,0.5,0.4,2,0.4,3.4c0,1.4,0,2.3,0,2.3H106.2L106.2,20.7z"
		/>
	<path class="st0" d="M189.2,15.8c2-4.1,7.2-7.3,13.5-7c6.3,0.3,10,2.6,12.2,6.9c1.9,3.6,1.6,8.4,1.6,8.4l-18.2-0.1v5.2
		c0,0,0.2,1.1,0.6,1.6c0.4,0.5,2.1,2.7,7,1.9c5.5-0.9,5.3-4.8,5.4-4.8l4.3,0c0,0-0.1,2.6-1.9,4.3c-1.8,1.7-5,3.5-8.6,3.9
		c-3.6,0.4-8.6,0.5-12.7-2.9c-2.4-2-3.5-4.1-4.2-6.1C187.5,24.6,187.2,19.9,189.2,15.8L189.2,15.8z M198.2,20.7c0,0-0.1-3.3,0.2-5
		c0.3-1.6,1.2-2.9,2-3.5c1-0.7,2.9-0.8,3.9,0.3c1.1,1.1,1.3,2,1.4,2.4c0.1,0.5,0.4,2,0.4,3.4s0,2.3,0,2.3H198.2L198.2,20.7z"/>
	<path class="st1" d="M189.2,15.8c2-4.1,7.2-7.3,13.5-7c6.3,0.3,10,2.6,12.2,6.9c1.9,3.6,1.6,8.4,1.6,8.4l-18.2-0.1v5.2
		c0,0,0.2,1.1,0.6,1.6c0.4,0.5,2.1,2.7,7,1.9c5.5-0.9,5.3-4.8,5.4-4.8l4.3,0c0,0-0.1,2.6-1.9,4.3c-1.8,1.7-5,3.5-8.6,3.9
		c-3.6,0.4-8.6,0.5-12.7-2.9c-2.4-2-3.5-4.1-4.2-6.1C187.5,24.6,187.2,19.9,189.2,15.8L189.2,15.8z M198.2,20.7c0,0-0.1-3.3,0.2-5
		c0.3-1.6,1.2-2.9,2-3.5c1-0.7,2.9-0.8,3.9,0.3c1.1,1.1,1.3,2,1.4,2.4c0.1,0.5,0.4,2,0.4,3.4s0,2.3,0,2.3H198.2L198.2,20.7z"/>
	<path class="st0" d="M123.6,9.7h11l4.7,12.2l5-12.2l13.9,0l4.5,14.4l3.9-14.4h8.8l4.4,14.2l3.9-14.2h4.6l-7.1,25.7h-8.3l-4.6-15
		l-4.1,15h-8.5L148,10.6l-10.7,26.2c0,0-1.5,4.3-3.4,6c-1.9,1.7-4,2.9-7.4,2.3c-3.4-0.6-4.8-2.4-5-4.5c-0.3-2.1,0.8-4.3,3.2-4.8
		c2.4-0.5,4,0.5,4.6,1.6c0.6,1.2,0.7,2.5,0.4,3.2c-0.3,0.7-0.9,1.2-0.9,1.2s1.4,0.4,2.6-1c1.2-1.3,2-3.2,2.2-3.9
		c0.2-0.7,0.2-1,0.2-1L123.6,9.7L123.6,9.7z"/>
	<path class="st1" d="M123.6,9.7h11l4.7,12.2l5-12.2l13.9,0l4.5,14.4l3.9-14.4h8.8l4.4,14.2l3.9-14.2h4.6l-7.1,25.7h-8.3l-4.6-15
		l-4.1,15h-8.5L148,10.6l-10.7,26.2c0,0-1.5,4.3-3.4,6c-1.9,1.7-4,2.9-7.4,2.3c-3.4-0.6-4.8-2.4-5-4.5c-0.3-2.1,0.8-4.3,3.2-4.8
		c2.4-0.5,4,0.5,4.6,1.6c0.6,1.2,0.7,2.5,0.4,3.2c-0.3,0.7-0.9,1.2-0.9,1.2s1.4,0.4,2.6-1c1.2-1.3,2-3.2,2.2-3.9
		c0.2-0.7,0.2-1,0.2-1L123.6,9.7L123.6,9.7z"/>
	<polygon class="st0" points="219.5,0.1 229.2,0.1 229.2,35.4 219.5,35.4 219.5,0.1 	"/>
	<polygon class="st1" points="219.5,0.1 229.2,0.1 229.2,35.4 219.5,35.4 219.5,0.1 	"/>
	<polygon class="st0" points="232.3,0.2 242,0.2 242,35.5 232.3,35.5 232.3,0.2 	"/>
	<polygon class="st1" points="232.3,0.2 242,0.2 242,35.5 232.3,35.5 232.3,0.2 	"/>
</g>
</svg>
