<?xml version="1.0" encoding="utf-8"?>
<!-- Generator: Adobe Illustrator 19.0.1, SVG Export Plug-In . SVG Version: 6.00 Build 0)  -->
<svg version="1.1" id="Layer_1" xmlns="http://www.w3.org/2000/svg" xmlns:xlink="http://www.w3.org/1999/xlink" x="0px" y="0px"
	 viewBox="0 0 175.7 67.5" style="enable-background:new 0 0 175.7 67.5;" xml:space="preserve">
<style type="text/css">
	.st0{fill-rule:evenodd;clip-rule:evenodd;fill:#003976;}
</style>
<g>
	<path class="st0" d="M61.3,61.5l2.9-6.3l2.9,6.3H61.3L61.3,61.5L61.3,61.5z M55.8,67.1h2.9l1.5-3.2h8.1l1.5,3.2h2.9l-6.8-14.1h-3.1
		L55.8,67.1L55.8,67.1z"/>
	<polygon class="st0" points="76.4,53.1 79.1,53.1 79.1,67.1 76.4,67.1 76.4,53.1 	"/>
	<path class="st0" d="M87.1,59.3v-4h5.3c2.2,0,3.4,0.3,3.4,2c0,1.7-1.1,2-3.4,2H87.1L87.1,59.3L87.1,59.3z M84.3,67.1h2.7v-5.5h4.3
		l4.1,5.5h3.4l-4.3-5.7c2.1-0.1,3.9-1.5,3.9-4.1c0-3.4-2.4-4.2-5.7-4.2h-8.4V67.1L84.3,67.1z"/>
	<polygon class="st0" points="102,53.1 104.7,53.1 107.4,62.7 107.5,62.7 110.2,53.1 112.8,53.1 115.5,62.7 115.5,62.7 118.2,53.1 
		120.9,53.1 116.8,67.1 114.2,67.1 111.5,57.1 111.5,57.1 108.8,67.1 106.1,67.1 102,53.1 	"/>
	<path class="st0" d="M128,61.5l2.9-6.3l2.9,6.3H128L128,61.5L128,61.5z M122.5,67.1h2.9l1.5-3.2h8.1l1.5,3.2h2.9l-6.8-14.1h-3.1
		L122.5,67.1L122.5,67.1z"/>
	<polygon class="st0" points="146,61.5 139.1,53.1 142.5,53.1 147.3,59 152.2,53.1 155.6,53.1 148.7,61.5 148.7,67.1 146,67.1 
		146,61.5 	"/>
	<path class="st0" d="M168.8,57.3c-0.4-1.3-1.6-2.3-4.9-2.3c-1.9,0-3.7,0.5-3.7,1.8c0,0.6,0.3,1.2,3.2,1.6l3.3,0.5
		c3.2,0.5,5,1.7,5,4.1c0,3.3-3.2,4.6-6.9,4.6c-6,0-7.5-3-7.8-4l2.6-0.8c0.5,1,1.5,2.5,5.3,2.5c2.2,0,4.1-0.7,4.1-2
		c0-0.9-1-1.5-3.1-1.8l-3.4-0.5c-3.2-0.4-5.1-1.9-5.1-4c0-4.2,5.5-4.2,6.6-4.2c6.1,0,7.1,2.8,7.4,3.8L168.8,57.3L168.8,57.3z"/>
	<path class="st0" d="M4.8,11.5h5.7v30.7c0,4.8-3.5,8-8.3,8H0v-5.4h1.6c2,0,3.2-0.9,3.2-3V11.5L4.8,11.5L4.8,11.5z M4.8,0h5.7v5.7
		H4.8V0L4.8,0z"/>
	<path class="st0" d="M20,23.2c0.1-4.3,2.6-6.6,6-6.6c3.4,0,5.8,2.3,6,6.6H20L20,23.2L20,23.2z M37.7,27.9v-4.7
		c0-7.4-5.4-12-11.7-12c-5.5,0-11.7,3.6-11.7,14.7c0,11.7,6.8,14.5,12.6,14.5c3.8,0,7.5-1.4,10.3-4.6L33,32.2
		c-1.7,1.7-4,2.8-6.2,2.8c-3.9,0-6.8-2.4-6.8-7H37.7L37.7,27.9z"/>
	<path class="st0" d="M42.3,2.9H48v8.6h4.2v4.4H48v16.6c0,1.6,0.6,2.1,2,2.1h2.1V40h-3c-4,0-6.9-2.5-6.9-7V15.9h-2.9v-4.4h2.9V2.9
		L42.3,2.9z"/>
	<path class="st0" d="M71.2,22.2c4.5,0,6.5,2.9,6.5,6c0,3.1-2,6-6.5,6h-9.3v-12H71.2L71.2,22.2L71.2,22.2z M55.8,40h16.8
		c6,0,11.1-4.4,11.1-11.3c0-4-2.1-8.2-6.5-9.2v-0.1c4.7-2.1,5.9-5.3,5.9-8.6c0-6.3-4-10.7-11.8-10.7H55.8V40L55.8,40L55.8,40z
		 M70.6,5.4c4.4,0,6.5,2.6,6.5,5.7c0,3.1-2.1,5.7-6.5,5.7h-8.8V5.4H70.6L70.6,5.4z"/>
	<path class="st0" d="M87,0h5.7v32.6c0,1.3,0.7,2,2.1,2h2V40h-2.5c-4.2,0-7.3-1.8-7.3-6.9V0L87,0z"/>
	<path class="st0" d="M99.3,11.5h5.7v17c0,3.9,2.4,6.1,5.7,6.1c3.2,0,5.6-2.2,5.6-6.1v-17h5.7V40h-5.7v-3h-0.1
		c-1.8,2.2-4.4,3.4-7.4,3.4c-4.5,0-9.5-3.4-9.5-9.9V11.5L99.3,11.5z"/>
	<path class="st0" d="M130.8,23.2c0.1-4.3,2.6-6.6,6-6.6c3.4,0,5.8,2.3,6,6.6H130.8L130.8,23.2L130.8,23.2z M148.6,27.9v-4.7
		c0-7.4-5.4-12-11.7-12c-5.5,0-11.7,3.6-11.7,14.7c0,11.7,6.8,14.5,12.6,14.5c3.8,0,7.5-1.4,10.3-4.6l-4.2-3.5
		c-1.7,1.7-4,2.8-6.2,2.8c-3.9,0-6.8-2.4-6.8-7H148.6L148.6,27.9z"/>
	<path class="st0" d="M172.8,55.1c0-0.8,0.7-1.5,1.5-1.5c0.8,0,1.5,0.7,1.5,1.5c0,0.8-0.7,1.5-1.5,1.5
		C173.5,56.6,172.8,55.9,172.8,55.1L172.8,55.1L172.8,55.1z M175.6,55.1c0-0.7-0.6-1.3-1.3-1.3c-0.7,0-1.3,0.6-1.3,1.3
		c0,0.7,0.6,1.3,1.3,1.3C175,56.4,175.6,55.8,175.6,55.1L175.6,55.1L175.6,55.1z M175,55.9h-0.2l-0.5-0.8h-0.4v0.8h-0.2v-1.6h0.7
		c0.1,0,0.3,0,0.4,0.1c0.1,0.1,0.2,0.2,0.2,0.4c0,0.3-0.2,0.4-0.5,0.5L175,55.9L175,55.9L175,55.9z M174.2,55c0.2,0,0.6,0,0.6-0.3
		c0-0.3-0.2-0.3-0.4-0.3h-0.5V55H174.2L174.2,55z"/>
	<path class="st0" d="M172.8,55.1c0-0.8,0.7-1.5,1.5-1.5c0.8,0,1.5,0.7,1.5,1.5c0,0.8-0.7,1.5-1.5,1.5
		C173.5,56.6,172.8,55.9,172.8,55.1L172.8,55.1L172.8,55.1z M175.6,55.1c0-0.7-0.6-1.3-1.3-1.3c-0.7,0-1.3,0.6-1.3,1.3
		c0,0.7,0.6,1.3,1.3,1.3C175,56.4,175.6,55.8,175.6,55.1L175.6,55.1L175.6,55.1z M175,55.9h-0.2l-0.5-0.8h-0.4v0.8h-0.2v-1.6h0.7
		c0.1,0,0.3,0,0.4,0.1c0.1,0.1,0.2,0.2,0.2,0.4c0,0.3-0.2,0.4-0.5,0.5L175,55.9L175,55.9L175,55.9z M174.2,55c0.2,0,0.6,0,0.6-0.3
		c0-0.3-0.2-0.3-0.4-0.3h-0.5V55H174.2L174.2,55z"/>
</g>
</svg>
