<?xml version="1.0" encoding="utf-8"?>
<!-- Generator: Adobe Illustrator 16.0.4, SVG Export Plug-In . SVG Version: 6.00 Build 0)  -->
<!DOCTYPE svg PUBLIC "-//W3C//DTD SVG 1.1//EN" "http://www.w3.org/Graphics/SVG/1.1/DTD/svg11.dtd">
<svg version="1.1" id="Layer_1" xmlns="http://www.w3.org/2000/svg" xmlns:xlink="http://www.w3.org/1999/xlink" x="0px" y="0px"
	 width="287.273px" height="157.374px" viewBox="-56.448 -53.438 287.273 157.374"
	 enable-background="new -56.448 -53.438 287.273 157.374" xml:space="preserve">
<g>
	<path fill="#FFFFFF" d="M188.128-36.517l5.519-4.002l5.508,4.002l-2.111-6.479l5.492-3.994h-6.789l-2.1-6.448l-2.113,6.448h-6.779
		l5.482,3.994L188.128-36.517z M-56.415,103.936h26.457V44.421h0.342l18.267,59.51h23.385V-18.337H1.644v-28.541h-6.486
		l-3.502,16.777h-0.08l-3.5-16.777h-6.486v28.703h3.984v58.672h-0.336l-18.096-58.836h-6.912l-5.263-28.539h-6.122l-5.294,28.703
		h0.033V103.936z M-2.731-40.597h0.08v22.258h-4.504L-2.731-40.597z M-14.114-40.597h0.079l4.425,22.258h-4.504V-40.597z
		 M-48.135-41.153h0.078l1.949,12.326h-3.979L-48.135-41.153z M-50.802-24.537h5.412l0.852,6.199h-7.114L-50.802-24.537z
		 M44.372,103.936l2.39-22.504h16.381l2.389,22.504h27.64L74.917-18.337h-0.028l-4.123-12.836c1.672-0.756,3.459-2.626,3.459-7.237
		c0-6.122-2.824-8.466-8.355-8.466h-6.924v28.541H37.132v-4.13H28.3v-8.428h6.363v-4.296H28.3v-7.396h8.273v-4.293H23.366v28.703
		h10.736L16.888,103.932h27.483V103.936z M63.884-42.823h1.75c2.666,0,3.66,0.994,3.66,4.412c0,3.42-0.996,4.414-3.66,4.414h-1.75
		V-42.823z M63.884-29.943c0.878,0,1.912-0.04,2.548-0.12l3.452,11.724h-6V-29.943z M54.185,7.587h0.512l6.391,50.815H48.806
		L54.185,7.587z M206.419,103.936V52.769l24.406-71.106h-8.422c2.734-1,4.459-3.323,4.459-6.794
		c0-7.794-10.027-10.138-10.027-15.031c0-1.786,0.877-2.82,2.465-2.82c1.115,0,2.431,0.714,2.63,3.178l4.69-0.518
		c-0.436-4.052-2.824-6.958-6.844-6.958c-4.854,0-7.637,2.586-7.637,7.158c0,8.229,10.024,9.739,10.024,15.424
		c0,1.708-1.147,2.626-2.865,2.626c-1.59,0-2.745-1.433-2.944-4.336l-4.699,0.676c0.154,3.306,1.762,6.218,4.576,7.39h-13.574
		L192.585,25.82h-0.34l-10.065-44.162h-4.955l-5.261-28.542h-6.129l-5.25,28.473H134.7c2.682-1.143,3.998-3.725,3.998-6.725v-3.3
		h-4.93v3.458c0,1.868-0.603,2.904-2.392,2.904c-1.985,0-2.625-1.036-2.625-3.183v-14.546c0-2.146,0.64-3.178,2.625-3.178
		c1.273,0,2.392,1.034,2.392,3.458v2.224h4.93v-2.104c0-4.296-2.385-7.874-7.32-7.874c-5.172,0-7.559,3.3-7.559,7.355v14.79
		c0,4.053,2.387,7.356,7.559,7.356c1.033,0,1.929-0.174,2.738-0.44l-9.793,94.834h-0.508l-10.84-94.958H100.08v-28.539h-4.932
		v28.541H85.33l18.253,121.99h40.801L159.387-2.601l18.872,55.372v51.165H206.419L206.419,103.936z M168.866-41.153h0.078
		l1.953,12.326h-3.98L168.866-41.153z M165.346-18.337l0.854-6.199h5.41l0.852,6.199H165.346z"/>
</g>
</svg>
