<?xml version="1.0" encoding="utf-8"?>
<!-- Generator: Adobe Illustrator 19.0.1, SVG Export Plug-In . SVG Version: 6.00 Build 0)  -->
<svg version="1.1"
	 id="Southwest_Logo_1_" sodipodi:docname="swa_logo_light.svg" inkscape:version="0.48.2 r9819" xmlns:dc="http://purl.org/dc/elements/1.1/" xmlns:cc="http://creativecommons.org/ns#" xmlns:sodipodi="http://sodipodi.sourceforge.net/DTD/sodipodi-0.dtd" xmlns:rdf="http://www.w3.org/1999/02/22-rdf-syntax-ns#" xmlns:inkscape="http://www.inkscape.org/namespaces/inkscape" xmlns:svg="http://www.w3.org/2000/svg"
	 xmlns="http://www.w3.org/2000/svg" xmlns:xlink="http://www.w3.org/1999/xlink" x="0px" y="0px" viewBox="104 539.6 1000 147.4"
	 style="enable-background:new 104 539.6 1000 147.4;" xml:space="preserve">
<style type="text/css">
	.st0{fill:#2E4BB1;}
	.st1{fill:#CCCCCC;}
	.st2{fill:url(#path21_1_);}
	.st3{fill:url(#path28_1_);}
	.st4{fill:url(#path37_1_);}
</style>
<g id="Type" transform="matrix(4.6848402,0,0,4.6848402,-1.6034932,-8.7525594)">
	<g id="g4">
		<path id="path6" inkscape:connector-curvature="0" class="st0" d="M81.2,142.2c-0.9,0.2-2,0.3-3.1,0.3c-3.2,0-3.9-1.1-3.9-3.2
			v-12.2h-6l0,12.8c0,5.7,3.2,8.3,9.6,8.3c3.1,0,6-0.6,9.5-1.4v-19.6h-6.1C81.2,127.2,81.2,142.2,81.2,142.2z M100.7,142.8
			c-2.2,0-2.5-1-2.5-2.7l0-7.8l5,0v-5.1h-5v-6h-6v6l-3,0v5l3,0l0,8.2c0,3.6,0.7,7.8,6.7,7.8c1.8,0,3.3-0.4,5-0.9l-0.6-5
			C102.4,142.6,101.6,142.8,100.7,142.8z M37.6,131.5c-1.1-0.4-2.4-0.8-3.7-1.2c-3.5-1-4.6-1.5-4.6-3.1c0-1.8,1.3-2.7,4.5-2.7
			c2.6,0,4.9,0.7,7.2,1.5l1.3-5.9c-2.7-1-5.2-1.9-8.3-1.9c-7.2,0-11.2,4.1-11.2,9c0,3.7,1.6,6.1,5.2,7.6c1,0.4,2.3,0.8,3.6,1.2
			c3.9,1.2,5.1,1.8,5.1,3.3c0,1.8-1.5,2.8-4.6,2.8c-2.8,0-5.4-0.8-8.1-2l-1.3,5.9c3,1.2,5.9,2,9.5,2c7.4,0,11.2-4.1,11.2-9.1
			C43.3,135.1,41,132.8,37.6,131.5z M116.4,126.1c-2,0-3.9,0.5-5.2,0.9v-9.9h-6v31h6l0-15.5c1.1-0.4,2.3-0.8,3.8-0.8
			c2.3,0,3.2,0.9,3.2,3.1l0,13.3h6l0-13.9C124.2,128.8,121.7,126.1,116.4,126.1L116.4,126.1z M55.6,126c-6.1,0-11,4.3-11,11
			c0,6.7,4.9,11.2,11,11.2c6.1,0,11-4.4,11-11.2C66.6,130.3,61.7,126,55.6,126z M55.6,142.3c-2.6,0-4.7-1.9-4.7-5.3
			c0-3.4,2-5.2,4.7-5.2c2.7,0,4.7,1.8,4.7,5.2C60.3,140.5,58.2,142.3,55.6,142.3z M190.3,135.4c-0.9-0.3-1.8-0.6-2.9-0.9
			c-2.1-0.6-2.9-0.9-2.9-1.8c0-0.9,0.8-1.5,2.7-1.5c2,0,3.8,0.4,5.8,1l1-5.2c-2.2-0.5-4.3-0.9-6.7-0.9c-5.7,0-8.8,2.9-8.8,6.9
			c0,2.8,1.4,4.6,4.2,5.8c0.8,0.3,1.7,0.7,2.8,1c2.2,0.6,3.3,0.9,3.3,1.9c0,1-1.3,1.4-3.1,1.4c-2.2,0-4.2-0.4-6.3-1.2l-0.9,5.2
			c2.6,0.7,5,1.2,7.7,1.2c6,0,8.7-3.1,8.7-7C194.8,138.6,193.7,136.6,190.3,135.4L190.3,135.4z M167.8,126.1
			c-6.3,0-10.8,4.4-10.8,11.4c0,6.5,3.9,10.8,10.9,10.8c3.1,0,5.6-0.9,8.2-2l-0.9-5c-2,0.9-4,1.6-6.4,1.6c-3.6,0-5.1-1.5-5.3-3.7
			l13.5,0c0,0,0.2-2.4,0.2-2.9C177.2,130.6,174.1,126.1,167.8,126.1L167.8,126.1z M163.6,135.2c0.4-1.8,1.3-4.1,3.9-4.1
			c2.6,0,3.4,2.6,3.4,4.1L163.6,135.2z M206.7,142.8c-2.2,0-2.5-1-2.5-2.7l0-7.8l5,0v-5.1h-5v-6h-6v6l-3.1,0v5.1l3.1,0l0,8.2
			c0,3.6,0.9,7.8,6.9,7.8c1.8,0,3.3-0.4,5-0.9l-0.7-5C208.4,142.6,207.6,142.8,206.7,142.8L206.7,142.8z M210.7,118.4
			c-1.5,0-2.6,1.2-2.7,2.7c0,1.5,1.2,2.7,2.6,2.7c1.5,0,2.7-1.2,2.7-2.7S212.2,118.4,210.7,118.4z M210.7,123.3
			c-1.2,0-2.1-0.9-2.1-2.2c0-1.3,0.9-2.2,2.2-2.2c1.2,0,2.2,0.9,2.2,2.2C212.8,122.4,211.9,123.3,210.7,123.3L210.7,123.3z
			 M211,121.2c0.5-0.1,0.8-0.3,0.8-0.8c0-0.5-0.4-0.9-1-0.9l-1,0l0,3.1l0.6,0v-1.3c0.2,0,0.3,0.1,0.4,0.3l0.7,1h0.7l-0.6-1
			C211.2,121.4,211.1,121.3,211,121.2L211,121.2z M210.6,120.8l-0.3,0l0-0.9l0.4,0c0.4,0,0.5,0.2,0.5,0.4
			C211.2,120.8,210.9,120.8,210.6,120.8z M151.4,127.2l-3.8,11.5l-3.9-11.5h-5.2l-3.9,11.5l-3.8-11.5h-6.5l7.5,21h5.5l3.8-11.4
			l3.8,11.4h5.5l7.5-21L151.4,127.2L151.4,127.2z"/>
	</g>
</g>
<g id="g8" transform="matrix(4.6848402,0,0,4.6848402,-1.6034932,-8.7525594)">
	<g id="g10">
		<path id="path12" inkscape:connector-curvature="0" class="st1" d="M229.2,126c-2,0-3.7,0.7-5,1.5c-1.3-0.7-2.9-1.5-5-1.5
			c-4.1,0-6.7,2.7-6.7,7.2c0,5.5,5.3,10.9,11.7,15.3c6.4-4.3,11.7-9.7,11.7-15.3C235.9,128.6,233.2,126,229.2,126z"/>
		
			<linearGradient id="path21_1_" gradientUnits="userSpaceOnUse" x1="80.7601" y1="285.9221" x2="96.2171" y2="285.9221" gradientTransform="matrix(4.6848 0 0 4.6848 -165.205 -1199.8298)">
			<stop  offset="0" style="stop-color:#3656CC"/>
			<stop  offset="0.35" style="stop-color:#304CB2"/>
			<stop  offset="0.72" style="stop-color:#283B80"/>
		</linearGradient>
		<path id="path21" inkscape:connector-curvature="0" class="st2" d="M213.1,133.2c0,5.6,6,10.9,11,14.4c1.5-1,3-2.2,4.4-3.4
			c-6.7-5.6-13.1-10.7-15.3-12.5C213.2,132.2,213.1,132.7,213.1,133.2L213.1,133.2z"/>
		
			<linearGradient id="path28_1_" gradientUnits="userSpaceOnUse" x1="81.2287" y1="283.3157" x2="98.6904" y2="295.5424" gradientTransform="matrix(4.6848 0 0 4.6848 -165.205 -1199.8298)">
			<stop  offset="0.3" style="stop-color:#E61C23"/>
			<stop  offset="0.8" style="stop-color:#C3161C"/>
		</linearGradient>
		<path id="path28" inkscape:connector-curvature="0" class="st3" d="M234.8,135.9c-4.9-4-7.8-6.1-11-8c-0.9-0.5-2.6-1.3-4.5-1.3
			c-1.8,0-3.4,0.6-4.5,1.7c-0.7,0.7-1.2,1.6-1.4,2.7c2.5,1.8,9.4,6.7,16.3,12.2C232,141,233.9,138.5,234.8,135.9L234.8,135.9z"/>
		
			<linearGradient id="path37_1_" gradientUnits="userSpaceOnUse" x1="83.5394" y1="282.9783" x2="93.5231" y2="289.969" gradientTransform="matrix(4.6848 0 0 4.6848 -165.205 -1199.8298)">
			<stop  offset="0" style="stop-color:#FDBC11"/>
			<stop  offset="0.25" style="stop-color:#FCB415"/>
			<stop  offset="0.8" style="stop-color:#F89E1C"/>
		</linearGradient>
		<path id="path37" inkscape:connector-curvature="0" class="st4" d="M233.5,128.3c-1.1-1.1-2.6-1.7-4.4-1.7c-1.9,0-3.3,0.6-4.4,1.2
			c1.9,1.1,6,3.4,10.3,6.6c0.1-0.4,0.1-0.8,0.1-1.3C235.2,131.1,234.6,129.4,233.5,128.3z"/>
	</g>
</g>
</svg>
