<?xml version="1.0" encoding="utf-8"?>
<!-- Generator: Adobe Illustrator 19.0.1, SVG Export Plug-In . SVG Version: 6.00 Build 0)  -->
<svg version="1.1" id="Layer_1" xmlns="http://www.w3.org/2000/svg" xmlns:xlink="http://www.w3.org/1999/xlink" x="0px" y="0px"
	 viewBox="0 0 2700 465" style="enable-background:new 0 0 2700 465;" xml:space="preserve">
<style type="text/css">
	.st0{fill:#003399;}
</style>
<g>
	<path class="st0" d="M2180.4,0.5h464.4c0,138.6,0,277.3,0,416c-0.2,16.4,0.3,32.7-0.2,49h-97.7c5.2-15.4,10.2-30.9,13.2-46.8
		c6.3-32.2,7.6-65.5,3.6-98.1c-6.3-51.1-26.4-100.2-57.1-141.6c-28.5-38.6-66.1-70.5-109.2-91.8c-66.6-32.9-145.4-40.1-216.8-19.9
		C2180.4,45,2180.4,22.8,2180.4,0.5z"/>
	<path class="st0" d="M2217.1,63.8c21-4.6,43-4.9,64.1-0.7c29,5.9,55.6,24.8,68.4,51.8c6.8,13.5,9.1,28.7,9.6,43.7
		c0,35.1-12.7,69.1-30.5,98.9c-17,27.9-38.6,53-63.2,74.5c-22.8,20-48.1,37.3-75.4,50.6c-3.2,1.5-6.3,3.2-9.7,4.1
		c0-8.4,0-16.8,0-25.2c2.7,4.4,4.5,9.3,7.2,13.8c3.9-1.7,7.7-3.7,11.5-5.9c-5.8-12.4-12.1-24.5-18.1-36.8c-0.9-1.6-0.6-3.4-0.6-5.1
		c0.1-4.7-0.1-9.5,0.1-14.2c11.2-5.3,21.3-12.7,31-20.3c1-1.2,2,0.6,2.6,1.2c10.2,14,21,27.6,31.8,41.2c0.5,0.6,1,1.1,1.6,1.6
		c5.1-3.6,10.3-7.6,14.3-12.5c-11.5-13.8-23.3-27.2-35.8-40c-0.5-0.8-2-1.5-1.5-2.5c8.2-6.1,15.6-13.2,22.3-20.9
		c2-2,3.5-4.7,5.9-6.3c14.6,11.6,29.2,23.2,43.5,35.2c4.7-5.8,9.2-11.7,13.7-17.6c-14.9-11-30-21.8-46-31.2
		c6.2-9.3,12.8-18.3,17.9-28.3c15.1,6.3,29.6,14,43.9,21.9c1.6,0.8,3.2,2,5,2.5c4-6.2,6.4-13.4,9.3-20.2
		c-16.1-8.2-32.7-15.2-49.8-21c3.2-7.2,5.9-14.6,7.5-22.3c17.3,2.9,34.1,8.3,50.8,13.7c2.1-7.9,2.9-16.1,3.3-24.2
		c-16.5-4.1-33.3-7.1-50.2-9c0.7-5.1,0.7-10.2,0.9-15.4c16.2,1.2,32.3,3.3,48.3,6.3c-0.7-7.3-2.3-14.6-5.1-21.4
		c-15-2.8-30.6-1.7-45.7-2.3c-1.2-3.9-2.3-7.9-4-11.6c14-1.5,28.1-1.3,42.1-0.8c-3.2-6.3-7.8-11.9-13.2-16.3
		c-12.3-0.1-24.6,1.8-36.8,3.6c-2.1-3.3-4.9-6-7.4-8.9c9.9-2.1,19.9-4,30.1-4.9c-0.7-1.6-2.5-2.3-3.9-3.1c-5.2-2.8-10.4-5.6-16-7.7
		c-2.6-1.2-5.4,0.4-8,0.8c-5.4,1.1-10.6,3.2-15.9,4.4c-3.8-1.7-7.3-3.9-11.2-5.2c4.5-2.3,9.4-3.6,14.1-5.3c-10.8-2.4-22-2.1-33-1.7
		C2230.4,66.2,2223.7,64.6,2217.1,63.8z"/>
	<path class="st0" d="M2289.9,60.9c18,1.9,36.1,4.5,53.1,10.8c13.7,4.9,26.3,12.8,37,22.6c21.3,18.3,35.7,44.3,39.7,72.1
		c4.6,30.5-2.9,61.4-14.3,89.6c-12.3,29.6-30.4,56.5-50.9,81c-36,43.9-81.4,80.3-133.1,104c-13.3,6.1-26.9,11.5-40.8,15.9
		c-0.2-21.7,0-43.5-0.1-65.2c4.3-1.6,8.3-3.7,12.6-5.4c7.6,16.3,15.7,32.3,24.8,47.8c4.6-1.7,8.8-4.2,13.1-6.6
		c-8-15-16.1-29.8-24.5-44.6c-0.6-1.1-2.3-3.3-0.3-3.9c17.1-9,33.3-19.9,48.2-32.2c11.4,14.5,22.8,29,34.2,43.6
		c6.4-4,11.8-9.2,17.4-14.1c-9.8-12.6-20.5-24.7-30.9-36.8c-1.4-1.9-3.8-3.3-4.6-5.5c5.1-4.9,10.6-9.4,15.4-14.6
		c6.4-7.1,13.1-14,18.8-21.7c14.5,11.7,28.5,24.3,41.5,37.7c5.8-6.5,11.8-13.2,16.2-20.8c-11.1-9.7-22.4-19.2-34-28.4
		c-3-2.4-6.4-4.5-9-7.5c8.7-10.6,15.6-22.6,21.5-34.9c11.8,6.1,22.9,13.5,34.1,20.7c4.6,2.9,8.8,6.4,13.6,8.9
		c4.2-7.8,8.4-15.7,11.2-24.1c-15.1-9.4-30.8-18.1-46.7-26.1c-0.9-0.5-2.7-1.2-1.8-2.5c3.3-9.4,6.4-19,8.5-28.8
		c14.1,4.4,27.5,10.7,40.9,17.1c3.3,1.4,6.3,3.6,9.9,4.5c1.9-9.6,3.2-19.4,3.1-29.2c-16.2-7.4-33.2-13.2-50.3-18.1
		c0.1-6.1-0.5-12.2-0.7-18.4c15.4,2.9,30.4,7.8,45.2,12.9c1,0,2.9,1.5,3.4,0.1c-1.9-9.5-5.1-18.8-9.2-27.6
		c-14.6-3.7-29.4-6.5-44.2-8.5c-1.5-5-4.4-9.6-5.4-14.6c10.2,1.4,20.6,2.2,30.8,4.2c2.5,0.5,5.1,1,7.8,1.1
		c-5.5-7.9-12.3-15-19.9-20.9c-1.4-1.1-3-2.3-4.9-2.2c-8.9-0.3-17.7-0.6-26.6-0.4c-2.8-2.5-5.2-5.4-8-7.8c-0.8-0.9-2.4-1.6-2.3-3
		c6.3-0.4,12.6-0.3,18.9-0.4c-2.4-2.6-6.1-3.3-9.2-4.8c-10.7-4.3-21.9-7.6-33.4-8.9C2300.4,64.5,2294.9,63.2,2289.9,60.9z"/>
	<path class="st0" d="M2191,70.5c20.6-3.5,42.5-3.2,62.1,4.6c14.8,5.8,28.3,16.2,36,30.4c10.1,18.5,10.6,40.8,6.3,61.1
		c-6.5,28.7-21.3,55-39.6,77.8c-20,24.4-44,45.4-70.9,61.9c-1.4,0.9-3,1.7-4.5,2.2c0.1-19.1,0-38.2,0.1-57.3
		c8.6,9.9,16.2,20.8,24.6,31c4.2-1.7,7.5-5.5,11-8.5c-11.6-12.2-23.1-24.5-34.5-36.8c-1.6-1.2-1.7-3.9,0.1-4.9
		c6.1-5,11.5-10.8,16.8-16.6c15.4,9.9,30.2,20.7,44.6,31.9c2.9-3.4,5.8-6.7,8.5-10.2c0.4-0.8,2.2-2.2,0.9-3
		c-15.3-9.7-31-18.8-47.2-26.8c4.8-6,8.9-12.6,12.5-19.4c15.5,4.6,30.7,10.1,45.7,16.3c2.7,1.1,5.2,2.6,8.1,3.2
		c2.5-5,5.1-9.9,7.4-14.9c-18.1-6.6-36.8-11.7-55.8-15.1c1.8-4.7,3.9-9.4,4.8-14.4c19.6,1.1,39.2,3.5,58.4,7.9
		c1.4-5.9,3.1-11.8,3.4-17.9c-19.6-1.9-39.4-2.4-59.1-1.9c0.5-3.9,0.7-7.8,1.1-11.7c19.6-1.5,39.3-2.2,59-1.3
		c-0.4-5.2-0.8-10.4-2.6-15.3c-19.3,0.1-38.5,3.4-57.5,6.6c-0.6-3-1.4-6-2.3-9c18.1-4.8,36.8-7.5,55.4-9.5
		c-2.1-4.2-4.7-8.2-7.7-11.8c-17.3,3.1-34.2,8.3-50.9,13.6c-1.4-2.7-3-5.2-4.9-7.4c14.9-6.6,30.7-10.8,46.6-14.5
		c-4-3.7-8.8-6.4-13.7-8.5c-13.6,3.7-26.4,10-39,16.2c-1.8-1.7-3.8-3-5.8-4.3c0-1.2,1.4-1.5,2.2-2.1c9.3-5.7,19.3-10.3,29.5-14.2
		c-6.8-2.2-14-3-21.1-3.4c-7.8,3.6-14.9,8.8-21.9,13.7c-2.7-1-5.4-1.8-8.2-2.4c3.8-4.3,8.8-7.2,13.4-10.6
		c-7.3-0.2-14.5,1.7-21.7,2.6c0-0.8,0-2.3,0-3.1c-1.6-0.1-3.1-0.1-4.7-0.2C2180.5,72.1,2185.9,71.7,2191,70.5z"/>
	<path class="st0" d="M2368.8,80.6c4.4,0.5,8.5,2.2,12.8,3.5c15.6,5.1,30.5,13,42.4,24.4c11,10.6,20.3,23.1,27.4,36.6
		c16.2,30.4,20.8,66.4,14.6,100.2c-7,37.5-24,72.6-45.3,104c-31.6,46-72.9,84.9-118.9,116.2h-48.2c-5.5-9.2-11.1-18.4-16.6-27.7
		c20.4-11.2,40.3-23.5,58.8-37.7c10,12.7,19.5,25.8,29.8,38.2c6.3-5.2,12.8-10.2,18.8-15.7c-9.5-13.1-19.8-25.7-30.7-37.7
		c14.8-12.4,28.1-26.6,40.7-41.2c11.7,11.1,22.6,23,33.7,34.7c7.3-6.2,12.5-14.4,18.2-22c-11.1-11.9-23.3-22.7-35-34
		c2.1-3.3,4.8-6.2,7.1-9.4c7.5-9.9,13.4-20.9,19.5-31.7c3.2,1.3,5.6,3.9,8.3,5.8c9.7,7.3,19,15.2,28.4,22.9
		c4.2-8.9,9.3-17.7,12-27.2c-11.5-9.9-23.9-18.8-36.6-27c4.7-11.5,8.9-23.4,11-35.6c13.2,6.1,25.2,14.7,37.3,22.8
		c2.3-11.4,3.1-23,3-34.6c-11.7-7-23.5-13.6-36-19.1c0.1-7.5-0.5-15-1.1-22.6c11.5,4.6,22.8,9.8,33.8,15.5
		c-1.3-10.9-5.4-21.2-9.8-31.2c-1.1-2-1.8-4.7-4.3-5.4c-9.3-3.2-18.6-6.4-28.1-9.2c-2.5-5.9-5.4-11.7-8.8-17.2
		c8.9,1.9,17.8,4.2,26.3,7.7c-9.2-12.3-21-22.8-34.4-30.5c-4.2-2.6-9.7-0.8-13.9-3.3C2380.2,88.4,2374.8,84.1,2368.8,80.6z"/>
	<path class="st0" d="M2180.4,87.9c16.9,2.1,33.4,11.7,41.3,27.1c7.8,16.8,6.5,36.4,0.3,53.5c-6.7,18.3-17.5,35-31.1,48.9
		c-3.5,3.4-6.6,7.3-10.5,10.2c0.1-8-0.2-15.9,0.2-23.9c2.8,1.6,5.3,3.8,8.3,4.9c2.3-1.7,3.9-4.2,5.8-6.4c-4.5-2.9-9.4-5-14.3-7.2
		c0-5.8,0-11.6,0-17.4c8.9,0.9,17.5,4,26,6.8c1.6-2.9,3.3-5.9,4.4-9.1c-10.1-1.6-20-4.3-30.2-4.4c-0.1-3.3-0.1-6.6,0-9.9
		c11.9-0.4,23.8,0.1,35.7,1.1c1.1-3.3,2-6.7,2.6-10.2c-12.8-0.3-25.6,1.5-38.3,2.5c0.1-2.5,0.1-5.1,0-7.6c12.9-2.8,25.9-4.9,39.1-6
		c0-2.9-0.2-5.8-0.3-8.6c-13.2,1.8-26.1,5.8-38.7,10.1c-0.1-2.4-0.1-4.8-0.1-7.3c11.9-4.8,24-9.1,36.5-11.8
		c-0.6-2.3-1.4-4.5-2.4-6.6c-12,3.1-23,8.8-34.2,14c0-2.7,0-5.4,0.1-8.1c9.4-4.6,18.7-9.2,28.3-13.3c-1.7-1.9-3.6-3.7-5.6-5.2
		c-7.6,4.4-15.3,8.8-22.7,13.4c-0.1-2.7,0-5.3,0-8c4.1-2.6,8.2-5.3,12.5-7.6c0.9-0.8,2.5-1,2.9-2.3c-2.8-1.7-5.8-3-9-3.7
		c-2.4,0.9-4.1,2.9-6.5,3.8C2180.4,95.7,2180.4,91.8,2180.4,87.9z"/>
	<path class="st0" d="M0,125.2c23.6,0,47.2-0.1,70.8,0c0,46.1,0,92.2,0,138.3c0.2,14.2,4,29.4,15,39.2c12.2,11,29.4,13.6,45.2,14.1
		c13.2,0.2,26.7-1.1,38.9-6.5c9.1-4,16.8-11.1,21-20.2c4.5-9.5,5.5-20.3,5.4-30.7c0-44.7,0-89.5,0-134.2c23.5-0.2,47,0,70.6-0.1
		c0,43.4,0,86.8,0,130.2c0.1,13-0.3,26.1-3.4,38.9c-4.7,21.5-16.6,41.8-34.6,54.9c-21.8,16.2-49.2,22.4-75.8,24.5
		c-24.1,1.2-48.6,0.6-72.1-5.2c-22.2-5.6-44-16.3-58.6-34.4C6.8,315.5,0.7,290.9,0,267.1V125.2z"/>
	<path class="st0" d="M397.2,188.5c0.1-21.1-0.3-42.3,0.2-63.4c19.9,0.4,39.7,0.1,59.6,0.2c1.4-0.2,2.3,1.2,3.3,2
		c14.3,15.1,29,29.7,43.3,44.8c15.9,16.1,31.4,32.6,47.3,48.7c15.4,16.4,31.6,32.2,46.9,48.7c0.5-18.6,0-37.2,0.2-55.8
		c0-29.4,0.1-58.9-0.1-88.3c22.1,0,44.2,0,66.4,0c0.1,81.6,0,163.1,0,244.7c-17.7-0.1-35.5,0.1-53.2-0.1
		c-49.2-50.1-98.3-100.3-147.6-150.3c-0.2,50.1,0,100.3-0.1,150.4c-22,0.1-44-0.2-66,0.1c-0.5-22.2-0.1-44.4-0.2-66.6
		C397.2,265.1,397.2,226.8,397.2,188.5z"/>
	<path class="st0" d="M815.3,197.5c0.1-24.1-0.2-48.2,0.1-72.4c24,0.2,48,0,72.1,0.1c-0.1,81.5-0.1,163.1,0,244.7
		c-24,0.1-48-0.1-72.1,0.1C815.1,312.5,815.4,255,815.3,197.5z"/>
	<path class="st0" d="M1007.7,125.2c83,0,165.9,0.1,248.9-0.1c0.2,19,0.1,38,0.1,57c-29.7,0-59.4,0-89,0
		c-0.2,62.6,0.1,125.2-0.1,187.8c-23.6-0.2-47.2,0-70.9-0.1c0-62.6,0.2-125.2-0.1-187.8c-29.4,0.1-58.9,0.1-88.4,0l-0.4-0.4
		C1007.5,162.9,1007.6,144,1007.7,125.2z"/>
	<path class="st0" d="M1374.9,125.2c76.2,0.1,152.3,0.1,228.5,0c-0.1,18.4,0.2,36.8-0.1,55.1c-52.6-0.2-105.1,0-157.7-0.1
		c-0.1,13.6,0.2,27.3-0.1,40.9c44.6,0.4,89.2,0,133.8,0.2c0,17.1,0,34.3,0,51.4c-44.6,0-89.1,0.1-133.7,0
		c-0.2,14.1,0.1,28.2-0.1,42.2c53,0.2,105.9,0,158.9,0.1c0,18.3,0,36.6,0,54.9c-76.5,0-153.1,0-229.6,0
		C1375,288.3,1374.9,206.8,1374.9,125.2z"/>
	<g>
		<path class="st0" d="M1734.8,125.2c30.1,0.1,60.2,0,90.3,0c23.7,0.2,47.5-1,71,2.4c22.4,3.1,44.8,9.4,64,21.6
			c15.4,9.6,28.2,23.5,36.3,39.8c9.2,18.4,12.8,39.2,12.4,59.6c0.1,19.5-3.5,39.3-12.3,56.8c-6.7,13.5-16.4,25.4-28.4,34.5
			c-19.7,15.2-44,23.2-68.3,27c-24.4,4-49.3,2.9-73.9,3c-30.4,0-60.9,0-91.3,0C1734.9,288.3,1734.8,206.8,1734.8,125.2z
			 M1805.8,181.7c-0.1,43.9,0,87.8-0.1,131.7c8.4,0.4,16.9,0.1,25.3,0.2c13.7-0.1,27.4,0.4,41.1-0.7c17.1-1.6,35.2-6,47.5-18.7
			c11.4-11.3,15.2-27.9,15.7-43.5c0.2-11.7-1.1-23.6-5.7-34.4c-4.1-9.5-11.2-17.7-20.1-22.9c-14.2-8.6-31.1-10.9-47.4-11.5
			C1843.3,181.6,1824.6,181.7,1805.8,181.7z"/>
	</g>
	<path class="st0" d="M2449.5,131.9c5.4,2.4,12.4,2.8,15.8,8.3c17.3,20.1,29.7,44.4,35.5,70.2c6.5,27.8,5.2,56.9-1.6,84.5
		c-11.3,46.7-37.5,88.2-67.7,125c-13.7,15.6-28,30.8-43.6,44.5c-3.5-0.1-7.1,0.2-10.6-0.2c-8.4-10.7-16.3-21.8-25.1-32
		c15.9-13.5,30.4-28.6,43.8-44.6c8.9,10,17.6,20.1,26.1,30.5c3.7-2.8,6.3-6.8,9.5-10.1c3.2-4.2,6.9-8,9.4-12.6c-0.1-2.5-2.6-4-4-5.8
		c-7.3-8.5-14.8-16.9-22.6-24.9c7.6-9.7,14.2-20.2,20.8-30.6c2.9-4.8,5.7-9.5,8.1-14.6c4,2,6.8,5.7,10.1,8.6
		c6.1,6,12.1,12.1,18,18.3c5.6-9,9.1-18.9,12.9-28.7c-8.2-8.9-16.9-17.4-26.4-25c-1.4-0.7-1-2-0.5-3.1c4.9-12.2,9.2-24.8,11.2-37.8
		c2.7,0.6,4.6,2.8,6.9,4.3c7,5.1,13.4,10.9,19.9,16.7c2-13,2.9-26.2,1.9-39.3c-7.8-6.4-15.8-12.5-24.1-18.1c-0.7-8.5-0.6-17-2-25.5
		c7.2,3.9,13.9,8.6,21.1,12.4c-3.5-13.6-9.2-26.6-16.2-38.8c-1.1-1.9-2-4-3.6-5.5c-3.7-2.2-7.8-3.6-11.6-5.5
		c-1.2-0.5-1.6-1.8-2.1-2.9C2456.2,143.4,2452.6,137.8,2449.5,131.9z"/>
	<path class="st0" d="M2484.1,159.5c3.9,0.5,6.1,4.4,8.7,6.9c19.3,21.1,32,47.9,37.1,76c5.9,30.5,3.6,62.1-4.2,92.1
		c-12.3,48.9-38.9,93.2-71.8,131h-59.3c2.8-3.3,6.2-6,9.3-9c6.9-6.8,13.4-14.1,19.7-21.4c2.1-2.2,3.6-5.1,6.3-6.6
		c7.4,9.1,14.4,18.6,21.4,28c7-7.5,13-16,19.3-24.1c-6.7-9.7-13.8-19-21.4-27.9c11.5-15.6,22-32,31.2-49.1c7.3,8,13.6,16.9,20,25.6
		c5.8-9.5,9.6-20,13-30.5c-5.8-8.8-12.5-17-19.3-25.1c5.2-13.9,9.1-28.4,11.4-43.1c7,5.7,12.5,12.9,18.6,19.4
		c2.1-14.8,2.6-29.9,1.3-44.8c-5.2-5.1-10.2-10.5-16.1-14.7c-0.6-10.1-2.1-20.1-3.4-30.1c3.9,2.8,7.6,5.8,11.6,8.6
		c-6.3-20.2-17.1-38.8-30.3-55.4C2486,163.5,2484,161.9,2484.1,159.5z"/>
	<path class="st0" d="M2532.2,232.4c3.7,1.8,4.8,6,6.4,9.5c6,14,10.9,28.5,12.8,43.6c1.9,16.3,0.1,32.8-2.1,49
		c-4,26.4-11.9,52.2-23,76.5c-8.3,18.7-18.7,36.3-29.8,53.4c-1.8,0.1-3.6,0.1-5.3,0.1c-4.2-7.4-9.2-14.4-13.3-22
		c11-16,21.7-32.4,30.4-49.8c0.2,0,0.7,0.1,1,0.1c3.6,5.1,6.6,10.6,9.8,16c2.1-2.9,3.1-6.4,4.6-9.5c3.1-7.4,6.1-14.9,8.1-22.7
		c-3.2-5.3-6.3-10.7-9.3-16.1c4.6-14.7,9.4-29.6,11.7-45c0-1.9,1.6-0.2,2,0.5c2.2,2.9,4.4,5.8,6.9,8.5c2.8-14.8,4-29.9,3.2-44.9
		c-2.4-4-5.4-7.6-8.3-11.2c-1.3-1.4-1-3.3-1.3-5C2535.9,253,2534.4,242.6,2532.2,232.4z"/>
	<path class="st0" d="M2557.6,325.3c0.5-1.6-0.3-6.7,2.5-5.3c3,25.3-2,50.7-8.2,75.2c-6.9,24.2-15.5,48.2-27.7,70.3h-22.8
		c1.1-3.4,3.5-6.2,5.3-9.3c7.4-11.6,13.6-23.8,20.1-35.9c2.1,3.4,3.9,6.9,5.5,10.5c4.7-9.3,7.6-19.4,10.9-29.2
		c2.4-5.7-4.8-10.7-2.4-16.3c5.6-14.8,9.1-30.2,11.9-45.7c1.1,0.3,1.9,1.3,2.8,2C2556.4,336.2,2557,330.7,2557.6,325.3z"/>
	<path class="st0" d="M2559.8,379.2l1.6-0.4c-2.4,29.2-7.7,58.4-18.6,85.6c-4.4,0-8.8,0-13.2,0c2.6-5.8,5.5-11.4,8.1-17.2
		c0-0.9,1.5-2.5,1.8-0.8c0.6,0.5,0.5,3,1.6,2.5C2548.6,426.1,2554.6,402.7,2559.8,379.2z"/>
	<g>
		<path class="st0" d="M2666.3,429.8c7.7-6.7,20.5-6.4,27.6,1c3.9,3.6,5.6,8.9,6.1,14v0.4c-0.5,6.9-3.9,13.9-10.2,17.3
			c-8.2,4.9-19.6,3-25.8-4.3C2657,450.2,2658,436.6,2666.3,429.8z M2674.5,430.8c-8.8,2.8-13.4,14.4-8,22.2c4.4,7.9,16.2,9.8,23,3.8
			c-1.8-0.2-3.4-0.3-5.1-0.5c-1.9-3.2-3.9-6.3-5.9-9.4c-0.6,0-1.6-0.1-2.2-0.1c0,3.2,0,6.5,0,9.7c-1.7,0-3.3,0-4.9,0
			c0-7.6,0.1-15.2,0-22.8c4.8,0,9.7-0.5,14.5,0.4c3.6,0.9,4.6,5.2,3.7,8.4c-0.5,2.6-3.4,3.4-5.4,4.7c2.6,2.3,3.3,6.8,6.6,8.2
			c3.6-3.5,4.8-9,3.7-13.8C2692.5,433.2,2682.7,427.6,2674.5,430.8z M2676.4,438.3c0,0.9-0.1,2.8-0.1,3.7c2.2-0.1,4.6,0,6.9-0.2
			c1.7,0.3,1.6-1.8,1.8-2.9C2682,438.5,2679.2,438.3,2676.4,438.3z"/>
	</g>
	<path class="st0" d="M2180.4,460.8c14.3-4.4,28.3-9.9,41.9-16.1c3.8,6.9,7.9,13.7,11.5,20.8h-53.4
		C2180.4,463.9,2180.4,462.4,2180.4,460.8z"/>
	<path class="st0" d="M2315,461.5c6.3-4,11.8-9.2,18-13.4c3.6,5.9,8,11.2,11,17.4h-34.4C2311.3,464.1,2313.1,462.7,2315,461.5z"/>
</g>
</svg>
