<?xml version="1.0" encoding="utf-8"?>
<!-- Generator: Adobe Illustrator 19.0.1, SVG Export Plug-In . SVG Version: 6.00 Build 0)  -->
<svg version="1.1" id="Layer_1" xmlns="http://www.w3.org/2000/svg" xmlns:xlink="http://www.w3.org/1999/xlink" x="0px" y="0px"
	 viewBox="-299 709 123.6 164.3" style="enable-background:new -299 709 123.6 164.3;" xml:space="preserve">
<style type="text/css">
	.st0{fill:#231F20;}
	.st1{fill:#F3C41E;}
	.st2{fill:#FFFFFF;}
</style>
<g>
	<path class="st0" d="M-178.4,712c-2-2-4.4-3-7.2-3h-103.2c-2.8,0-5.2,1-7.2,3s-3,4.4-3,7.2v97c0,2.8,1,5.2,3,7.2s4.4,3,7.2,3h103.2
		c2.8,0,5.2-1,7.2-3s3-4.4,3-7.2v-97C-175.4,716.4-176.4,714-178.4,712L-178.4,712z"/>
	<path class="st1" d="M-178.7,719.2c0-1.9-0.7-3.5-2.1-4.9c-1.3-1.4-3-2-4.9-2h-103.1c-2,0-3.6,0.7-4.9,2c-1.4,1.4-2,3-2,4.9v97
		c0,1.9,0.7,3.6,2,4.9c1.4,1.4,3,2,4.9,2h103.2c1.9,0,3.6-0.7,4.9-2c1.4-1.4,2.1-3,2.1-4.9v-97H-178.7z"/>
	<path class="st0" d="M-183,716.6c-0.8-0.7-1.6-1.1-2.6-1.1h-103.2c-1,0-1.9,0.4-2.6,1.1c-0.7,0.7-1.1,1.6-1.1,2.6v97
		c0,1,0.4,1.9,1.1,2.6c0.7,0.7,1.6,1.1,2.6,1.1h103.2c1,0,1.9-0.4,2.6-1.1s1.1-1.6,1.1-2.6v-97C-181.9,718.2-182.3,717.3-183,716.6
		L-183,716.6z"/>
	<polygon class="st1" points="-189.5,756.2 -224.8,756.2 -235.8,722.8 -247,756.2 -282.7,756.2 -253.5,776.7 -264.4,810.2 
		-236,789.8 -207,810.7 -217.7,776.4 	"/>
	<polygon class="st0" points="-201.2,759.5 -227.7,759.5 -235.9,734.5 -244.3,759.5 -271,759.5 -249.2,774.9 -257.3,799.9 
		-236,784.7 -214.4,800.3 -222.3,774.7 	"/>
	<polygon class="st2" points="-225.8,773.9 -209.8,762.5 -229.7,762.5 -235.9,743.7 -242.2,762.5 -262.4,762.5 -246,774.1 
		-252.1,793 -236,781.5 -219.7,793.3 	"/>
	<path class="st0" d="M-288.8,829.5c-2.8,0-5.2,1-7.2,3s-3,4.4-3,7.2v23.4c0,2.8,1,5.2,3,7.2s4.4,3,7.2,3h103.2c2.8,0,5.2-1,7.2-3
		s3-4.4,3-7.2v-23.3c0-2.8-1-5.2-3-7.2s-4.4-3-7.2-3L-288.8,829.5L-288.8,829.5z"/>
	<path class="st1" d="M-293.7,834.8c-1.4,1.4-2,3-2,4.9v23.4c0,1.9,0.7,3.5,2,4.9c1.4,1.4,3,2,4.9,2h103.2c1.9,0,3.6-0.7,4.9-2
		c1.4-1.4,2.1-3,2.1-4.9v-23.3c0-1.9-0.7-3.6-2.1-4.9c-1.3-1.4-3-2-4.9-2h-103.2C-290.7,832.8-292.4,833.5-293.7,834.8L-293.7,834.8
		z"/>
	<path class="st0" d="M-288.8,836.1c-1,0-1.9,0.4-2.6,1.1c-0.7,0.7-1.1,1.6-1.1,2.6v23.4c0,1,0.4,1.9,1.1,2.6
		c0.7,0.8,1.6,1.1,2.6,1.1h103.2c1,0,1.9-0.4,2.6-1.1c0.7-0.7,1.1-1.6,1.1-2.6v-23.4c0-1-0.4-1.9-1.1-2.6c-0.8-0.7-1.6-1.1-2.6-1.1
		H-288.8L-288.8,836.1z"/>
	<path class="st2" d="M-220.3,849.9v-5.3l-3.1-2.9h-8V862h4.6v-8.2h2v8.1h4.5v-8.1l-2.4-2L-220.3,849.9L-220.3,849.9z M-285,841.7
		V859l3.1,3h5.3l3-3v-17.3h-4.7v16.4h-2v-16.4H-285L-285,841.7z M-224.8,845.5v4.6h-2v-4.6H-224.8L-224.8,845.5z M-203.4,841.7h-5.5
		l-1.5,9.8h-0.4l-1.7-9.8h-5.4V862h4.2v-12.9h0.2l2,12.9h1.7l2-12.9h0.2V862h4.2L-203.4,841.7L-203.4,841.7z M-195.1,849L-195.1,849
		l-1.7-7.3h-4.6l4,11.7v8.5h4.7v-8.5l4-11.7h-4.6L-195.1,849L-195.1,849z M-267.3,861.9V858h-4.7v3.9H-267.3L-267.3,861.9z
		 M-252.5,858v3.9h4.6V858H-252.5L-252.5,858z M-254.1,844.6l-3.3-2.9h-4.9l-3,2.9v6.1l3.2,2.9l3.3,0.3v4.2h-1.9v-2.7h-4.6v3.5l3,3
		h5.1l3.1-3v-6.1l-3.2-2.9l-3.4-0.3v-4.1h1.9v2.7h4.7V844.6L-254.1,844.6z M-236.3,841.7h-6.8l-2.8,20.3h4.5l0.4-3.8h2.7l0.4,3.8
		h4.5L-236.3,841.7L-236.3,841.7z M-240.6,854.4l0.7-8.4h0.5l0.9,8.4H-240.6L-240.6,854.4z"/>
</g>
</svg>
