<?xml version="1.0" encoding="utf-8"?>
<!-- Generator: Adobe Illustrator 19.0.1, SVG Export Plug-In . SVG Version: 6.00 Build 0)  -->
<svg version="1.1" id="Layer_1" xmlns="http://www.w3.org/2000/svg" xmlns:xlink="http://www.w3.org/1999/xlink" x="0px" y="0px"
	 viewBox="0 0 168.6 122" style="enable-background:new 0 0 168.6 122;" xml:space="preserve">
<style type="text/css">
	.st0{fill-rule:evenodd;clip-rule:evenodd;fill:#FFFFFF;}
</style>
<g>
	<path class="st0" d="M167.8,116.9H160v1.9h8.6v2.8h-13v-12.2h12.8v2.8H160v2h7.8V116.9L167.8,116.9z M116.1,109.7
		c-1.2-0.5-2.7-0.7-4.5-0.7c-3.2,0.1-5.5,1-6.8,2.8c-0.7,1-1.1,2.3-1.1,3.8c0,1.4,0.4,2.6,1.2,3.6c1.3,1.9,3.5,2.8,6.8,2.8
		c2.6,0,4.5-0.5,5.8-1.6l1.4-1.6c0.6-0.9,0.9-2.1,0.9-3.3C119.9,112.6,118.7,110.7,116.1,109.7L116.1,109.7z M115.4,115.5
		c0,1.7-0.6,2.8-1.9,3.4c-0.5,0.3-1,0.4-1.7,0.4c-1.2,0-2.2-0.4-2.8-1.2c-0.6-0.7-0.9-1.6-0.9-2.6c0-1,0.2-1.9,0.8-2.6
		c0.7-0.9,1.6-1.3,2.9-1.3c1.3,0.1,2.3,0.6,2.9,1.4C115.2,113.8,115.4,114.6,115.4,115.5L115.4,115.5z M101.4,117.2h-6.9v4.4h-4.3
		v-12.2h11.9v2.8h-7.5v2.3h6.9V117.2L101.4,117.2z M143.8,112.6c-0.8,0.7-1.1,1.6-1.1,2.9c0,1,0.3,1.9,0.8,2.5
		c0.6,0.8,1.6,1.2,2.8,1.2c0.9,0,1.7-0.2,2.5-0.8c0.4-0.3,0.7-0.7,0.9-1.2l4.1,0.4l-0.7,1.5c-1.2,1.9-3.5,2.9-6.9,2.9l-3.5-0.5
		c-3-0.9-4.5-2.9-4.5-6c0-1.6,0.5-3,1.4-4.2c1.4-1.6,3.6-2.4,6.7-2.4c3.9,0,6.4,1.3,7.2,3.8l-4,0.7c-0.2-0.5-0.5-0.9-1-1.3
		c-0.6-0.4-1.3-0.6-2.1-0.6C145.4,111.6,144.5,112,143.8,112.6L143.8,112.6z M136.1,113.3c0-1.4-0.5-2.4-1.4-3.1
		c-0.7-0.5-1.9-0.8-3.4-0.8h-8.9v12.2h4.3v-4.4h2.4l2.5,4.4h4.8l-3-4.9c0.9-0.3,1.6-0.7,2-1.2C135.8,114.9,136.1,114.2,136.1,113.3
		L136.1,113.3z M131.7,113.3c0,0.8-0.6,1.1-1.8,1.1h-3.3v-2.2h3.7c0.5,0,0.8,0,1.1,0.2L131.7,113.3L131.7,113.3z M33.5,114.7
		c1.4,0.5,2.1,1.4,2.1,2.9c0,0.8-0.2,1.5-0.6,2.1c-0.9,1.4-3.1,2.2-6.4,2.2c-2.4,0-4-0.5-5-1.4c-0.7-0.6-1.1-1.4-1.3-2.6l4.3-0.2
		c0.1,0.9,1,1.4,2.7,1.4l1.5-0.3c0.4-0.3,0.6-0.5,0.6-0.9c0-0.5-0.2-0.7-0.9-0.9l-5.2-1.2c-1.6-0.6-2.4-1.6-2.4-3.1
		c0-0.9,0.3-1.6,0.9-2.4c1-1,2.8-1.5,5.1-1.5l3.7,0.5c1.4,0.5,2.3,1.5,2.7,3.1l-4.2,0.2c-0.2-0.7-0.9-1.1-2.1-1.1
		c-1.3,0-1.9,0.3-1.9,0.9l0.2,0.4c0.2,0.3,0.9,0.5,2.2,0.8L33.5,114.7L33.5,114.7z M36.4,118.4h4v3.2h-4V118.4L36.4,118.4z
		 M14.4,115.8c0,1.9-0.3,3.3-0.7,4c-1,1.5-3.1,2.3-6.5,2.3c-2.4,0-4.1-0.3-5.1-0.9c-1.4-0.7-2.1-2-2.1-3.9v-7.8h4.3v7
		c0,0.8,0.1,1.4,0.3,1.8c0.5,0.8,1.4,1.2,2.6,1.2c0.9,0,1.6-0.3,2.1-0.7c0.5-0.5,0.7-1.2,0.7-2.3v-6.9h4.4V115.8L14.4,115.8z
		 M15.2,118.4h3.9v3.2h-3.9V118.4L15.2,118.4z M78.4,109.4h-8.9v12.2h4.4v-4.4h2.3l2.6,4.4h4.8l-3.1-4.9c0.9-0.2,1.6-0.6,2.1-1.2
		c0.5-0.6,0.7-1.4,0.7-2.3c0-1.4-0.5-2.4-1.4-3.1C81,109.7,80,109.4,78.4,109.4L78.4,109.4z M77.1,114.4h-3.3v-2.2h3.6
		c0.5,0,0.9,0,1.1,0.2c0.2,0.2,0.3,0.5,0.3,0.8C78.9,114.1,78.3,114.4,77.1,114.4L77.1,114.4z M61.9,109.4h4.4v12.2h-4.4V109.4
		L61.9,109.4z M52.5,112.8l1.4,4.1h-2.8L52.5,112.8L52.5,112.8z M50,109.4l-5.3,12.2h4.8l0.6-2h4.7l0.7,2h4.7L55,109.4H50L50,109.4z
		"/>
	<path class="st0" d="M132.7,0L119,28.5l20.4-14.7L132.7,0L132.7,0z M140.7,16L84.5,56.8L87.9,67l43.4-31.5L140.7,16L140.7,16z
		 M129,40.4L88.7,69.6h17.5l13.3-9.7L129,40.4L129,40.4z M89.5,77.1c0,1.6-0.6,3.1-1.8,4.2c-1.2,1.2-2.6,1.8-4.3,1.8
		c-1.7,0-3.1-0.6-4.3-1.8c-1.2-1.2-1.8-2.6-1.8-4.2c0-1.7,0.6-3.2,1.8-4.3c1.2-1.2,2.6-1.8,4.3-1.8c1.7,0,3.2,0.6,4.3,1.8
		C88.8,74,89.5,75.4,89.5,77.1L89.5,77.1z M92.1,79.9l4.2,12.9l13.3-9.7l-11-8L92.1,79.9L92.1,79.9z M27.3,13.8l20.3,14.7L34,0
		L27.3,13.8L27.3,13.8z M35.3,35.5L78.8,67l3.4-10.2L25.9,16L35.3,35.5L35.3,35.5z M47.1,60l13.3,9.7h17.5L37.7,40.4L47.1,60
		L47.1,60z M68,75.2l-11,8l13.4,9.7l4.2-12.9L68,75.2L68,75.2z M83.3,102.3l11-7.9l-11-8l-11,8L83.3,102.3L83.3,102.3z"/>
</g>
</svg>
