<?xml version="1.0" encoding="utf-8"?>
<!-- Generator: Adobe Illustrator 19.0.1, SVG Export Plug-In . SVG Version: 6.00 Build 0)  -->
<svg version="1.1" id="Layer_1" xmlns="http://www.w3.org/2000/svg" xmlns:xlink="http://www.w3.org/1999/xlink" x="0px" y="0px"
	 viewBox="0 0 485.5 117.1" style="enable-background:new 0 0 485.5 117.1;" xml:space="preserve">
<style type="text/css">
	.st0{fill:#FFFFFF;}
</style>
<g>
	<path class="st0" d="M144.2,88.8l0.5,4.7h-3.6l-0.4-1.6c-0.1-0.4-0.1-0.6-0.4-0.7c-0.2-0.1-0.5-0.1-2.1-0.1v9.4h1.2v2.4h-8.1v-2.4
		h1.2v-9.4H131c-0.6,0.1-0.7,0.2-0.8,0.7l-0.5,1.6H126l0.5-4.7H144.2z"/>
	<polygon class="st0" points="167.5,88.8 167.5,91.1 166.3,91.1 166.3,100.4 167.5,100.4 167.5,102.8 160.6,102.8 160.6,96.7 
		155.1,96.7 155.1,102.8 148.1,102.8 148.1,100.4 149.4,100.4 149.4,91.1 148.1,91.1 148.1,88.8 155.1,88.8 155.1,94.3 160.6,94.3 
		160.6,88.8 	"/>
	<path class="st0" d="M188.1,88.8l0.6,4.4h-4.5l-0.4-1.4c-0.2-0.6-0.3-0.7-1.5-0.7h-3.6v3.4h6.1v2.1h-6.1v3.8h3.8
		c1.2,0,1.4,0,1.7-0.7l0.5-1.6h4.5l-0.5,4.7h-16.9v-2.4h1.2v-9.3h-1.2v-2.3H188.1z"/>
	<path class="st0" d="M310.4,88.8l0.5,4.7h-3.6l-0.4-1.6c-0.1-0.4-0.1-0.6-0.4-0.7c-0.3-0.1-0.5-0.1-2.1-0.1v9.4h1.2v2.4h-8.1v-2.4
		h1.2v-9.4h-1.6c-0.6,0.1-0.7,0.2-0.8,0.7l-0.5,1.6h-3.5l0.5-4.7H310.4z"/>
	<polygon class="st0" points="333.7,88.8 333.7,91.1 332.5,91.1 332.5,100.4 333.7,100.4 333.7,102.8 326.8,102.8 326.8,96.7 
		321.2,96.7 321.2,102.8 314.3,102.8 314.3,100.4 315.5,100.4 315.5,91.1 314.3,91.1 314.3,88.8 321.2,88.8 321.2,94.3 326.8,94.3 
		326.8,88.8 	"/>
	<path class="st0" d="M354.3,88.8l0.6,4.4h-4.5l-0.4-1.4c-0.2-0.6-0.3-0.7-1.5-0.7h-3.6v3.4h6.1v2.1h-6.1v3.8h3.8
		c1.2,0,1.4,0,1.7-0.7l0.5-1.6h4.5l-0.5,4.7H338v-2.4h1.2v-9.3H338v-2.3H354.3z"/>
	<path class="st0" d="M240.9,88.8l0.6,4.4H237l-0.4-1.4c-0.2-0.6-0.3-0.7-1.5-0.7h-3.6v3.4h6.1v2.1h-6.1v3.8h3.8
		c1.2,0,1.4,0,1.7-0.7l0.5-1.6h4.5l-0.5,4.7h-16.9v-2.4h1.2v-9.3h-1.2v-2.3H240.9z"/>
	<path class="st0" d="M220.4,88.8l0.6,4.4h-4.5l-0.4-1.2c-0.3-0.8-0.4-0.8-1.6-0.8h-3.6v3.4h6.5v2.2h-6.5v3.8h1.2v2.4H204v-2.4h1.2
		v-9.3H204v-2.4H220.4z"/>
	<polygon class="st0" points="274.2,88.8 274.2,91.1 273,91.1 270.2,102.8 262.7,102.8 259.4,92.1 256.2,102.8 248.6,102.8 
		245.9,91.1 244.7,91.1 244.7,88.8 250.9,88.8 253.1,100.1 256.4,88.8 262.6,88.8 265.9,100.1 267.9,88.8 	"/>
	<rect x="275.9" y="99.8" class="st0" width="3" height="3"/>
	<rect x="482.5" y="99.8" class="st0" width="3" height="3"/>
	<path class="st0" d="M369.7,102.8v-2.4h1.2v-9.3h-1.2v-2.4h11.5c2.2,0,2.7,0,4.9,1.1c1.6,0.8,1.9,1.2,1.9,2.4v1.4
		c0,1-0.1,1.2-1.9,2.2c-2,1.1-2.6,1.2-5,1.2h-4.6v3.4h1.2v2.4H369.7z M376.6,94.7h2.4c2.1,0,3.4-0.1,3.4-1.7c0-1.4-0.2-1.9-3.2-1.9
		h-2.6V94.7z"/>
	<path class="st0" d="M391.6,102.8v-2.4h1.2v-9.3h-1.2v-2.4h11.6c2.2,0,2.8,0,4.9,1c1.9,1,1.9,1.2,1.9,2.3v1.4
		c0,0.7-0.1,0.9-0.4,1.2c-0.4,0.3-1.1,0.7-3.2,1.3c1.3,0.3,2.5,0.6,3.1,0.9c0.6,0.3,0.8,0.6,0.8,1.6v2h1.2v2.4h-7v-3.9
		c0-0.6,0-0.9-0.2-1.2c-0.6-0.6-1.8-0.6-2.9-0.6h-2.9v5.7H391.6z M398.6,94.9h2.9c1.8,0,2.9-0.4,2.9-2c0-1.5-0.8-1.8-2.9-1.8h-2.9
		V94.9z"/>
	<path class="st0" d="M426.4,88.7c1.9,0,2.4,0,4.4,1.1c1.9,1,2.1,1.3,2.1,2.5v7c0,1.1,0,1.4-2,2.4c-1.8,1-2.5,1.2-4.6,1.2h-5
		c-1.7,0-2.5-0.1-4.5-1.2c-1.6-0.9-1.7-1.4-1.7-2.4v-7c0-1.1,0-1.3,2.1-2.4c2-1.1,2.6-1.1,4.9-1.1H426.4z M420.9,98.4
		c0,1.5,0.4,2,3.1,2c2.8,0,2.9-0.8,2.9-1.8v-5.4c0-1-0.1-1.3-0.7-1.7c-0.6-0.3-1.2-0.4-2.6-0.4c-0.5,0-1.9,0-2.5,0.7
		c-0.2,0.3-0.3,0.5-0.3,1.3V98.4z"/>
	<path class="st0" d="M455.5,88.8v2.4h-1.2v7.7c0,1.5-0.2,1.9-1.8,2.8c-2.2,1.2-2.9,1.2-4.6,1.2h-3.6c-2.3,0-2.8-0.2-4.5-1.1
		c-2.1-1.1-2.1-1.5-2.1-2.8v-7.8h-1.2v-2.4h7v9.8c0,0.8,0.1,1.1,0.3,1.4c0.4,0.4,1.1,0.5,2.5,0.5c0.6,0,1.4,0,1.8-0.3
		c0.5-0.3,0.6-0.5,0.6-1.6v-9.8H455.5z"/>
	<path class="st0" d="M459.8,102.8v-2.4h1.3v-9.3h-1.3v-2.4h12c2.2,0,2.8,0,4.8,1.1c2.2,1.1,2.2,1.3,2.2,2.5V99c0,1,0,1.5-1.8,2.6
		c-2,1.2-3,1.2-5.4,1.2H459.8z M466.8,100.4h3.4c2.7,0,3-0.5,3-1.7v-6c0-1.4-0.8-1.6-3-1.6h-3.4V100.4z"/>
	<polygon class="st0" points="184.8,50 184.8,55.1 181.9,55.1 182,75.1 184.8,75.1 184.8,80.2 168.9,80.2 169.3,55.1 159.4,80.2 
		151,80.2 140.9,55.1 141.3,80.2 126,80.2 126,75.1 128.9,75.1 128.9,55.1 126,55.1 126,50 150.2,50 155.1,69.9 160,50 	"/>
	<path class="st0" d="M226.9,50l10.8,25.1h3.3v5.1l-15.3,0l-2.7-7.2h-14.1l-2.8,7.1h-15.2l-0.1-5.1h3.3L204.8,50L226.9,50z
		 M221.3,68.4l-5.5-14.3l-5.5,14.3L221.3,68.4z"/>
	<path class="st0" d="M246.8,80.2v-5.1h2.9v-20h-2.9V50h29.6c5.1,0,6.7,0,11.6,2.3c4.5,2.1,4.5,2.7,4.6,4.9l0,3.6
		c0,1.5-0.2,1.9-1,2.6c-0.9,0.7-2.6,1.5-7.5,2.7c3.1,0.6,5.9,0.5,7.3,1.2c1.4,0.7,1.9,2.2,1.9,4.2v3.6h2.8v5.1h-16.5v-7.7
		c0-1.4,0-2-0.6-2.6c-1.4-1.4-4.2-1.4-6.9-1.4h-8.9v11.7H246.8z M263.3,63.8h8.9c4.3,0,7-0.9,7-4.2c0-3.2-1.8-4.5-7-4.5h-8.9V63.8z"
		/>
	<polygon class="st0" points="321.4,50 321.4,55.1 318.6,55.1 318.6,75.1 321.4,75.1 321.4,80.2 302.2,80.2 302.2,75.1 305,75.1 
		305.1,55.1 302.2,55.1 302.2,50 	"/>
	<polygon class="st0" points="379.3,50 379.3,55.1 376.5,55.1 376.5,80.3 358.1,80.3 341.5,55.1 341.9,80.3 327.5,80.2 327.5,75.1 
		330.3,75.1 330.3,55.1 327.5,55.1 327.5,50 350.9,50 365.5,72.6 365.1,50 	"/>
	<path class="st0" d="M465.9,56.4c-0.5-1.1-1-1.2-3.9-1.3h-8.1c-1.1,0-2.4-0.1-3.6,0.5c-1.5,0.6-1.5,1.3-1.5,4.2
		c0.2,1.2,0.5,1.4,3.4,1.8l20.5,2.6c6.1,0.9,6.2,1.7,6.2,4.9v3.7c0,2.7-0.4,2.9-4.1,4.9c-4.2,2.3-6.3,2.6-11.4,2.6l-27.2,0l-1.4-9.7
		h11.4l1.6,3.6c0.4,0.9,1,0.9,2.8,1h5c1.5,0,6.4,0.3,7.4,0c2.1-0.6,2.1-1.4,2.1-4.7c0-1-0.5-1.4-3-1.8l-19.9-2.6
		c-6.7-1.1-7-1.5-7-5.1v-4.2c0-1.7,0.1-2.4,4.8-4.6c4.3-2,6.6-2.2,10.4-2.2h25.7l1.5,9.5l-10.7,0L465.9,56.4z"/>
	<path class="st0" d="M427,50l1.4,9.6h-10.7l-0.9-2.9c-0.5-1.3-0.8-1.5-3.6-1.5h-11.4l0,7.3h17.5v4.6h-17.5v8.2h12
		c2.9,0,3.4-0.1,4-1.5l1.2-3.3h10.7l-1.2,10l-43.1,0v-5.2h2.9v-20h-2.9V50L427,50z"/>
	<path class="st0" d="M83.3,46.2l-4.2,2c-0.2,0.1-0.3,0.1-0.3-0.1c-0.2-0.4,0.1-1.1,0.5-1.3l0,0l1.9-0.9c0.2-0.1,0.3-0.2,0.3-0.3
		l-0.6-0.8c0-0.1-0.2-0.1-0.4,0l-3.3,1.5c-0.2,0.1-0.3,0.2-0.3,0.3c0,0,0.1,0.8,0.1,0.8c0.1,0.4,0,1.6-0.7,2c0,0,0,0-0.1,0
		c0,0,0,0,0,0c-0.2,0.1-0.3,0.3-0.3,0.4l0.7,1.4c0.1,0.1,0.4,0.1,0.8-0.1l6.8-3.2c0.4-0.2,0.6-0.4,0.6-0.6l-0.7-1.4
		C84.1,46,83.7,46.1,83.3,46.2"/>
	<path class="st0" d="M91.4,78.2c0-0.1,0.1-0.2,0.3-0.3l3.6-1.7c0.2-0.1,0.4-0.1,0.4,0l0.2,1c0,0.1-0.1,0.2-0.3,0.3L92.4,79
		C92.2,79,92.1,79,92,79L91.4,78.2z"/>
	<path class="st0" d="M47.1,14.6c0,0-3.2,2.3-2.8,4.3c0.2,0.9,2.8,0.9,2.8,0.9l0.6-4.9L47.1,14.6z"/>
	<path class="st0" d="M59.7,21.8c0,0-2.2-8.5-2.2-8.8c-0.1-0.5-0.3-0.8-0.9-1.2c-0.2-0.1-3-1.6-3-1.6l-1.4,0.3c0,0,1.2,0.6,1.5,0.9
		c0.4,0.2,0.8,0.9,0.2,1c-0.6,0.2-1.4,0.4-1.4,0.4l-1-2c0,0-2.2-0.2-3-0.2c-0.9,0-1.1,0.5-1.1,0.5l-1.4,2.2l0.8-0.2l4,2.4l-1.8,6.1
		l1.7-0.8c0.4-0.2,0.7-0.3,1.4,0.1l2.2,1.1l2.1-1.1c0,0,0,0,0,0c0.8-0.4,1.2-0.2,1.6-0.1L59.7,21.8z"/>
	<path class="st0" d="M80.4,6.6c-0.1-0.1-0.3-0.1-0.6,0c-0.6,0.1-1.4,0.2-1.7,0.2c-1.3,0.2-1.8-0.9-1.8-0.9s1.3-1.7,1.5-2
		c0.2-0.2,0-0.7-0.2-0.8c-0.6,0.3-1.2,0.6-1.7,0.8c-0.7,0.4-2,0.8-2,0.1c0-0.7,0-1.2,0-1.3c-0.2-0.7-0.8-0.7-0.8-0.7l-19.4,0
		c0,0-1,0-1.4,0c-0.4-0.1-1.1-0.3-2.1-0.7C49,0.9,47.5,0.2,47,0c-0.1,0-0.2,0-0.4,0c-0.9,0.2-4,1-4.3,3.4c-0.2,1.4,4.2,5.8,5,6.5
		c0.2,0,0.8,0,0.8,0s-1.9-3.3-1.9-3.6c0-0.1,0.7-0.6,1-0.8c0.1,0,0.1-0.1,0.2,0c0.1,0,2.4,1.3,2.4,1.3S50.3,7,50.7,7
		c2.6,0,21.9,0,22.1,0c0.3,0,0.3,0.1,0.3,0.1c0,0.3,0,0.9,0,1.4c0,0.3,0.3,0.6,0.7,0.8c1.6,0.6,4.9-1.1,6.9-2.3
		C80.7,6.9,80.5,6.7,80.4,6.6"/>
	<path class="st0" d="M29.3,112.3c0.3,0.2,0.8,0.5,0.9,0.9c0.3,1.2,0.4,1.2,0.8,1.5c0,0,0.3,0.2,0.3,0.2c0,0,0.1,0.2,0.1,0.3
		c-0.3,0.1-1.8,0.8-2.7,0.4c-0.3-0.1-0.4-0.4-0.5-0.7l-0.1-0.3c-0.3-1.3-0.4-2-1-2.3c0,0-0.1-0.2-0.1-0.3
		C27.5,111.9,28.5,111.9,29.3,112.3"/>
	<path class="st0" d="M25.9,112.4c0.3,0.3,0.7,0.7,0.7,1.1c0,1.2,0,1.3,0.4,1.6c0,0,0.2,0.3,0.3,0.3c0,0,0,0.3,0,0.3
		c-0.3,0.1-2,0.3-2.7-0.3c-0.2-0.2-0.3-0.4-0.3-0.7c0,0,0-0.1,0-0.1l0-0.3c0-0.5,0.1-0.9,0.1-1.2c0-0.6-0.1-1-0.5-1.3
		c0,0,0-0.2,0-0.3C24.3,111.5,25.3,111.9,25.9,112.4"/>
	<path class="st0" d="M6.8,69c0.3-0.1,0.6,0,0.8,0.2l0.1,0.1c1.3,1,1.8,1.3,2.5,1.1c0,0,0.2,0.1,0.3,0.2c-0.3,0.3-1.8,1.8-2.8,1.1
		c-1.3-0.8-1.4-0.9-2-0.7c0,0-0.1,0-0.2,0c0,0-0.2-0.1-0.3-0.2C5.2,70.5,5.9,69.2,6.8,69"/>
	<path class="st0" d="M20.8,62.3c-0.4-0.6-0.9-0.6-1.2-0.6c-1.6-0.1-3.1,0.7-3.2,0.7c-0.2,0.1-0.4,0-0.4,0c-1.8-0.7-3.8-1.7-4-1.8
		c0.2-0.5,0.7-1.2,0.7-1.2c0.1-0.1,5.4-7.5,16.8-7.3c1.3,0,1.8,0,2.6,0.2c-0.2,0.3-0.6,0.8-0.7,1c-3.6,4.7-6.9,14.7-7,14.9
		C21.1,65.7,21.9,64.1,20.8,62.3 M18.8,59.2c0.5,1.2,2,1.9,3.3,1.3c0.5-0.2,0.9-0.6,1.2-1c0.1-0.1,0.1-0.2,0-0.2c0,0,0,0,0,0
		c-1.1,0.4-2.2,0-2.6-0.8c-0.4-0.9,0.2-1.9,1.3-2.4c0,0,0-0.1,0-0.1c0-0.1-0.1-0.1-0.1-0.1h0c-0.5-0.1-1,0-1.5,0.2
		C18.9,56.6,18.3,58,18.8,59.2"/>
	<path class="st0" d="M17.6,108.7c0.4,0.1,1.2,0.9,1.6,1.6c0.1,0.2,0.3,0.6,0.3,0.9c0,0.1,0,0.3-0.1,0.4c-0.3,0.7-0.4,1-0.4,1.2
		c0,0.1,0,0.2,0.1,0.4c0,0,0.1,0.3,0.1,0.4c0,0-0.1,0.2-0.1,0.3c-0.3-0.1-1.9-0.5-2.4-1.3c-0.1-0.1-0.1-0.3-0.1-0.4
		c0-0.2,0-0.3,0.1-0.5l0.1-0.3c0.4-0.9,0.7-1.4,0.7-1.9c0-0.2,0-0.4-0.1-0.5C17.5,108.9,17.5,108.7,17.6,108.7"/>
	<path class="st0" d="M14.9,106.4c0.5,0.2,1.1,0.9,1.4,1.6c0.1,0.2,0.2,0.5,0.2,0.7c0,0.2,0,0.4-0.1,0.6c-0.4,0.9-0.6,1.2-0.6,1.5
		c0,0.1,0,0.3,0.1,0.5c0,0,0,0.2,0,0.3c0,0-0.1,0.2-0.2,0.3c-0.3-0.2-1.7-1-2-1.8c0-0.1,0-0.2,0-0.3c0-0.2,0-0.3,0.1-0.5l0,0
		c0.6-1,1-1.5,1-2.1c0-0.1,0-0.3-0.1-0.4C14.7,106.7,14.8,106.5,14.9,106.4"/>
	<path class="st0" d="M12.7,103.6c0.5,0.3,1,1.1,1.1,1.8c0,0.1,0.1,0.3,0.1,0.5c0,0.3-0.1,0.6-0.2,0.8c-0.7,1-0.8,1.2-0.8,1.6
		c0,0.1,0,0.2,0,0.3c0,0,0,0.2,0,0.3c0,0-0.1,0.2-0.2,0.3c-0.3-0.2-1.6-1.2-1.7-2.1c0,0,0-0.1,0-0.1c0-0.2,0.1-0.4,0.2-0.6l0,0
		c0.9-1,1.3-1.5,1.3-2.1c0-0.1,0-0.2,0-0.3C12.5,103.8,12.6,103.7,12.7,103.6"/>
	<path class="st0" d="M10.7,100.6c0.2,0.3,0.9,1.3,0.9,2.2c0,0.3-0.1,0.6-0.3,0.9c-1,1-1.1,1.2-1.1,1.7c0,0.1,0,0.1,0,0.2
		c0,0,0,0.1,0,0.2c0,0-0.2,0.2-0.2,0.2c-0.3-0.2-1.4-1.1-1.4-2c0,0,0,0,0-0.1c0-0.3,0.1-0.5,0.3-0.7l0.1-0.1c1.1-1,1.5-1.5,1.5-2
		c0-0.1,0-0.1,0-0.2C10.6,100.8,10.7,100.7,10.7,100.6"/>
	<path class="st0" d="M9.1,97.5c0.2,0.3,0.7,1.2,0.7,2.1c0,0.4-0.1,0.7-0.4,1c-1.2,1-1.2,1.1-1.2,1.8c0,0,0,0.1,0,0.2
		c0,0-0.2,0.2-0.2,0.2c-0.2-0.2-1.2-1.2-1.2-2.1c0,0,0,0,0,0c0-0.3,0.1-0.6,0.4-0.8l0,0c1.3-1,1.8-1.4,1.8-2c0,0,0-0.1,0-0.1
		C8.9,97.7,9,97.6,9.1,97.5"/>
	<path class="st0" d="M1.5,84.5c0-0.5,0.1-1.4,0.5-2c0.2-0.3,0.6-0.4,1-0.5l0.2,0C4.6,82,5,82,5.3,81.5c0.1,0,0.2,0,0.3,0v0
		c0,0.5-0.1,2.4-1.5,2.5l-0.5,0c-1,0-1.3,0.1-1.8,0.8c-0.1,0-0.2,0-0.3,0C1.5,84.8,1.5,84.6,1.5,84.5"/>
	<path class="st0" d="M5.5,84.6c0,0.2,0.1,0.5,0.1,1c0,0.7-0.2,1.6-1.1,1.8l-0.5,0.1c-0.9,0.2-1.2,0.3-1.6,1.1c-0.1,0-0.2,0-0.3,0.1
		C2,88.5,1.9,88,1.9,87.5c0-0.4,0.1-0.8,0.2-1.1C2.3,86,2.6,85.8,3,85.7l0.2-0.1c1.3-0.3,1.7-0.5,1.9-1C5.2,84.7,5.4,84.6,5.5,84.6"
		/>
	<path class="st0" d="M6.5,75.2c0.1,0,0.2,0.1,0.3,0.1c-0.1,0.4-0.6,2.3-2,2.1l-0.5-0.1c-1-0.2-1.3-0.2-1.9,0.4
		c-0.1,0-0.2-0.1-0.3-0.1c0.1-0.3,0.3-1.6,1-2.1c0.3-0.2,0.7-0.3,1.1-0.2l0.2,0C5.6,75.6,6.1,75.6,6.5,75.2"/>
	<path class="st0" d="M5.6,78.3c0.1,0,0.2,0,0.3,0c0,0.4-0.3,2.4-1.8,2.3l-0.5,0c-1-0.1-1.3-0.1-1.9,0.6c-0.1,0-0.2,0-0.3,0
		c0-0.3,0.1-1.6,0.8-2.2c0.3-0.3,0.6-0.4,1-0.4l0.2,0C4.8,78.7,5.3,78.7,5.6,78.3"/>
	<path class="st0" d="M6.6,91.1c0.1,0.2,0.3,1,0.3,1.7c0,0.6-0.1,1.1-0.6,1.4C4.9,95,4.9,95,4.7,95.6c0,0,0,0.1,0,0.2
		c0,0-0.2,0.1-0.3,0.2c-0.2-0.2-0.8-1.2-0.8-2c0-0.1,0-0.2,0-0.3c0.1-0.3,0.3-0.5,0.5-0.7c0,0,0,0,0,0c1.5-0.8,2.1-1,2.2-1.7
		C6.3,91.2,6.5,91.2,6.6,91.1"/>
	<path class="st0" d="M5.8,88C5.9,88.1,6,88.7,6,89.3c0,0.6-0.2,1.2-0.9,1.5L4.6,91c-0.9,0.4-1.2,0.5-1.4,1.3
		c-0.1,0-0.2,0.1-0.3,0.1c-0.1-0.2-0.3-0.9-0.3-1.6c0-0.3,0-0.5,0.1-0.7c0.1-0.4,0.4-0.6,0.8-0.8l0.2-0.1c1.3-0.5,1.7-0.7,1.8-1.2
		C5.5,88,5.7,88,5.8,88"/>
	<path class="st0" d="M7.7,94.3c0.1,0.3,0.5,1.2,0.5,2c0,0.4-0.1,0.9-0.5,1.1c-1.2,0.9-1.3,1-1.4,1.7c0,0,0,0.1,0,0.2
		c0,0-0.2,0.1-0.3,0.2c-0.2-0.2-1.1-1.2-1.1-2.1c0,0,0-0.1,0-0.1c0-0.3,0.2-0.5,0.5-0.7l0.1-0.1c1.4-0.9,1.8-1.2,1.9-1.9
		C7.5,94.5,7.6,94.4,7.7,94.3"/>
	<path class="st0" d="M4.5,71.9c0.3-0.1,0.6-0.1,0.9,0l0.1,0c1.5,0.7,2,0.9,2.6,0.6c0,0,0.2,0.1,0.3,0.1C8.1,73,7,74.8,5.8,74.3
		c-1.5-0.6-1.5-0.5-2.1-0.3c0,0-0.1,0.1-0.2,0.1c0,0-0.2-0.1-0.3-0.1C3.3,73.7,3.7,72.3,4.5,71.9"/>
	<path class="st0" d="M20.5,110.5c0.4,0.1,1.3,0.6,1.9,1.2c0.2,0.3,0.5,0.7,0.5,1.1c0,0,0,0.1,0,0.1c-0.1,0.5-0.1,0.9-0.1,1.1
		c0,0.3,0.1,0.4,0.2,0.6c0,0,0.2,0.3,0.2,0.3c0,0,0,0.2,0,0.3c-0.3,0-2,0-2.6-0.7c-0.1-0.2-0.2-0.4-0.2-0.6c0-0.1,0-0.2,0-0.3
		l0.1-0.3c0.2-0.7,0.3-1.3,0.3-1.7c0-0.3-0.1-0.6-0.3-0.9C20.4,110.8,20.5,110.6,20.5,110.5"/>
	<path class="st0" d="M72.6,75.8c-0.1,0-0.2-0.1-0.1-0.5c0.1-0.3,0.1-0.4,0.4-0.3c0,0,3.1,0,6.2,0.6c0.5,0.1,1,0.2,1.6,0.4
		c0-1.9-0.3-3.8-0.7-5.6c-1.3-0.4-4.3-1.2-5.7-1.4c-2.2-0.4-6.1-0.7-6.1-0.7c-0.1,0-0.2-0.1-0.2-0.5c0-0.3,0.1-0.4,0.3-0.4
		c0,0,3.1-0.1,6.3,0.4c1.3,0.2,3.5,0.7,5,1c-0.6-1.9-1.4-3.7-2.3-5.4c-1.5-0.4-3.6-1-4.8-1.2c-2.2-0.5-6.2-0.7-6.2-0.7
		c-0.1,0-0.2-0.1-0.2-0.5c0-0.3,0.1-0.4,0.3-0.4c0,0,3.2-0.2,6.4,0.4c0.8,0.1,2.1,0.4,3.2,0.6c-1.3-1.8-2.8-3.5-4.5-5
		c-1.1-0.3-2.2-0.6-2.9-0.7c-2.2-0.5-6.1-0.9-6.1-0.9c-0.1,0-0.2-0.1-0.2-0.5c0.1-0.3,0.1-0.4,0.3-0.4c0,0,2.9-0.2,6,0.3
		c-4.2-2.7-9.2-4.3-14.5-4.3c-3.8,0-7.4,0.8-10.7,2.2l0.6,0.7c0.7-0.1,5.3-1.1,5.6-1.2c0.2,0,0.2,0,0.4,0.1c0.1,0.1,0.1,0.1,0.3,0.1
		c1.2-0.1,2.9-0.2,3.4-0.3c0.2,0.1,0.9,0.4,1.2,0.5c0,0,0.1,0.1,0,0.2c-0.2,0.1-2.9,1.3-3,1.5c-0.1,0.3,0.1,0.8,0.2,0.8
		c0.8,0.4,1.7,0.8,2.2,1c0.2,0.1,0.3,0.3,1.3,1.2c0.2,0.1,0.3,0,0.4,0c0.1-0.1,0.2-0.1,0.2-0.1c0,0-0.2-0.3-0.2-0.3
		c0,0,0-0.1,0.1-0.1l1.1-0.5c0.1,0,0.1-0.1,0.1-0.3c-0.2-0.5-0.7-1.5-0.7-1.6c0.1,0,0.3-0.1,0.6-0.1c0.3-0.1,0.6,0.1,0.7,0.2
		c0.9,0.5,4.5,2.4,4.5,2.4c-0.1,0.1-0.8,0.4-1,0.5c-0.3,0-0.4-0.1-0.4,0l-3.6,3.6c-0.6,0.6,0.2,1-0.3,1.6c-0.1,0.1-0.1,0.2-0.3,0.3
		c-0.2,0.2-0.8,0.8-1.2,1.3c-0.1,0.1-0.1,0.2-0.2,0.3c-0.1,0.1-0.1,0.6,0.2,1.1c0.4,0.6,0.8,1.4,1.1,2c0.2,0.3,0.1,1.1,0.1,1.2
		c0,0.2-0.1,0.4-0.3,0.5c-0.5,0-1-0.4-1.1-0.6c0-0.1-0.3-0.4-0.6-1c0-0.1,0-0.4-0.1-0.4c-0.1-0.1-0.6-0.8-0.7-0.8
		c-0.4-0.2-1.7,0.2-2.2,0.3c-0.3-0.1-0.3-0.1-0.4-0.2c-1.2,0.3-1.6,0.4-2.2,0.7c-0.4,0.2-0.4,1.3-0.4,2.3c0.1,1.5,0.4,2.5,0.5,2.8
		c0.1,0,2.2,0,2.3-0.3c0.2-0.5,0.3-0.6,0.5-0.7c0.3-0.1,0.6,0,1.1,0c-0.1,0.3-0.2,0.7-0.3,1.1c-0.1,0.3-0.1,0.6,0.3,0.6
		c0.3,0,0.5,0,0.9,0.1c0.1,0.3,0.3,0.9,0.4,1.3c0.1,0.4,1.5,0,1.7-0.1c0.3-0.1,1.1-0.2,1.3-0.6c0.5-0.9,0.7-1,1.6-1
		c0.3,0,3.3,0,4.3,0.4c0.8,0.3,5.3,3,5.7,3.3c1.1,0.8,1,0.8,1.1,1.4c0.1,0.1,0.3,0.4,0.7,0.7c0.3-0.2,0.6,0,0.9,0.1
		c0.5,0.2,2.2,1.9,2.5,2.1c0.2,0.2,0.5,0.5,0.3,0.8l-3.7,5.4c-0.4,0.6-1.4,1.1-1.6,1l-2.6,3.7c-0.1,0.1-0.6,0.1-0.9,0.2l-4.8,6.9
		c-1.2-0.4-1.2-1.5-0.5-4.6c-0.1-0.2-0.3-0.5-0.2-0.7c0.4-2.5,0.8-4.8,1-5.8c0.1-1.7-0.5-1.9-1.6-2.5c-3.1-1.5-2.9-1.8-3.7-3.9
		c-0.1-0.1-0.1-0.3-0.1-0.4c0.1-0.8,1.2-3.1,0.9-3.7c-0.1-0.2-0.5-1-0.7-1.2c-0.2-0.2-0.3-0.3-0.7-0.2c-0.7,0.1-0.8,0.2-1.6,0.3
		c-0.6,0.1-0.6-0.3-0.7-0.8c-0.1-0.4,0-0.5-0.4-0.7c-0.5-0.2-1.1-0.4-2-0.8c-0.8-0.3-0.8,0-1.1,0.1c-0.8-0.3-2.6-0.9-3.8-1.4
		c-0.9-0.2-0.6-1.4-1.2-2.2l-1.9-2.3c-0.3-0.4-1-0.1-1.1,0.1c0.1,0.2,1.7,2.7,1.8,2.9c-0.1,0.1-0.6,0.3-0.8,0.3
		c-0.1,0-0.3-0.1-0.4-0.3c-1.4-1.6-4.7-4.3-5.1-4.8c-0.3-0.4-0.3-0.8-0.7-3c-0.4-1.7,0.3-2.3,1-3.4c0.1-0.2,0.1-0.2,0.1-0.4
		c-0.1-0.2,0-0.5,0-0.6l-0.3-2.2c-1.6,1.3-3,2.8-4.2,4.5c1.3,0,2.2,0,2.2,0c0.3,0,0.3,0.1,0.3,0.4c0.1,0.5,0,0.5-0.2,0.5
		c0,0-1.7,0.4-3.5,0.7c-1,1.6-1.9,3.4-2.6,5.3c0.3-0.1,0.7-0.1,0.9-0.2c3.1-0.5,6.3-0.3,6.3-0.3c0.3,0,0.3,0.1,0.3,0.4
		c0.1,0.5,0,0.5-0.2,0.5c0,0-3.9,0.3-6.1,0.8c-0.5,0.1-1.1,0.3-1.8,0.4c-0.5,1.8-0.8,3.7-0.9,5.7c1.3-0.2,4.1-0.8,5.6-1
		c3.1-0.4,6.2-0.2,6.2-0.2c0.3,0,0.3,0.1,0.3,0.4c0.1,0.5-0.1,0.5-0.2,0.5c0,0-3.9,0-6.1,0.4c-1.5,0.3-4.7,1.1-5.9,1.4
		c0,1.9,0.2,3.8,0.6,5.6c1.4-0.3,3.8-0.7,5.2-0.9c3.1-0.4,6.3-0.2,6.3-0.2c0.3,0,0.3,0.1,0.3,0.4c0.1,0.5-0.1,0.5-0.2,0.5
		c0,0-3.9,0.1-6.1,0.5c-1.4,0.2-3.8,0.8-5.1,1.2c0.6,2.1,1.4,4.1,2.5,6c1.3-0.3,2.9-0.5,3.9-0.7c3.1-0.5,6.3-0.2,6.3-0.2
		c0.3,0,0.3,0.1,0.3,0.4c0.1,0.5,0,0.5-0.2,0.5c0,0-3.9,0.2-6.1,0.6c-0.8,0.1-2.2,0.5-3.4,0.8c1.4,2.1,3.1,4.1,5.1,5.7
		c0.5-0.1,1-0.2,1.4-0.2c3.1-0.5,6.2-0.2,6.2-0.2c0.2,0,0.3,0.1,0.3,0.4c0.1,0.4,0,0.5-0.2,0.5c0,0-3.9,0.4-6.1,0.8c0,0-0.1,0-0.1,0
		c4.4,3.1,9.7,5,15.5,5c5.4,0,10.5-1.6,14.7-4.4c-2.2-0.5-5.4-1-5.4-1c-0.1,0-0.2-0.1-0.1-0.5c0.1-0.3,0.1-0.4,0.3-0.3
		c0,0,3.1-0.1,6.2,0.6c0.2,0,0.3,0.1,0.5,0.1c2-1.6,3.8-3.5,5.3-5.6c-2.2-0.6-6-1.3-6-1.3c-0.1,0-0.2-0.1-0.1-0.5
		c0.1-0.3,0.1-0.3,0.4-0.3c0,0,3.1,0,6.2,0.7c0.1,0,0.3,0.1,0.4,0.1c1.1-1.8,2.1-3.8,2.8-5.9c-2-0.5-4-1-4-1c-0.1,0-0.2-0.1-0.1-0.5
		c0.1-0.3,0.1-0.3,0.4-0.3c0,0,1.9,0,4.2,0.4c0.5-1.8,0.7-3.6,0.8-5.5c-0.8-0.2-1.5-0.5-2-0.6C76.4,76.3,72.6,75.8,72.6,75.8"/>
	<path class="st0" d="M8.2,68.2c0.6,0.1,0.7,0.1,1.7,1.1c0.3,0.3,0.9,0.4,1.2,0.4c0.2,0,0.5-0.1,0.8-0.2c0.2-0.3,0.3-0.7,0.5-1
		c-0.5-0.1-0.9-0.6-1.6-1.5l0-0.1c-0.2-0.2-0.4-0.3-0.7-0.3c-0.9,0-2.1,1.1-2.3,1.3c0.1,0.1,0.2,0.2,0.2,0.2
		C7.9,68.1,8.2,68.2,8.2,68.2"/>
	<path class="st0" d="M30.8,112.1c0.4,0.3,0.7,0.9,1.2,1.8l0.1,0.2c0.2,0.3,0.4,0.5,0.7,0.5c0.9,0.1,2.1-1.1,2.4-1.3c0,0,0,0,0,0
		C33.7,112.9,32.3,112.5,30.8,112.1"/>
	<path class="st0" d="M111.5,50.9c-1.5-3.4-4.3-5.8-7.4-6.7c0,0.2,0,0.4,0,0.6c0,0.5-0.1,0.9-0.2,1.3v0l0.2,0.3
		c0.1,0.1,0.9,1.2,1,2.3c1.2,0.9,2.3,2.1,2.9,3.6c1.8,4,0.4,8.4-3,9.9c-2.7,1.2-5.9,0.2-8-2.3c0.1-0.4,0.2-0.8,0.2-1.2
		c0-1.6-0.9-2.9-2.3-3.5c-0.1-1,0-2.1,0.2-3c0-0.1,0-0.2,0-0.4c0-0.1,0-0.3,0-0.4c0,0,0,0,0,0l-0.3-0.5c-0.2-0.4-1.4-2.2-0.9-3.6
		c0-0.1,0.1-0.1,0.1-0.2L93.9,47c-2,2.2-3,5.4-2.7,8.6c-0.4,0.3-0.8,0.6-1,1l-2,0.9l-3.8-8.1l-6.4,3l1.9,4c0.1,0.1,0.2,0.1,0.3,0.2
		l0.5,0.1c0.4,0,2.5,0.3,3.3,1.5c0,0.1,0.1,0.1,0.1,0.2l0.3,0c0.4,0,2.3,0.3,3.1,1.5c0,0,0,0.1,0.1,0.1l0.3,0c0.2,0,1.9,0.3,2.7,1.4
		l0.6,0c0.6,0.1,1.5,0.6,2.1,1.2c0,0,0,0,0,0c0.3,0,0.6,0,0.9-0.1c0.1,0.1,0.3,0.3,0.4,0.4c0.1,0.1,0.3,0.3,0.4,0.4c0,0,0,0,0,0
		c0.4,0.4,0.8,0.7,1.3,1.1c0,0,0,0,0,0c0.5,0.3,0.9,0.6,1.4,0.8c0,0,0,0,0,0c0.5,0.2,1,0.5,1.5,0.6c0,0,0,0,0,0
		c0.2,0.1,0.3,0.1,0.5,0.1c0,0,0,0,0,0c0.3,0.1,0.7,0.2,1,0.2c0,0,0,0,0,0c0.2,0,0.3,0.1,0.5,0.1c0,0,0,0,0,0c0.4,0,0.7,0.1,1.1,0.1
		c1.3,0,2.7-0.3,4-0.8C111.8,63.3,114,56.7,111.5,50.9"/>
	<path class="st0" d="M96.3,72.4c-0.1-0.1-0.4-0.1-0.8,0.1l-2.4,1.1c0,0-0.1-0.2-0.2-0.3c-0.1-0.2-0.1-0.8,1.1-1.4l0.7-0.3l-1.4-3
		c-0.6,0-2.4-0.2-3.3-1.3l-0.6-0.1c-0.2,0-1.6-0.4-2.4-1.4l-0.9-0.3c-0.8-0.3-1.9-0.9-2.4-1.8l-0.3,0c-0.8,0-1.9-0.5-2.6-1.2
		l-0.6,0.1c-0.5,0.1-1.4-0.2-2.1-0.7l-0.3,0.1c1.2,1.9,2.2,4.1,2.9,6.3l4-1.8l4.3,9.2l-0.1,0.1c-0.4,0.2-0.6,0.4-0.6,0.6l0.7,1.4
		c0.1,0.1,0.4,0.1,0.8-0.1l6.8-3.2c0.4-0.2,0.6-0.4,0.6-0.6L96.3,72.4z"/>
	<path class="st0" d="M79.5,57.4c0.2,0.2,0.3,0.4,0.3,0.7c0,0,0,0.1,0,0.1l0,0.3c-0.1,0.6-0.1,1-0.1,1.4c0,0.5,0.1,0.9,0.4,1.1
		c0,0,0,0.2,0,0.3c-0.4,0-1.4-0.4-2-1c-0.3-0.3-0.6-0.7-0.6-1.1v0c0-0.2,0-0.5,0-0.6c0-0.6-0.1-0.7-0.3-1c0,0-0.2-0.3-0.3-0.3
		c0,0,0-0.3,0-0.3C77.1,56.9,78.8,56.7,79.5,57.4"/>
	<path class="st0" d="M80.7,57.7c0.4,0,2,0.3,2.5,1c0.1,0.2,0.2,0.3,0.2,0.5c0,0.1,0,0.1,0,0.2l0,0c-0.2,0.8-0.3,1.3-0.3,1.7
		c0,0.4,0.1,0.6,0.3,0.9c0,0,0,0.2-0.1,0.3c-0.6,0-1.4-0.4-1.9-1c-0.2-0.2-0.5-0.6-0.5-1c0,0,0-0.1,0-0.1c0.1-0.5,0.1-0.8,0.1-1.1
		c0-0.4-0.1-0.6-0.3-0.9c0,0-0.1-0.2-0.1-0.2C80.7,58,80.7,57.8,80.7,57.7"/>
	<path class="st0" d="M84.5,59.4c0.3,0,1.7,0.3,2.2,1c0.1,0.2,0.2,0.3,0.2,0.5c0,0.1,0,0.2,0,0.3l0,0.1c-0.3,1-0.5,1.6-0.5,2
		c0,0.3,0.1,0.5,0.3,0.7c0,0,0,0.2-0.1,0.3c-0.4-0.2-2.1-0.9-2.1-2.1c0-0.1,0-0.2,0-0.3c0.2-0.8,0.3-1.2,0.3-1.4
		c0-0.3-0.1-0.4-0.3-0.7c0,0-0.1-0.1-0.1-0.1C84.4,59.7,84.4,59.5,84.5,59.4"/>
	<path class="st0" d="M87.8,61c0.3,0.1,1.6,0.4,2.1,1.2c0.1,0.2,0.2,0.4,0.2,0.7c0,0.1,0,0.3-0.1,0.4l-0.1,0.2
		c-0.2,0.8-0.4,1.3-0.4,1.6c0,0.2,0.1,0.4,0.2,0.6c0,0.1-0.1,0.2-0.1,0.3c-0.3-0.1-1.4-0.4-1.8-1.1c-0.1-0.2-0.2-0.4-0.2-0.6
		c0-0.1,0-0.3,0.1-0.4l0.2-0.6c0.1-0.5,0.2-0.8,0.2-1c0-0.3-0.1-0.6-0.4-0.9C87.7,61.3,87.8,61.1,87.8,61"/>
	<path class="st0" d="M91.2,62.5c0.4,0.1,1.3,0.7,1.8,1.4c0.2,0.3,0.4,0.6,0.4,1c0,0.1,0,0.1,0,0.2c-0.1,0.6-0.2,0.9-0.2,1.2
		c0,0.2,0.1,0.3,0.2,0.5c0,0,0.2,0.3,0.2,0.3c0,0-0.1,0.2-0.1,0.3c-0.3,0-2-0.2-2.5-0.9c-0.1-0.2-0.2-0.3-0.2-0.5
		c0-0.1,0-0.2,0.1-0.4l0.1-0.3c0.3-0.8,0.4-1.4,0.4-1.8c0-0.3-0.1-0.5-0.2-0.7C91.1,62.8,91.2,62.6,91.2,62.5"/>
	<path class="st0" d="M98.2,66.6c0.1,0.3,0.3,0.6,0.4,1l0.1,0.3c0.1,0.3,0.3,0.5,0.6,0.6c0.9,0.2,2.3-0.7,2.5-0.9l0-0.1
		C100.6,67.4,99.3,67.1,98.2,66.6"/>
	<path class="st0" d="M97.3,67.6C97,67.3,97,67.2,96.9,66c-1-0.5-1.9-1.2-2.7-2c0,0-0.1,0-0.1,0c0,0.1,0,0.3,0,0.3
		c0.4,0.3,0.5,0.7,0.5,1.5c0,0.3,0,0.6,0,1l0,0.3v0.1c0,0.3,0.1,0.6,0.3,0.7c0.7,0.6,2.4,0.3,2.7,0.2c0-0.1,0-0.3,0-0.3
		C97.6,67.8,97.3,67.6,97.3,67.6"/>
	<path class="st0" d="M76.1,59.6c0-0.2-0.1-0.5-0.1-0.8L76,57.7c0-0.3-0.2-0.6-0.5-0.7c-0.5-0.3-1.2-0.2-1.8-0.1
		C74.6,57.7,75.4,58.7,76.1,59.6"/>
	<path class="st0" d="M102.2,55.8c0.1,0.3,0.7,1.3,0.7,2.1c0,0.2,0,0.3-0.1,0.5c-0.1,0.3-0.3,0.5-0.7,0.6l-0.3,0.1
		c-1.3,0.4-2,0.6-2.2,1.2c0,0-0.2,0.1-0.3,0.1c-0.1-0.2-0.1-0.5-0.1-0.8c0-0.5,0.1-1,0.2-1.5c0.1-0.4,0.4-0.8,0.8-1
		c1.1-0.5,1.2-0.5,1.4-0.9c0,0,0.2-0.3,0.2-0.3C101.9,55.9,102.1,55.8,102.2,55.8"/>
	<path class="st0" d="M106.3,53.9c0.2,0.2,1,1.4,1,2.2c0,0.1,0,0.2,0,0.3c-0.1,0.3-0.3,0.5-0.6,0.6l-0.3,0.1
		c-1.3,0.5-1.9,0.8-2.1,1.5c0,0-0.2,0.1-0.3,0.2c-0.1-0.2-0.2-0.8-0.2-1.3c0-0.3,0-0.6,0.1-0.9c0.1-0.4,0.3-0.9,0.7-1.1
		c1.1-0.6,1.1-0.6,1.3-1.1c0,0,0.1-0.3,0.1-0.4C106,54,106.2,53.9,106.3,53.9"/>
	<path class="st0" d="M103.1,59.9c0,0-0.3,0.3-0.3,0.3c-0.3,0.3-0.4,0.4-1.6,0.5c-0.4,0-0.8,0.3-1,0.6c0.1,0.1,0.2,0.1,0.4,0.2
		c1,0.4,2,0.5,3,0.3c0-0.1,0-0.2,0-0.4c0-0.6-0.1-1.3-0.2-1.5C103.3,59.8,103.1,59.9,103.1,59.9"/>
	<path class="st0" d="M107.5,58c-0.2,0.2-0.4,0.3-1,0.5l-0.6,0.2c-0.4,0.2-0.7,0.6-0.8,1c-0.2,0.5-0.3,1.1-0.3,1.5c0,0,0,0,0,0
		C106.1,60.6,107.1,59.4,107.5,58"/>
	<path class="st0" d="M99,48.9c0.1,0.2,0.6,1,0.6,1.8c0,0.1,0,0.2,0,0.3c-0.1,0.4-0.3,0.6-0.6,0.9l-0.5,0.3
		c-0.9,0.5-1.1,0.7-1.2,1.6c-0.1,0-0.2,0.1-0.3,0.2c-0.2-0.2-0.8-1.1-0.8-2c0-0.1,0-0.2,0-0.3c0.1-0.4,0.3-0.7,0.6-0.9l0.2-0.1
		c1.2-0.7,1.6-1,1.6-1.6C98.7,49,98.9,48.9,99,48.9"/>
	<path class="st0" d="M98.3,45.5c0.1,0.2,0.2,0.6,0.2,1c0,0.4,0,0.9-0.2,1.2c-0.1,0.4-0.3,0.8-0.8,1c-1.1,0.5-1.2,0.6-1.3,1
		c0,0-0.1,0.3-0.2,0.4c0,0-0.2,0.1-0.3,0.1c-0.2-0.3-0.8-1.3-0.8-2.2c0-0.1,0-0.3,0.1-0.4c0.1-0.3,0.3-0.5,0.6-0.6l0.3-0.1
		c1.3-0.4,1.9-0.7,2.1-1.3C98.1,45.6,98.2,45.5,98.3,45.5"/>
	<path class="st0" d="M103.4,47.2c0.2,0.2,0.7,1,0.7,1.8c0,0.1,0,0.2,0,0.2c-0.1,0.4-0.2,0.7-0.6,0.9c0,0-0.5,0.3-0.5,0.3
		c-0.8,0.6-1.1,0.7-1.1,1.6c-0.1,0-0.2,0.1-0.3,0.2c-0.2-0.2-0.9-1.1-0.9-2c0-0.1,0-0.1,0-0.2c0.1-0.4,0.3-0.7,0.6-0.9l0.2-0.1
		c1.2-0.8,1.5-1,1.5-1.6c0,0,0,0,0,0C103.1,47.3,103.3,47.2,103.4,47.2"/>
	<path class="st0" d="M104.4,50.4c0.2,0.2,1.3,1.4,1.3,2.3c0,0,0,0.1,0,0.1c0,0.3-0.2,0.5-0.5,0.7c0,0-0.3,0.2-0.3,0.2
		c-1.2,0.7-1.8,1.1-1.8,1.8c0,0-0.2,0.1-0.3,0.2c-0.2-0.3-0.5-1.1-0.5-1.9c0-0.1,0-0.2,0-0.3c0-0.4,0.2-0.9,0.5-1.2
		c1-0.7,1-0.8,1.1-1.2c0,0,0.1-0.3,0.1-0.4C104.1,50.6,104.3,50.5,104.4,50.4"/>
	<path class="st0" d="M100.1,52.2c0.2,0.2,1.2,1.4,1.2,2.3c0,0.1,0,0.1,0,0.2c0,0.3-0.2,0.5-0.5,0.7l-0.3,0.2
		c-1.2,0.7-1.8,1-1.9,1.7c0,0-0.2,0.1-0.3,0.2c-0.2-0.3-0.4-1-0.4-1.8c0-0.2,0-0.3,0-0.4c0-0.4,0.2-0.9,0.6-1.2
		c1-0.7,1.1-0.7,1.2-1.2c0,0,0.1-0.3,0.1-0.4C99.9,52.4,100,52.2,100.1,52.2"/>
	<path class="st0" d="M99,43.8c0-0.7,0.3-1.5,0.9-1.9c0.3-0.2,0.7-0.3,1-0.4l0.2-0.1c0.3-0.1,0.6,0,0.9,0.2c0.2,0.1,0.4,0.3,0.4,0.5
		c0.1,0.2,0.1,0.4,0.1,0.5c0,0.3-0.2,0.4-0.7,0.6l-0.1,0c-1.4,0.5-2,0.6-2.3,1.3c0,0-0.2,0.1-0.3,0.1C99,44.4,99,44.1,99,43.8"/>
	<path class="st0" d="M94.6,45.4c0-0.7,0.3-1.5,0.9-1.9c0.3-0.2,0.7-0.3,1-0.4l0.2-0.1c0.3-0.1,0.6,0,0.9,0.2
		c0.2,0.1,0.4,0.3,0.4,0.5c0.1,0.2,0.1,0.4,0.1,0.5c0,0.3-0.2,0.4-0.7,0.6l-0.1,0c-1.4,0.5-2,0.6-2.3,1.3c0,0-0.2,0.1-0.3,0.1
		C94.6,46,94.6,45.7,94.6,45.4"/>
	<path class="st0" d="M102.8,43.6c0.1,0.2,0.2,0.7,0.2,1.2c0,0.3,0,0.7-0.1,1c-0.1,0.4-0.3,0.9-0.7,1.1c-1.1,0.6-1.1,0.6-1.3,1
		c0,0-0.1,0.3-0.1,0.4c0,0-0.2,0.1-0.3,0.2c-0.2-0.2-0.9-1.4-0.9-2.2c0-0.1,0-0.2,0-0.3c0.1-0.3,0.3-0.5,0.6-0.6l0.3-0.1
		c1.3-0.5,1.9-0.8,2.1-1.4C102.5,43.7,102.7,43.6,102.8,43.6"/>
	<path class="st0" d="M3.5,96.7c0-0.1-0.1-0.2-0.3-0.4c-0.7,0.8-1.4,1.5-1.8,2c-0.3,0.4-1.7,1.2-1.4,1.8h0c0.2,0.5,1.8,0.1,2.3,0.1
		c0.7,0,1.9,0,3,0C5,99.8,3.9,98.5,4,97.3L3.5,96.7z"/>
	<polyline class="st0" points="7.1,88.9 7.1,88.9 7.1,88.9 	"/>
	<path class="st0" d="M11.7,66.4c0.4,0.1,0.5,0.2,1.1,1.2c0.4-0.8,0.9-1.6,1.4-2.4C14,65.1,13.9,65,13.7,65c-0.9-0.2-2.2,0.8-2.5,1
		c0,0.1,0.1,0.3,0.2,0.3C11.4,66.3,11.7,66.4,11.7,66.4"/>
	<path class="st0" d="M18.5,77.7c0.5-3.3,1.2-7,1.8-9.9c0-0.1,0-0.2,0-0.2c0,0,0-0.1,0-0.1c0-0.1,0-0.2,0.1-0.4v0c0,0,0-0.2,0-0.4
		c0-0.2,0-0.5-0.1-0.7c-0.2-0.8-0.2-2.2-0.9-2.7c-0.6-0.4-2.4-0.1-2.7,0c-0.3,0.1-0.7,0.8-0.7,0.8c-0.2,0.4-0.5,0.7-0.7,1.1
		c-1,1.7-2,3.4-2.8,5.1c-3.1,6.4-4.9,13-5.8,17.3c0.1,0.4,0.2,0.7,0.3,1.1c0,0,0,0,0,0c0.2,0,0.3-0.1,0.5-0.1c0.2,0,0.3,0,0.5,0
		l0.1-0.2c0.4-0.7,1.6-1.5,2.7-1.8c0.1,0,0.2-0.1,0.3-0.1l0.1-0.2c0.3-0.7,1.4-1.6,2.5-2c0.2-0.1,0.5-0.1,0.7-0.2
		c0.3-0.7,1.1-1.7,2-2.2c0.1-0.1,0.3-0.1,0.4-0.2c0.1-0.8,0.8-1.9,1.5-2.6c0,0,0,0,0.1,0L18.5,77.7z"/>
	<path class="st0" d="M23.2,71c0.1,0.3,0.6,1.3,0.6,2.1c0,0.2,0,0.4-0.1,0.6c-0.1,0.3-0.4,0.5-0.7,0.5l-0.3,0.1
		c-1.3,0.3-2,0.5-2.2,1.1c0,0-0.2,0.1-0.3,0.1c0-0.1-0.1-0.4-0.1-0.6c0-0.5,0.1-1.1,0.3-1.6c0.1-0.4,0.4-0.8,0.9-1
		c1.2-0.4,1.2-0.4,1.4-0.8c0,0,0.2-0.3,0.2-0.3C23,71.1,23.2,71.1,23.2,71"/>
	<path class="st0" d="M17,82.8c0.3-0.2,0.8-0.4,1.3-0.2c1.2,0.4,1.2,0.4,1.6,0.2c0,0,0.3-0.1,0.4-0.2c0,0,0.2,0.1,0.3,0.1
		c-0.1,0.3-0.4,2-1.2,2.4c-0.3,0.1-0.5,0.2-0.9,0L18.2,85c-1.3-0.6-1.9-0.8-2.5-0.5c0,0-0.2-0.1-0.3-0.1
		C15.5,84.1,16.2,83.2,17,82.8"/>
	<path class="st0" d="M14.1,85.3c0.4-0.1,0.9-0.2,1.3,0c1.1,0.6,1.1,0.6,1.6,0.5c0,0,0.3-0.1,0.4-0.1c0,0,0.2,0.1,0.3,0.2
		c-0.1,0.3-0.7,1.9-1.6,2.2c-0.3,0.1-0.6,0-0.9-0.1c0,0-0.3-0.2-0.3-0.2c-1.1-0.7-1.7-1.1-2.3-0.9c0,0-0.2-0.1-0.3-0.2
		C12.5,86.2,13.3,85.6,14.1,85.3"/>
	<path class="st0" d="M11.1,87.6c0.5-0.1,1-0.1,1.3,0.1c1,0.7,1.1,0.7,1.5,0.6c0,0,0.3,0,0.4-0.1c0,0,0.2,0.1,0.3,0.2
		c-0.2,0.3-0.9,1.8-1.8,2c-0.3,0.1-0.6,0-0.8-0.2L11.6,90c-1-0.8-1.5-1.3-2.2-1.1c0,0-0.2-0.1-0.3-0.2C9.4,88.4,10.3,87.8,11.1,87.6
		"/>
	<path class="st0" d="M21.9,79.3c0,0,0.3-0.2,0.3-0.2c0,0,0.3,0,0.3,0c0,0,0,0.1,0,0.2c0,0.6-0.1,1.9-0.7,2.4
		c-0.2,0.2-0.5,0.3-0.9,0.2l-0.3-0.1c-1.3-0.3-2-0.4-2.5,0.1c0,0-0.2,0-0.3,0c0-0.4,0.5-1.4,1.2-1.9c0.3-0.3,0.7-0.6,1.2-0.5
		C21.5,79.5,21.5,79.5,21.9,79.3"/>
	<path class="st0" d="M23.6,75.2c0,0.2,0.1,0.7,0.1,1.3c0,0.5-0.1,1-0.3,1.4c-0.2,0.2-0.5,0.3-0.8,0.3c0,0-0.3,0-0.3,0
		c-1.4,0-2,0-2.5,0.5c0,0-0.2,0-0.3,0c0,0,0,0,0,0c0-0.4,0.3-1.4,0.8-2.1c0.3-0.4,0.7-0.7,1.1-0.7c1.2-0.1,1.3-0.1,1.6-0.4
		c0,0,0.2-0.2,0.3-0.3C23.3,75.2,23.5,75.2,23.6,75.2"/>
	<path class="st0" d="M21.1,69.3c-0.1,0.7-0.3,1.4-0.4,2.2c0.3-0.3,0.8-0.6,1.4-1l0.3-0.2c0.3-0.2,0.5-0.4,0.5-0.7c0,0,0-0.1,0-0.1
		c0-0.9-1.1-2-1.3-2.2L21.1,69.3z"/>
	<path class="st0" d="M8.3,92.3c0.2,0.2,0.5,0.3,0.8,0.3c0.9-0.1,1.8-1.5,2-1.8c-0.1-0.1-0.2-0.2-0.3-0.2c0,0-0.4,0-0.4,0
		c-0.4,0-0.5,0-1.4-0.8c-0.4-0.3-0.9-0.3-1.3-0.2c-0.2,0-0.4,0.1-0.5,0.1l0.3,0.9c0.1,0.1,0.2,0.6,0.4,1.3C7.9,92,8,92,8.1,92.1
		L8.3,92.3z"/>
	<path class="st0" d="M31.8,95.7c0.3,0.2,1.6,1.1,1.8,2c0,0.1,0,0.1,0,0.2c0,0.2-0.1,0.4-0.2,0.5l0,0c-0.8,1-1.1,1.5-1.1,2
		c0,0.1,0,0.2,0.1,0.3c0,0-0.1,0.2-0.2,0.3c-0.5-0.3-1-1-1.2-1.7c0-0.2-0.1-0.4-0.1-0.6c0-0.2,0-0.5,0.2-0.7
		c0.6-0.9,0.7-1.2,0.7-1.5c0-0.1,0-0.2,0-0.4c0,0,0-0.2,0-0.2C31.6,95.9,31.7,95.8,31.8,95.7"/>
	<path class="st0" d="M27.5,90.8c0.5,0.3,0.9,1.1,1,1.8c0,0.1,0,0.3,0,0.4c0,0.3-0.1,0.6-0.3,0.8c-0.9,1.1-0.9,1.2-0.9,1.8
		c0,0,0,0.2,0,0.3c0,0-0.1,0.2-0.2,0.2c-0.3-0.2-1.5-1.3-1.5-2.1c0,0,0,0,0-0.1c0-0.2,0.1-0.4,0.3-0.6l0,0c0.9-1,1.4-1.4,1.4-2
		c0-0.1,0-0.1,0-0.2C27.3,91,27.4,90.8,27.5,90.8"/>
	<path class="st0" d="M26.4,87.8c0.3,0.4,0.5,1.1,0.5,1.8c0,0.1,0,0.2,0,0.2c0,0.4-0.2,0.8-0.5,1.1c-1.1,0.8-1.1,0.9-1.3,1.5
		c0,0-0.1,0.2-0.1,0.2c0,0-0.2,0.1-0.3,0.2c-0.2-0.3-1-1.4-1-2.2c0-0.1,0-0.2,0-0.2c0-0.3,0.2-0.5,0.4-0.6l0,0
		c1.3-0.8,1.8-1.1,1.9-1.8C26.2,87.9,26.3,87.8,26.4,87.8"/>
	<path class="st0" d="M26.3,84.6c0,0.1,0.1,0.3,0.1,0.5c0,0.5-0.1,1.2-0.3,1.7c-0.2,0.3-0.4,0.8-0.9,0.9c-1.2,0.4-1.2,0.4-1.4,0.8
		c0,0-0.2,0.3-0.2,0.3c0,0-0.2,0.1-0.3,0.1c-0.1-0.2-0.6-1.2-0.6-2c0-0.2,0-0.4,0.1-0.6c0.1-0.3,0.3-0.4,0.7-0.5l0.3-0.1
		c1.3-0.3,2-0.4,2.3-1.1C26.1,84.7,26.2,84.6,26.3,84.6"/>
	<path class="st0" d="M29.4,93.4c0.3,0.1,1.5,0.8,1.7,1.6c0,0.1,0,0.2,0,0.2c0,0.2-0.1,0.4-0.2,0.6l-0.1,0.1
		c-0.8,1.1-1.1,1.6-1.1,2.1c0,0.1,0,0.2,0.1,0.4c0,0-0.1,0.2-0.2,0.2c-0.3-0.3-1.3-1.2-1.3-2.2c0-0.2,0.1-0.4,0.2-0.6
		c0.6-0.9,0.8-1.2,0.8-1.6c0-0.1,0-0.3-0.1-0.4c0,0,0-0.1,0-0.2C29.2,93.6,29.3,93.4,29.4,93.4"/>
	<path class="st0" d="M26.6,78.6l-0.1-0.1c-0.3-0.2-0.6-0.2-0.9-0.1c-0.8,0.4-1.3,1.9-1.4,2.3c0.1,0,0.3,0.1,0.3,0.1
		c0,0,0.4-0.1,0.4-0.1c0.4-0.2,0.5-0.1,1.6,0.3c0.1,0.1,0.3,0.1,0.4,0.1C26.8,80.3,26.7,79.4,26.6,78.6"/>
	<path class="st0" d="M27.1,81.8c-0.5,0.4-1.2,0.3-2.5,0l-0.3-0.1c-0.3-0.1-0.6,0-0.8,0.2c-0.6,0.5-0.7,1.8-0.7,2.4
		c0,0.1,0,0.2,0,0.2c0.1,0,0.3,0,0.3,0c0,0,0.3-0.2,0.3-0.2c0.3-0.3,0.4-0.3,1.6-0.1c0.5,0.1,0.9-0.2,1.2-0.5
		c0.4-0.4,0.7-0.9,0.9-1.3C27.2,82.2,27.1,82,27.1,81.8"/>
	<path class="st0" d="M36.9,105.2c0.1,0,0.2-0.1,0.2-0.1c0.3-0.2,0.5-0.4,0.5-0.7c0-0.1,0-0.1,0-0.2c0-0.9-1-2-1.2-2.2
		c-0.1,0-0.2,0.2-0.3,0.2c0,0-0.1,0.4-0.1,0.4c-0.1,0.4-0.1,0.5-1.1,1.1c-0.1,0-0.1,0.1-0.2,0.2C35.5,104.3,36.2,104.8,36.9,105.2"
		/>
	<path class="st0" d="M33.2,103c0.3,0.2,0.5,0.3,0.8,0.5c0.1-0.6,0.6-1,1.5-1.8l0.2-0.2c0.2-0.2,0.3-0.4,0.3-0.7c0,0,0,0,0-0.1
		c-0.1-0.9-1.4-1.9-1.7-2.1c-0.1,0.1-0.2,0.2-0.2,0.2c0,0,0,0.4,0,0.4v0.1c0,0.4-0.1,0.5-0.9,1.3c-0.3,0.3-0.3,0.7-0.3,1
		c0,0.1,0,0.2,0,0.3C33,102.2,33.1,102.6,33.2,103"/>
	<path class="st0" d="M27.3,84.2c0.1,0.3,0.1,0.6,0.1,0.9c0,0.6-0.1,1.2-0.3,1.8c0.6,0.6,1,1.8,0.9,2.8c0.6,0.4,1.1,1.1,1.4,1.9
		l1.4-0.6c-1.4-2.2-2.5-4.7-3.2-7.3c0,0,0,0.1,0,0.1C27.5,84,27.4,84.1,27.3,84.2"/>
	<path class="st0" d="M99.7,31c0,0,0.1-0.5-0.5-0.8c0,0-0.2-0.1-0.5-0.2c-5-2.1-18-9-24-12.1c-2.1-1.1-3.4-1.7-3.4-1.7
		c-0.1,0-1.6-0.6-2.4,0c-0.1,0.1-2.8,1.9-2.8,1.9S66,18,66,18.2c0.1,0.6,0.3,2.4-0.2,2.8c-0.6,0.5-6,1.5-6,1.5l-0.7,1l-1.4-0.7
		c-0.3-0.1-0.6-0.2-1.2,0l-2.3,1.2l-2.3-1.2c-0.6-0.3-0.9-0.2-1.2,0l-1.4,0.7l-0.7-1c0,0-5.4-1-6-1.5c-0.5-0.4-0.3-2.2-0.2-2.8
		c0-0.2-0.1-0.3-0.1-0.3s-2.7-1.8-2.8-1.9c-0.9-0.6-2.3-0.1-2.4,0c0,0-1.3,0.7-3.4,1.7c-6,3.2-19,10-24,12.1
		c-0.3,0.1-0.4,0.2-0.5,0.2C8.6,30.5,8.7,31,8.7,31l0,0.2c3.3,2.4,4.7,3.2,9,3.2l1.1,0c1,0,2.2,0,3.5-0.1c0.2-0.1,0.5-0.1,0.7-0.3
		c1.5-0.9,11.1-7.6,11.3-7.7c0.3-0.2,0.6-0.3,0.8-0.2c0.1,0,0.3,0.2,0.4,0.2c0,0,0.5,0.3,0.3,0.5c-0.1,0.2-8.3,7.6-8.3,7.6h3.6
		c0.1,0,1.5,0.1,2.5-0.8c0.9-0.7,4.4-4.2,4.6-4.3c0.3-0.2,0.5-0.2,0.7-0.2c0.3,0.1,0.8,0.4,0.8,0.4s0.2,0.1,0.1,0.3
		c-0.1,0.2-4.2,5.7-4.2,5.7s0.1,1.2,3.3,1.8c1.2,0.2,3.1,0.1,5.3,0.1c0,0,1.4-4,1.5-4.3c0.1-0.3,0.3-0.2,0.4-0.2
		c0.1,0,0.3,0,0.9,0.2c0.2,0.1,0.3,0.4,0.4,0.8l1.3,4.8c0,0.2-0.1,0.9-0.8,2.1c-0.9,1.3-5.6,7.6-5.8,7.8c-0.2,0.2,0.2,0.7,0.3,0.9
		l0.6,0.7c0.4,0.5,0.7,0.6,1,0.5h0c0,0,0,0,0.1,0c1.1-0.4,2.1-0.8,3.2-1.1l2.8-4.8c0.1-0.2,0.4-0.1,0.4-0.1s0.5,0.1,0.8,0.3
		c0.1,0.1,0.2,0.4,0.2,0.6c0,0.1-0.5,2-0.8,3.4c1-0.1,2.1-0.2,3.1-0.2c1.4,0,2.7,0.1,4,0.2c-0.1-0.5-0.8-3.3-0.8-3.4
		c-0.1-0.2,0-0.5,0.2-0.6c0.3-0.2,0.8-0.3,0.8-0.3s0.2-0.1,0.4,0.1l2.8,4.8c1,0.3,2.1,0.6,3.1,1c0.1,0,0.2,0.1,0.2,0.1h0
		c0.3,0,0.6,0,1-0.5l0.6-0.7c0.1-0.2,0.6-0.7,0.3-0.9c-0.2-0.2-4.9-6.6-5.8-7.8c-0.7-1.2-0.8-1.9-0.8-2.1l1.3-4.8
		c0.1-0.3,0.1-0.7,0.4-0.8c0.6-0.2,0.8-0.2,0.9-0.2c0.1,0,0.3-0.1,0.4,0.2c0.1,0.3,1.5,4.3,1.5,4.3c2.2,0,4.1,0.1,5.3-0.1
		c3.2-0.6,3.3-1.8,3.3-1.8s-4-5.5-4.2-5.7c-0.1-0.2,0.1-0.3,0.1-0.3s0.5-0.3,0.8-0.4c0.1,0,0.4,0,0.7,0.2c0.2,0.2,3.7,3.6,4.6,4.3
		c1,0.9,2.5,0.8,2.5,0.8h3.6c0,0-8.2-7.5-8.3-7.6c-0.2-0.2,0.3-0.5,0.3-0.5c0,0,0.3-0.2,0.4-0.2c0.1-0.1,0.4,0,0.8,0.2
		c0.2,0.1,9.9,6.8,11.3,7.7c0.2,0.1,0.4,0.2,0.7,0.3c1.4,0.1,2.5,0.1,3.5,0.1l1.1,0c4.3-0.1,5.7-0.8,9-3.2L99.7,31z"/>
	<path class="st0" d="M54.7,108.5c-5.9-0.5-11.7-3.3-15.2-4.9c-0.1-0.1-0.3-0.1-0.4-0.2c0,0.3,0.1,1,0.2,1.4
		c0.1,0.4,0.9,3.1,1.4,3.2c0.8,0.2,4.8,1.1,7.7,0.9c0.2,0.6-0.1,1.1-2.4,1.3c-2.2,0.2-6.7,0.1-6.9,0c0-0.3-0.1-2.6-0.8-3
		c-0.4-0.3-0.9-0.6-1.4-0.9c-0.2-0.1-0.5-0.3-0.7-0.4c-0.1-0.1-0.2-0.1-0.3-0.2c0,0-0.1,0-0.1-0.1c-5.3-3.2-12-7.3-12.3-9.4
		c-0.1-0.7,0.3-1.7,0.8-2.2l-0.4-0.5c-0.2-0.3-1.3-1.9-1.2-3.2c0,0,0,0,0-0.1h0l-0.4-0.7c-0.2-0.4-1.1-2.2-0.5-3.5l-0.6,0.3
		c-0.4,0.1-0.9,0.1-1.3-0.1c-0.4,0.2-0.8,0.2-1.2,0.2c-0.3,0.7-1,2.2-2.2,2.6c-0.3,0.1-0.6,0.1-0.9,0.1c-0.3,0.6-1.2,2.1-2.5,2.4
		c-0.3,0.1-0.7,0.1-1,0c-0.3,0.6-1.4,2.1-2.7,2.2c-0.2,0-0.4,0-0.7,0l0,0.1c0.1,0.2,0.6,1.1,0.7,2.2l0.6,0.9
		c0.1,0.2,0.7,1.1,0.9,2.1l0.7,0.9c0.5,0.6,1,1.5,1.1,2.5l0.5,0.3c0.5,0.3,0.9,0.7,1.2,1.3c3.6,2,9.1,4.8,15.3,6.8
		c2,0.6,4.1,1.2,6.2,1.6h0c1.2,0.2,2.4,0.4,3.7,0.6c0,0,0.2,0,0.1,0.5c-0.1,0.7-0.9,3.4-0.9,3.5c0.2,0.1,7.7,2,15.5-6.2
		c1.1-1.1,1.3-1.5,1.6-2.1C55.2,108.6,54.9,108.5,54.7,108.5"/>
</g>
</svg>
