<svg id="_Layer_" data-name="&lt;Layer&gt;" xmlns="http://www.w3.org/2000/svg" viewBox="0 0 200 45.68"><defs><style>.cls-1{fill:#134b91;}</style></defs><title>Boeing-Logo</title><path class="cls-1" d="M30.43,27.75a16,16,0,0,0-5.64-20C27.35,5.09,30.12,2.49,33.07,0a71.65,71.65,0,0,0-9.71,6.88A16,16,0,0,0,3.87,31.43C.81,38,.28,43.36,3,45.15c2.88,1.92,9.16-1.56,12.92-7.24,0,0-5.82,5.25-9,4.05-2-.75-2-3.76-.35-8.07a15.95,15.95,0,0,0,20.65-1.52l.57,1.07c7-.56,27.73-1.11,27.73-1.11C55.47,31.33,41.71,32.23,30.43,27.75ZM1.92,21A14.05,14.05,0,0,1,21.79,8.24a76.3,76.3,0,0,0-17,21.3A14,14,0,0,1,1.92,21Zm14,14a14,14,0,0,1-8.69-3c2.78-6.27,8.45-14.69,16.17-22.91A14.06,14.06,0,0,1,28.67,27,25.89,25.89,0,0,1,22,22.65l4.24,8A14,14,0,0,1,16,35.06Z"/><polygon class="cls-1" points="125.66 19.55 128.25 16.1 119.2 16.1 121.43 13.14 130.49 13.14 133.09 9.68 115.01 9.68 102.57 26.19 120.66 26.19 123.25 22.74 114.2 22.74 116.59 19.55 125.66 19.55 125.66 19.55"/><polygon class="cls-1" points="138.22 9.68 125.78 26.19 134.8 26.19 147.24 9.68 138.22 9.68 138.22 9.68"/><polygon class="cls-1" points="168.28 9.68 161.98 18.05 160.04 9.68 152.99 9.68 140.55 26.19 146.52 26.19 152.77 17.9 154.69 26.19 161.81 26.19 174.25 9.68 168.28 9.68 168.28 9.68"/><path class="cls-1" d="M197.79,9.68H183.28a7.59,7.59,0,0,0-6.07,3l-7.49,9.94a2.22,2.22,0,0,0,1.76,3.54H186a7.61,7.61,0,0,0,6.08-3l1.8-2.38H196l2.62-3.48H187.47L184,22a2,2,0,0,1-1.57.79h-2.56a.57.57,0,0,1-.57-.58.55.55,0,0,1,.11-.34l5.95-7.9a2,2,0,0,1,1.58-.78h2.55a.57.57,0,0,1,.58.57.62.62,0,0,1-.12.35l-1,1.28h9l1.6-2.12a2.22,2.22,0,0,0-1.77-3.54Z"/><path class="cls-1" d="M107.61,11.9a2.21,2.21,0,0,0-2.21-2.22H90.9a7.61,7.61,0,0,0-6.08,3l-7.49,9.94a2.22,2.22,0,0,0,1.77,3.54H93.6a7.61,7.61,0,0,0,6.08-3l7.49-9.94a2.2,2.2,0,0,0,.44-1.32ZM97.52,14.06l-6,7.89a2,2,0,0,1-1.57.79H87.44a.58.58,0,0,1-.57-.58.55.55,0,0,1,.11-.34l6-7.9a2,2,0,0,1,1.58-.78h2.56a.57.57,0,0,1,.57.57.62.62,0,0,1-.12.35Z"/><path class="cls-1" d="M73.5,18.34a7.56,7.56,0,0,0,4.38-2.84l1.72-2.28A2.14,2.14,0,0,0,80,11.9a2.2,2.2,0,0,0-2.2-2.22H59.54L47.1,26.19H66a7.6,7.6,0,0,0,6.08-3l1.76-2.33a1.77,1.77,0,0,0,.35-1.06,1.8,1.8,0,0,0-.72-1.43Zm-8.38,2.13L64,22a2,2,0,0,1-1.58.79h-3.7l2.39-3.19h3.55a.58.58,0,0,1,.57.58.5.5,0,0,1-.12.34ZM70,14.06,69,15.32a2,2,0,0,1-1.58.78h-3.7l2.23-3H69.5a.56.56,0,0,1,.57.57.61.61,0,0,1-.11.35Z"/></svg>