<?xml version="1.0" encoding="utf-8"?>
<!-- Generator: Adobe Illustrator 22.1.0, SVG Export Plug-In . SVG Version: 6.00 Build 0)  -->
<svg version="1.1" id="Layer_1" xmlns="http://www.w3.org/2000/svg" xmlns:xlink="http://www.w3.org/1999/xlink" x="0px" y="0px"
	 viewBox="0 0 100 100" style="enable-background:new 0 0 100 100;" xml:space="preserve">
<style type="text/css">
	.st0{fill:#FFFFFF;}
</style>
<g transform="scale(1.88679)">
	<path class="st0" d="M40,42.8L40,42.8L40,42.8c-2,2.7-4.1,5.3-6.3,7.7c-1-1-2.7-3-4.7-5.5c-2.8-3.6-5.9-8.2-7.5-12.5l0,0
		c0.6-0.9,1-1.9,1-3v-9.1v0c3.9-6.2,12.1-8.1,18.3-4.2c3.9,2.4,6.2,6.6,6.2,11.2C47.1,31.9,43.6,38,40,42.8L40,42.8z M20.4,29.5
		L20.4,29.5L20.4,29.5c0,1.3-0.8,2.5-2,2.9V21.4v0c0-0.6-0.4-1-1-1c0,0,0,0-0.1,0l0,0c-0.6,0-1,0.4-1,1l0,0V51h-4.1V33.7l0,0
		c0-0.6-0.4-1-1-1l0,0c-0.6,0-1,0.4-1,1l0,0V51H6.1V21.4l0,0c0-0.6-0.4-1-1-1l0,0c-0.6,0-1,0.4-1,1l0,0v11.1l0,0
		c-1.2-0.5-2-1.6-2-2.9v-12v0c0-1.1,0.7-2.1,1.7-2.4l2.1-0.8l4.6,4.6l0,0c0.2,0.2,0.5,0.3,0.8,0.3l0,0c0.3,0,0.5-0.1,0.7-0.3
		l4.6-4.6l2,0.8l0,0c1.1,0.3,1.8,1.3,1.8,2.4L20.4,29.5z M33.7,12.2L33.7,12.2L33.7,12.2c-4.3,0-8.4,1.8-11.2,5l0,0
		c-0.1-1.8-1.4-3.4-3.2-4l-2.6-0.9l0,0c-0.4-0.2-0.8-0.1-1.1,0.2l-4.3,4.4l-4.4-4.4l0,0c-0.3-0.3-0.7-0.4-1-0.2l-2.6,0.9l0,0
		C1.3,13.8,0,15.6,0,17.5v12l0,0c0,2.4,1.7,4.5,4.1,5V52l0,0c0,0.3,0.1,0.5,0.3,0.7l0,0C4.5,52.9,4.8,53,5.1,53h12.2l0,0
		c0.3,0,0.6-0.1,0.8-0.3l0,0c0.2-0.2,0.3-0.4,0.3-0.7V34.6l0,0c0.5-0.1,1-0.3,1.5-0.6c3.7,9.1,13,18.7,13,18.7l0,0
		c0.2,0.2,0.5,0.3,0.8,0.3l0,0c0.3,0,0.6-0.1,0.8-0.3l0,0c2.6-2.7,5-5.6,7.3-8.7c3.6-4.9,7.3-11.1,7.3-16.5v0
		C49,19.1,42.2,12.2,33.7,12.2C33.7,12.2,33.7,12.2,33.7,12.2L33.7,12.2z M33.7,32.6L33.7,32.6L33.7,32.6c-2.8,0-5.1-2.3-5.1-5.1
		s2.3-5.1,5.1-5.1s5.1,2.3,5.1,5.1v0C38.8,30.3,36.6,32.6,33.7,32.6C33.7,32.6,33.7,32.6,33.7,32.6L33.7,32.6z M33.7,20.4L33.7,20.4
		L33.7,20.4c-3.9,0-7.1,3.2-7.1,7.1c0,3.9,3.2,7.1,7.1,7.1c3.9,0,7.1-3.2,7.1-7.1v0C40.8,23.6,37.7,20.4,33.7,20.4
		C33.8,20.4,33.7,20.4,33.7,20.4L33.7,20.4z M11.3,2L11.3,2L11.3,2c2.2,0,4,1.7,4.1,3.9c0,0,0,0.1,0,0.1l0,0c0,2.3-1.8,4.1-4.1,4.1
		S7.1,8.3,7.1,6.1v0C7.1,3.8,8.9,2,11.3,2C11.2,2,11.2,2,11.3,2L11.3,2z M11.3,12.2L11.3,12.2L11.3,12.2c3.4,0,6.1-2.8,6.1-6.1
		c0,0,0,0,0,0v0c0-3.3-2.6-6-5.9-6.1c0,0-0.1,0-0.1,0l0,0C7.9,0,5.1,2.7,5.1,6.1C5.1,9.5,7.9,12.2,11.3,12.2L11.3,12.2L11.3,12.2z"
		/>
</g>
</svg>
