<?xml version="1.0" encoding="utf-8"?>
<!-- Generator: Adobe Illustrator 22.1.0, SVG Export Plug-In . SVG Version: 6.00 Build 0)  -->
<svg version="1.1" id="Layer_1" xmlns="http://www.w3.org/2000/svg" xmlns:xlink="http://www.w3.org/1999/xlink" x="0px" y="0px"
	 viewBox="0 0 150 150" style="enable-background:new 0 0 150 150;" xml:space="preserve">
<style type="text/css">
	.st0{fill:#FFFFFF;}
</style>
<path class="st0" d="M109.8,97.8L109.8,97.8L109.8,97.8c4.2,0,7.6,3.4,7.6,7.7c0,4.2-3.4,7.6-7.7,7.6c-4.2,0-7.6-3.4-7.6-7.7l0,0
	l0,0C102,101.2,105.4,97.8,109.8,97.8L109.8,97.8L109.8,97.8z M109.8,36.2L109.8,36.2L109.8,36.2c4.3,0,7.7,3.6,7.7,7.7l0,0l0,0
	c-0.2,4.2-3.8,7.6-8.1,7.4c-4-0.2-7.2-3.4-7.4-7.4l0,0C102.2,39.8,105.6,36.2,109.8,36.2L109.8,36.2z M102,74.7L102,74.7L102,74.7
	c0-4.2,3.4-7.7,7.6-7.7c4.2,0,7.7,3.4,7.7,7.6s-3.4,7.7-7.6,7.7l0,0l0,0c-4.2,0-7.6-3.2-7.7-7.4V74.7L102,74.7z M109.8,86.3
	L109.8,86.3L109.8,86.3c6.2,0,11.5-5.1,11.5-11.3c0,0,0,0,0-0.2l0,0c0-6.4-5.1-11.5-11.3-11.7c-5.7,0-10.6,4-11.5,9.6H86.7V49.6l0,0
	c0-2.1,1.7-3.8,3.8-3.8h7.9l0,0c0.9,6.2,7,10.6,13.2,9.4c5.7-0.9,9.6-5.7,9.6-11.3l0,0c-0.2-6.4-5.5-11.3-11.7-11.3
	c-5.5,0.2-10,4-11,9.3h-7.9l0,0c-4.2,0-7.6,3.2-7.7,7.4v0.2v23.1h-5.9l0,0c-1.1,0-1.9,0.8-1.9,1.9c0,1.1,0.8,1.9,1.9,1.9h5.9v23.2
	l0,0c0,4.3,3.4,7.7,7.7,7.7h7.9l0,0c1.1,6.2,7,10.4,13.2,9.3c6.2-1.1,10.4-7,9.3-13.2c-1.1-6.2-7-10.4-13.2-9.3
	c-4.7,0.8-8.5,4.5-9.3,9.3h-7.9l0,0c-2.1,0-3.8-1.7-3.8-3.8l0,0V76.6h11.7l0,0C99.4,82.1,104.1,86.3,109.8,86.3L109.8,86.3z
	 M49.9,28.4L49.9,28.4L49.9,28.4c4.2,0,7.6,3.2,7.7,7.4V36l0,0c0.2,4.2-3,7.9-7.4,8.1c-4.2,0.2-7.9-3-8.1-7.4c0-0.2,0-0.6,0-0.8l0,0
	c0-4.2,3.2-7.6,7.4-7.7C49.7,28.4,49.9,28.4,49.9,28.4L49.9,28.4z M49.9,47.7L49.9,47.7L49.9,47.7c6.4,0,11.5-5.3,11.5-11.7l0,0
	c-0.2-6.4-5.7-11.3-11.9-11c-6,0.2-11,5.1-11.2,11l0,0C38.3,42.4,43.4,47.7,49.9,47.7L49.9,47.7L49.9,47.7z M67.3,80.6L67.3,80.6
	L67.3,80.6c0,2.5-1.5,4.5-3.8,5.3V65.1l0,0c0-1.1-0.8-1.9-1.7-2.1h-0.2l0,0c-1.1,0-1.9,0.8-1.9,1.9c0,0,0,0,0,0.2V121h-7.7V88.1l0,0
	c0-1.1-0.8-1.9-1.7-1.9c0,0,0,0-0.2,0l0,0c-1.1,0-1.9,0.9-2.1,1.9V121h-7.7V65.1l0,0c0-1.1-0.8-1.9-1.7-2.1c0,0,0,0-0.2,0l0,0
	c-1.1,0-1.9,0.8-1.9,1.9v0.2v20.8l0,0c-2.3-0.8-3.8-3-3.8-5.5V57.7l0,0c0-2.1,1.3-4,3.2-4.7l4-1.3l8.7,8.9l0,0
	c0.4,0.4,0.9,0.6,1.5,0.6l0,0c0.6,0,0.9-0.2,1.5-0.6l8.7-8.9l4,1.3l0,0c1.9,0.8,3.2,2.6,3.2,4.7L67.3,80.6z M65.2,49.6L65.2,49.6
	l-4.9-1.9l0,0c-0.8-0.2-1.3,0-1.9,0.6l-8.3,8.1l-8.3-8.1l0,0c-0.6-0.6-1.1-0.8-1.9-0.6l-4.9,1.9l0,0c-3.8,1.1-6.2,4.5-6.2,8.3v22.7
	l0,0c0,4.5,3.2,8.5,7.7,9.4v32.9l0,0c0,0.6,0.2,1.1,0.6,1.5l0,0c0.4,0.4,0.9,0.6,1.5,0.6h23.1l0,0c0.6,0,0.9-0.2,1.5-0.6l0,0
	c0.4-0.4,0.6-0.9,0.6-1.5V89.8l0,0c4.5-0.9,7.7-4.9,7.7-9.4V57.7l0,0C71,54.1,68.8,50.7,65.2,49.6L65.2,49.6z"/>
</svg>
