<?xml version="1.0" encoding="utf-8"?>
<!-- Generator: Adobe Illustrator 22.1.0, SVG Export Plug-In . SVG Version: 6.00 Build 0)  -->
<svg version="1.1" id="Layer_1" xmlns="http://www.w3.org/2000/svg" xmlns:xlink="http://www.w3.org/1999/xlink" x="0px" y="0px"
	 viewBox="0 0 56.6 59" style="enable-background:new 0 0 56.6 59;" xml:space="preserve">
<style type="text/css">
	.st0{fill:#FFFFFF;}
</style>
<g>
	<path class="st0" d="M56,32.2L56,32.2L56,32.2c0.6-0.6,0.8-1.6,0.4-2.4l0,0c-0.2-0.4-0.4-0.8-0.5-1.3l0,0c0-0.6-0.3-1.1-0.7-1.5
		l0,0c-0.2-0.2-0.3-0.5-0.5-0.7c-0.1-0.1-0.2-0.2-0.2-0.4v0c0-0.3-0.2-0.6-0.4-0.8C54,25,54,24.9,54,24.9c0-0.5-0.1-5.4-0.1-7v-0.8
		l0,0c0-0.3-0.2-0.7-0.5-0.8l0,0c-0.2-0.1-0.3-0.2-0.5-0.1l0,0c-0.1,0-0.2,0.1-0.4,0.1l0,0c-0.2,0-0.4-0.1-0.6-0.2l0,0
		c-0.3-0.2-0.6-0.4-0.9-0.6l0,0c-0.4-0.2-0.8-0.4-1.2-0.4c-0.3-0.1-0.8-0.2-0.8-0.3l0,0c-0.2-0.3-0.6-0.4-0.9-0.4l0,0
		c-0.3,0-0.6,0.1-0.9,0.3h-1l0,0c-0.4,0.1-0.7,0.2-1,0.5c-0.2,0.1-0.2,0.1-0.3,0.1l0,0c0,0-0.1-0.1-0.2-0.1c-0.1,0-0.3-0.1-0.5-0.1
		l0,0c-0.2,0-0.4,0.1-0.6,0.1l0,0c-0.1,0-0.1,0-0.2,0.1l0,0c-0.3-0.5-0.8-0.8-1.4-0.9l0,0c-0.2,0-0.3,0-0.5,0.1l0,0
		c-0.3,0.1-0.5,0.2-0.7,0.4c-0.1,0.1-0.2,0.1-0.3,0.1h-0.3l0,0c-0.2-0.3-0.4-0.4-0.8-0.4l0,0c-0.1,0-0.3,0-0.4,0.1
		c-0.1,0-0.1,0-0.1-0.1l-0.6,0.6l0.4-0.7c0-0.1-0.1-0.1-0.1-0.1l0,0c-0.2-0.1-0.3-0.2-0.5-0.1l0,0c-0.2,0-0.5,0.1-0.6,0.2
		c-0.2,0-0.2,0.1-0.2,0.1s-0.1-0.3-0.2-0.4s-0.2-0.5-0.4-0.6l0,0c-0.1-0.2-0.4-0.4-0.7-0.4c-0.2,0-0.2,0.1-0.3,0.1h-0.1l0,0
		c-0.2,0.1-0.3,0.2-0.5,0.3h-0.2l-0.2-0.1l0,0c-0.3-0.3-0.6-0.4-1-0.4c-0.2,0-0.5,0.1-0.6,0.1c-0.2,0-0.2,0.1-0.3,0.1h-0.1l0,0
		c-0.1,0-0.2,0-0.2-0.1l0,0L32.8,13c-0.2-0.4-0.7-1.3-1.5-1.3h-0.2l0,0c-0.2,0.1-0.3,0.1-0.5,0.1l0,0l0,0c-0.1-0.3-0.3-0.5-0.5-0.6
		c-0.1,0-0.1-0.1-0.3-0.1l0,0c-0.1-0.1-0.1-0.1-0.2-0.1c0-0.3,0.1-3.3,0.3-8.1V1.5c0.1-0.4-0.3-0.8-0.8-0.8L17.6,0h-0.1v0
		c-0.4,0-0.7,0.3-0.8,0.8L15,23.4L0.8,22H0.8l0,0c-0.2,0-0.4,0.1-0.5,0.2h0C0.1,22.4,0,22.7,0,22.9l0.1,1h0c0,0.3,0.3,0.6,0.6,0.7
		c0.4,0.1,0.5,0.4,0.9,1.1h0c0.2,0.4,0.4,0.7,0.6,1.1h0c0.6,0.9,1.4,1.7,2.3,2.3c0.4,0.2,0.4,0.3,0.4,0.5l0,0
		c0.2,0.6,0.6,1.2,1.2,1.5C6.9,31.7,7,32,7.1,32.4l0,0c0,0.3,0.1,0.5,0.2,0.8c0.1,0.2,0.1,0.3,0,0.5c-0.1,0.2-0.1,0.4-0.1,0.7l0,0
		c0.1,0.8,0.5,1.6,1,2.2l0,0c0.2,0.2,0.3,0.4,0.4,0.7l0,0c0.3,0.6,0.8,1,1.5,1.2l0.3,0.2l0,0c0.5,0.1,0.8,0.4,1,0.8l0,0
		c0.4,0.6,1.1,1,1.9,1.1l0.4,0.1c0.1,0,0.2,0.1,0.4,0.1c1.1,0,1.5-1.1,1.7-1.8l0.1-0.3l0,0c0.2-0.6,0.5-1.1,0.9-1.6
		c0.1-0.2,0.1-0.2,0.1-0.2l0,0c0.3,0,0.6-0.1,0.8-0.2l0,0c0.1,0,0.1-0.1,0.2-0.1l0,0c0,0,0.1,0.1,0.1,0.1l0,0
		c0.4,0.3,0.8,0.5,1.3,0.5c0.4,0,0.6,0.1,0.8,0.1s0.2,0,0.7,0.2l0,0c0.9,0.4,1.7,1,2.4,1.8l0,0c0.3,0.3,0.5,0.6,0.6,1l0,0
		c0,0.2,0.1,0.4,0.1,0.6l0.5,0.9l0,0c0.3,0.5,0.6,1.1,0.7,1.7l0,0c0.2,1,0.8,1.9,1.7,2.4l0,0c0,0.1,0,0.3,0.1,0.4l0,0
		c0.1,0.8,0.5,1.4,1.2,1.8l0,0c0.2,0.1,0.3,0.2,0.5,0.3c0.1,0,0.1,0,0.1,0.1l0.1,0.2l0,0c0.1,0.5,0.2,0.9,0.1,1.4v0.7v0
		c0,0.5,0.3,1,0.7,1.3l0,0c0.1,0.1,0.2,0.2,0.2,0.4c0.1,0.2,0.1,0.2,0.1,0.2l0,0C30,52.6,29.9,52.8,30,53v0c0,0.6,0.3,1.2,0.8,1.5h0
		c0.4,0.2,0.8,0.4,1.1,0.7l0.9,0.5c0.5,0.3,0.8,0.5,1,0.6l0,0c0.2,0.1,0.4,0.2,0.5,0.3l0.2,0.1l0,0c0.3,0.2,0.7,0.3,1.1,0.3l0,0
		c0.3,0.1,0.6,0.1,0.9,0.1v-0.8l0.1,0.8H37l0.2,0.2l0,0c0.2,0.2,0.5,0.3,0.8,0.5c0.1,0,0.1,0,0.2,0.1l0,0c0.3,0.2,0.6,0.3,0.9,0.3
		H39l0,0c0.1,0.2,0.2,0.4,0.2,0.6l0,0c0.1,0.3,0.4,0.5,0.8,0.5l0,0c0.1,0,0.2,0,0.2-0.1c0.5-0.2,0.7-0.7,0.8-1.3l0,0
		c0.1-0.5,0.1-1.1,0-1.7v-0.5l0,0c-0.1-0.5-0.2-1-0.3-1.4l0,0c-0.1-0.3-0.2-0.7-0.3-1c-0.1-0.4-0.2-0.8-0.2-1.2S40.1,51.2,40,51l0,0
		c0-0.3,0.1-0.6,0.1-0.8c0.2-0.6,0.4-1.2,0-1.6c-0.1-0.1-0.1-0.2-0.2-0.2l0,0c0.1-0.1,0.1-0.2,0.1-0.4l0,0c0.3,0,0.6-0.2,0.8-0.5
		l0.2-0.2l0,0c0.5-0.2,1-0.5,1.3-0.9l0.4-0.3c0.7-0.6,0.9-0.7,1-0.7l0,0c0.4-0.1,0.6-0.5,0.7-0.9h0.1c0.4,0,0.6-0.2,1.7-0.8
		c0.2-0.1,0.3-0.2,0.4-0.2l0.2-0.1c1.7-1,2-1.2,2.1-1.4h0.1c0.1-0.1,0.2-0.1,0.2-0.2l0,0c0.2-0.1,0.3-0.3,0.5-0.5l0,0
		c0.2-0.1,0.4-0.3,0.6-0.5l0,0c0.2-0.2,0.4-0.5,0.7-0.7l0,0c0.3-0.1,0.4-0.3,0.5-0.6c0.2-0.1,0.8-0.4,1-0.5l0,0
		c0.5-0.2,0.9-0.4,1.3-0.7l0.2-0.1h0.2l0.2-0.1c0.3,0,0.5,0,0.6-0.2l0,0c0.2,0,0.3-0.1,0.5-0.2l0,0c0.3-0.1,0.5-0.4,0.5-0.8
		c0-0.2-0.1-0.6-0.1-1.1l0,0c-0.1-0.3-0.1-0.7,0-1l0,0c0.1-0.4,0.1-0.8-0.1-1.1l0,0c-0.1-0.1-0.1-0.2-0.1-0.4l0,0
		c-0.1-0.1-0.1-0.1-0.2-0.2l0,0c0.1-0.1,0.2-0.3,0.2-0.5l0,0C55.7,32.5,55.9,32.3,56,32.2L56,32.2z M54.4,31L54.4,31L54.4,31
		L54.4,31c-0.2,0.3-0.4,0.5-0.5,0.8l0,0c-0.2,0.3-0.3,0.6-0.4,0.9l0,0c-0.1,0.4-0.1,0.9,0.2,1.3v0.1c0.1,0,0.1,0.1,0.1,0.2h0.1
		c0,0.1,0,0.1-0.1,0.2l0,0c-0.1,0.5-0.1,1.1,0,1.6v0.2l0,0c-0.2,0-0.4,0.1-0.6,0.2l0,0c-0.1,0.1-0.1,0.1-0.2,0.1l-0.2,0.2
		c-0.3,0.2-0.8,0.4-1.1,0.5s-1,0.5-1.3,0.7l0,0c-0.3,0.2-0.6,0.4-0.8,0.8l0,0c-0.3,0.2-0.6,0.5-0.9,0.8c0,0.1-0.1,0.1-0.1,0.2l0,0
		c-0.3,0.2-0.6,0.4-0.8,0.7c-0.2,0.2-0.3,0.2-0.5,0.4c-0.2,0.2-1.3,0.8-1.7,1.1l-0.2,0.1c-0.2,0.1-0.3,0.2-0.5,0.3h-0.1l0,0
		c-0.2,0.2-0.5,0.4-0.8,0.5l0,0c-0.4,0-0.8,0.2-1.1,0.5l0,0c-0.2,0.2-0.4,0.5-0.5,0.8l0,0c-0.4,0.2-0.8,0.5-1.1,0.8l-0.4,0.3
		c-0.2,0.2-0.5,0.4-0.6,0.5l0,0c-0.4,0.1-0.7,0.3-1,0.6l-0.2,0.2l0,0c-0.8,0.2-1.3,0.9-1.3,1.7l0,0c-0.1,0.5,0,1.1,0.3,1.6
		c0,0.1,0,0.1-0.1,0.2l0,0c-0.2,0.5-0.3,1-0.2,1.6v0.1l0,0c0.1,0.3,0.1,0.5,0.2,0.8v0.1l0.2,1.1l0,0c0.1,0.4,0.2,0.8,0.3,1.2v0.1
		l0,0c0.1,0.3,0.1,0.6,0.2,0.9V56l0,0l0,0c-0.2-0.2-0.4-0.3-0.6-0.3l-0.1-0.1l-0.1-0.1l0,0c-0.3-0.8-1-1.3-1.8-1.3h-0.2l0,0
		c-0.4,0-0.8,0.2-1.1,0.5c-0.2-0.1-0.2-0.2-0.4-0.2c-0.2-0.1-0.5-0.3-1-0.5c-0.3-0.2-0.6-0.4-0.8-0.5h-0.1l0,0
		c-0.3-0.1-0.6-0.3-0.9-0.5h-0.1l0,0c0.1-0.6,0-1.3-0.4-1.8l0,0c-0.2-0.2-0.4-0.5-0.6-0.7l0,0v-0.7v0c0.1-0.7-0.1-1.5-0.4-2.2l0,0
		c-0.1-0.3-0.3-0.6-0.5-0.8c-0.1-0.1-0.1-0.1-0.1-0.2l0,0c-0.1-0.1-0.3-0.2-0.5-0.2c-0.1-0.1-0.1-0.1-0.2-0.2l0,0
		c-0.1-0.1-0.2-0.2-0.4-0.3l0,0c0-0.1,0-0.1-0.1-0.2v-0.3l0,0c-0.1-0.7-0.4-1.2-1-1.6l0,0c-0.3-0.2-0.6-0.5-0.7-0.9l0,0
		c-0.2-0.8-0.5-1.7-0.9-2.4l0,0c-0.1-0.2-0.2-0.4-0.3-0.6c-0.1-0.2-0.1-0.2-0.1-0.4l0,0c-0.2-0.7-0.5-1.4-1-1.9l0,0
		c-0.8-0.9-1.8-1.7-2.9-2.3l0,0c-0.4-0.2-0.8-0.4-1.3-0.4l0,0c-0.2,0-0.4-0.1-0.6-0.1l0,0c-0.2,0-0.4-0.1-0.5-0.2l0,0
		c-0.2-0.1-0.5-0.2-0.7-0.3l0,0c-0.1-0.1-0.3-0.1-0.5-0.1H18l0,0c-0.3,0-0.6,0.1-0.8,0.2c-0.3,0.1-0.4,0.2-0.5,0.2s-0.1,0.1-0.2,0.1
		l0,0c-0.4,0.2-0.7,0.4-1,0.7h0c-0.5,0.7-0.9,1.4-1.2,2.3L14.1,38v0.1l0,0c-0.1,0.1-0.1,0.2-0.1,0.4h-0.1c-0.5-0.2-0.5-0.2-0.6-0.3
		l0,0c-0.5-0.7-1.2-1.3-2-1.6l-0.3-0.1l0,0c-0.1-0.1-0.2-0.1-0.3-0.1l0,0l0,0c-0.1-0.1-0.1-0.2-0.1-0.3l0,0
		c-0.1-0.3-0.3-0.5-0.5-0.8c-0.1-0.3-0.5-0.9-0.7-1.2v-0.1l0,0c0.2-0.6,0.2-1.2-0.1-1.7l0,0C9.1,32.3,9,32.1,9,32l0,0
		c-0.2-1-0.8-1.9-1.7-2.4c-0.4-0.4-0.4-0.5-0.5-0.6l0,0c-0.2-0.6-0.6-1.1-1.1-1.5h0c-0.8-0.5-1.5-1.1-2-1.9l0,0
		c-0.2-0.3-0.3-0.5-0.5-0.8h0c-0.1-0.2-0.2-0.4-0.3-0.6l11.8,1.2H15l0,0c0.5,0,0.9-0.1,1.3-0.5l0,0c0.4-0.3,0.7-0.8,0.7-1.4L18.6,2
		l9.2,0.5v0.2c-0.1,2.8-0.2,7.5-0.3,7.9l0,0c-0.1,0.6,0.1,1.2,0.5,1.6l0,0c0.2,0.2,0.4,0.3,0.6,0.4c0.1,0,0.1,0.1,0.1,0.1l0,0l0,0
		c0.2,0.4,0.6,0.7,1,0.9l0,0c0.2,0.1,0.5,0.1,0.7,0.1H31l0,0c0,0,0.1,0,0.1,0.1l0,0v0.1l0.1,0.1l0,0c0.3,0.5,0.7,0.8,1.3,0.9l0,0
		c0.1,0.1,0.1,0.1,0.2,0.1l0,0c0.1,0.1,0.2,0.1,0.3,0.1h0.2l0,0c0.3,0,0.6,0,0.8,0l0,0c0.1,0.1,0.2,0.2,0.4,0.2l0,0
		c0.3,0.2,0.6,0.2,0.9,0.2h0.4l0,0c0.2,0.4,0.6,0.8,1,1c0.2,0.1,0.3,0.1,0.5,0.1l0.3,0.3l0,0c0.3,0.2,0.7,0.3,1.1,0.3l0,0
		c0.4,0,0.7-0.1,1-0.3l0,0c0.2,0.1,0.4,0.2,0.7,0.1h0.5l0,0c0.4,0,0.9-0.1,1.2-0.4l0,0c0.4,0.4,0.9,0.7,1.5,0.7l0,0
		c0.3,0,0.6-0.1,0.8-0.1c0.2,0,0.3,0.1,0.5,0.1s0.3,0,0.4-0.1l0,0c0.4-0.1,0.7-0.2,1-0.4c0.2-0.1,0.2-0.1,0.2-0.1h0.8l0,0
		c0.3,0,0.6-0.1,0.9-0.1l0,0c0.4,0.2,0.7,0.3,1.1,0.4l0,0c0.2,0.1,0.5,0.2,0.7,0.3c0.2,0.1,0.6,0.4,1,0.7l0,0c0.3,0.1,0.7,0.3,1,0.4
		v0.1c0.1,5.3,0.1,6.5,0.1,6.9l0,0c0.1,0.5,0.3,0.9,0.7,1.3l0,0c0.1,0.3,0.2,0.6,0.4,0.9l0,0c0.2,0.4,0.5,0.7,0.8,1l0,0
		c0,0.2,0.1,0.4,0.2,0.5v0c0.1,0.6,0.3,1.2,0.6,1.8l0,0C54.5,30.8,54.5,30.9,54.4,31L54.4,31z"/>
	<path class="st0" d="M38.5,21L38.5,21l-0.8,3H35l2.2,1.9l-0.8,3l2.2-1.9l2.2,1.9l-0.8-3L42,24h-2.7C39.3,24,38.5,21,38.5,21z"/>
</g>
</svg>
