<?xml version="1.0" encoding="utf-8"?>
<!-- Generator: Adobe Illustrator 22.1.0, SVG Export Plug-In . SVG Version: 6.00 Build 0)  -->
<svg version="1.1" id="Layer_1" xmlns="http://www.w3.org/2000/svg" xmlns:xlink="http://www.w3.org/1999/xlink" x="0px" y="0px"
	 viewBox="0 0 196.3 253.8" style="enable-background:new 0 0 196.3 253.8;" xml:space="preserve">
<style type="text/css">
	.st0{fill:#FFFFFF;}
</style>
<g>
	<g>
		<path class="st0" d="M129.2,253.8L129.2,253.8c-0.7,0-1.3-0.4-1.6-0.9l-2.8-5.1h-12.2c-0.7,0-1.4-0.5-1.7-1.1
			c-0.6-1.6,0.3-3.8,0.7-4.7c0.1-0.1,0.1-0.2,0.2-0.3c2.4-3.1,8.5-6.1,11.1-7.3l-2.5-32.1l-33.2-2c0,0-0.1,0-0.1,0
			c-5.9-0.8-7.1-4.8-6.9-6.8c0.1-4.6,6.7-5.9,7.5-6c0,0,0.1,0,0.1,0l33.3-3.8l1.7-6.9h-2.5c-1,0-1.8-0.8-1.8-1.8v-1.5
			c0-1,0.8-1.8,1.8-1.8h5.6l2.2-2.5c0.4-0.4,0.9-0.6,1.4-0.6c0.5,0,1.1,0.3,1.4,0.7l1.7,2.4h5.5c1,0,1.8,0.8,1.8,1.8v1.5
			c0,1-0.8,1.8-1.8,1.8h-2.5l1.7,6.9l33.3,3.8c0,0,0.1,0,0.1,0c0.8,0.1,7.4,1.4,7.5,6.1c0.2,2.1-1.1,6-6.9,6.8c0,0-0.1,0-0.1,0
			l-33.2,2l-2.5,32.1c2.7,1.2,8.8,4.2,11.1,7.3c0.1,0.1,0.1,0.2,0.2,0.3c0.4,0.9,1.3,3.1,0.7,4.7c-0.3,0.7-0.9,1.1-1.7,1.1h-12.2
			l-2.8,5.1C130.4,253.5,129.8,253.8,129.2,253.8z M114.6,244.2h11.3c0.7,0,1.3,0.4,1.6,0.9l1.7,3.1l1.7-3.1
			c0.3-0.6,0.9-0.9,1.6-0.9h11.3c-0.1-0.2-0.1-0.4-0.2-0.6c-2.1-2.5-8.4-5.5-10.7-6.5c-0.7-0.3-1.2-1-1.1-1.8l2.7-35
			c0.1-0.9,0.8-1.6,1.7-1.7l34.7-2.1c4-0.6,3.8-2.9,3.8-3c0-0.1,0-0.1,0-0.2c0-1.2-2.8-2.3-4.5-2.6l-34.5-3.9
			c-0.8-0.1-1.4-0.6-1.6-1.4l-2.5-10.4c0,0,0,0,0-0.1c-0.5,0-1-0.3-1.3-0.7l-0.9-1.3l-1.2,1.4c-0.3,0.4-0.8,0.6-1.2,0.6
			c0,0,0,0,0,0.1l-2.5,10.4c-0.2,0.7-0.8,1.3-1.6,1.4l-34.5,3.9c-1.8,0.3-4.5,1.4-4.5,2.6c0,0.1,0,0.1,0,0.2c0,0.4,0.1,2.4,3.8,3
			l34.7,2.1c0.9,0.1,1.6,0.8,1.7,1.7l2.7,35c0.1,0.8-0.4,1.5-1.1,1.8c-2.3,1-8.6,4-10.7,6.5C114.7,243.8,114.7,244,114.6,244.2z"/>
	</g>
	<path class="st0" d="M70.4,171.4L70.4,171.4c-0.5-1.4-1.3-2.6-2.3-3.6l-20-20.2c-0.1-3.6-0.8-7.2-2-10.6c0.2-2.5,0-4.9-0.7-7.3
		c-0.5-1.4-1.8-2.3-3.2-2.3h-0.2c-0.1-0.9-0.2-1.7-0.1-2.6c0-2.9,0-4.7-0.1-5.6c0-1.7-0.1-3.4-0.3-5.1c-0.1-1.5-1.2-11.1-3.5-13.5
		c-0.7-0.7-1.6-1-2.5-0.9h-0.1c-0.9,0-1.8,0.3-2.5,1c-2.3,2.3-3.4,11.9-3.5,13.5c-0.2,1.7-0.2,3.4-0.1,5.1c-0.2,1.9-0.2,3.8-0.1,5.6
		v2.6h-0.4c-1.5,0-2.8,1-3.2,2.3c-0.6,2.4-0.8,4.8-0.7,7.3c-1.2,3.4-1.9,7-2,10.6L2.6,167.8c-1,1-1.8,2.3-2.2,3.6
		c-0.5,1.1-0.6,2.3-0.3,3.4c0.1,0,0.1,0.1,0.1,0.3c0,0.1,0.4,1.1,3.6,6.9c0.7,1.5,2.3,2.2,3.9,1.8c0.8,0,8.8-2.1,8.8-2.1h5.5v0.1
		c-0.9,0.1-1.8,0.6-2.4,1.2c-1.3,1.5-7,8.6-7.4,9.1c-1.2,1.4-1.7,3.2-1.3,5c0,0,0,0.1,0.1,0.1c0.5,2,1.6,3.8,3,5.2
		c0.7,0.5,1.5,0.8,2.4,0.8h0.9c1.2-0.4,5.9-1.5,8.5-2.1c0.8-0.3,3.6-1.2,4.5-3.3l0.9-2.3h8.2l0.9,2.3c0.8,2.1,3.6,3,4.5,3.3
		c2.6,0.5,7.3,1.6,8.6,2.1h0.8c0.8,0,1.6-0.3,2.2-0.8c1.4-1.5,2.5-3.3,3.1-5.2v-0.1c0.4-1.8,0-3.6-1.1-5.1c-0.5-0.6-6.2-7.7-7.6-9.1
		c-0.6-0.7-1.5-1.1-2.4-1.2v-0.3h5.5c0,0,8.1,2.1,8.8,2.1c2.4,0.3,3.4-0.7,3.9-1.8c3.2-5.8,3.6-6.6,3.6-6.9c0-0.1,0.1-0.2,0.1-0.3
		C70.8,173.6,70.8,172.4,70.4,171.4z M67.1,173.8L67.1,173.8c-0.3,0.9-3.3,6.3-3.3,6.3s-1.1-0.4-9.3-2.1h-9.1c0,1.8-0.2,3.6-0.5,5.3
		c3.8-0.3,10.4,10.3,10.9,10.9c0.5,0.6,0.6,1.4,0.4,2.2c-0.4,1.2-1,2.3-1.8,3.3c-1.1-0.3-9.3-2.2-10.4-2.3c-0.9-1.9-1.8-3.6-3-5.3
		H29.8c-1.1,1.7-2.1,3.5-3,5.3c-1.1,0.2-9.3,2.1-10.4,2.3c-0.8-0.9-1.5-2.1-1.8-3.3c-0.2-0.7-0.1-1.5,0.3-2.2
		c0.5-0.7,7.2-11.3,10.9-10.9c-0.2-1.8-0.3-3.6-0.3-5.3h-9.1c-8.4,1.7-9.5,2.1-9.5,2.1s-3-5.4-3.3-6.3c-0.2-1.1,0.1-2.2,0.9-2.9
		c0.8-0.9,21.5-21.9,21.5-21.9c0-2.6,0.7-8.8,2-11.3c-0.1-2.3,0-4.6,0.4-6.9h3.8c0.1-4.5,0.1-10.2,0.3-11.7c0-1.6,0.1-3.2,0.3-4.7
		c0.3-4.1,1.6-10.6,2.4-11.4h0.1c0.8,0.8,2.2,7.3,2.4,11.4c0.2,1.5,0.3,3.1,0.3,4.7c0.1,1.5,0.1,7.1,0.3,11.7h3.8
		c0.4,2.3,0.5,4.6,0.4,6.9c1.3,2.5,2,8.7,2,11.3c0,0,20.6,21,21.5,21.9C66.9,171.6,67.3,172.7,67.1,173.8z"/>
	<path class="st0" d="M194.9,84.4L194.9,84.4c-0.3-0.3-4.3-5.6-4.3-5.7c-1.4-2.3-5.1-4.3-8.5-6.2c-14.9-8.2-25.7-14.1-30.7-16.9
		c0.2-0.2,0.2-0.3,0.2-0.7c0.3-2.4,0.6-4.9,0.6-7.4v-0.1c0-2.2-0.4-4.3-1.2-6.3c-0.8-2-2.8-3.3-5-3.3h-2.5c-1.5,0-3,0-4.5,0.2
		c-0.9,0-1.7,0.3-2.4,0.8v-3.3c0.1-4.7-0.3-9.4-1-14c-0.9-5.7-2.4-11.2-4.5-16.6c-0.7-3.3-4-5.5-7.3-4.8c-2.4,0.5-4.3,2.4-4.8,4.8
		c-2.1,5.3-3.6,10.9-4.5,16.6c-0.7,4.7-1,9.4-1,14.1v3.2c-0.7-0.5-1.5-0.8-2.4-0.8c-1.5-0.1-3-0.2-4.5-0.2h-2.6
		c-2.2,0-4.1,1.3-4.9,3.3c-0.8,2-1.2,4.1-1.2,6.3l0,0c0.1,2.5,0.3,4.9,0.6,7.4c0,0.3,0,0.5,0.2,0.7c-5,2.8-15.7,8.6-30.7,16.9
		c-3.4,1.8-7.1,3.9-8.5,6.2c0,0.2-4,5.4-4.3,5.7c-1.4,2.2-1.4,11.7-1.4,11.7L55,97c3.1-2.2,6.3-4.2,9.7-6.1
		c0.3-0.2,20.5-6.9,21.8-7.4c0,0,1.3-0.3,1.4-0.3c0.8,1.4,2.3,2.3,3.9,2.3h0.5c2.7-0.3,3.7-2.2,4.5-4.9l0.9-0.2
		c0.7,1.5,2.3,2.5,4,2.3h0.3c2,0,3.7-1.5,4-3.4c0.8,1.3,2.3,2.1,3.9,2c1.5,0,2.9-0.7,3.7-2v9.1c0,5.3,0.3,10.6,1,15.9
		c0.3,2.6,0.8,5.1,1.3,7.4c-5.6,3.9-17.8,12.5-19.3,13.5c-1.4,1-2.3,2.6-2.4,4.3c0,1.5,0.2,2.8,0.2,3l0.5,5.6l25.1-6.5
		c0.2,0.2,1.4,3.6,1.4,3.6h7.6c0,0,1.3-3.4,1.4-3.6l24.9,6.5l0.5-5.6c0-0.2,0.2-1.5,0.2-3c-0.1-1.7-1-3.3-2.4-4.3
		c-1.4-1-13.7-9.5-19.3-13.5c0.5-2.3,0.9-4.7,1.3-7.4c0.7-5.3,1.1-10.6,1-15.9v-9.1c0.8,1.2,2.2,2,3.6,2c1.5,0.1,3-0.7,3.9-2
		c0.3,2,2,3.4,4,3.4h0.3c1.7,0.2,3.3-0.7,4-2.3l0.9,0.2c0.8,2.8,1.8,4.6,4.5,4.9h0.5c1.6,0,3.1-0.9,3.9-2.3c0.2,0,1.4,0.3,1.4,0.3
		c1.3,0.5,21.6,7.2,21.8,7.4c3.3,1.8,6.6,3.9,9.7,6.1l1.1-1C196.3,96,196.3,86.5,194.9,84.4z M190.7,88.7L190.7,88.7
		c0,0-24.1-9-25.7-9.5c-1.6-0.5-4.3-1.3-6.3-1.8c-0.5,3.4-0.3,3.4-0.3,3.4c-0.4-1.3-0.7-2.6-0.9-4c-2.6-0.7-5.8-1.5-8.4-2.3
		c-0.5,3.5-0.5,3.5-0.6,3.5s-0.6-3.6-0.6-3.8l-4.2-1.1h-2.7c-0.5,3.3-0.5,3.5-0.6,3.5c-0.2,0-0.2-0.5-0.6-3.3V73h-7.7v15.3
		c0,5.2-0.3,10.3-0.9,15.4c-0.4,3.3-1,6.6-1.9,9.8c2.2,1.5,21.4,15.1,22,15.4c0.2,0.2,0.4,0.5,0.3,0.8v2.3l-24.3-6.5
		c-0.3,1.6-0.7,3.1-1.3,4.6h-1.4c-0.6-1.5-1-3-1.3-4.6l-24.3,6.5v-2.4c0-0.3,0.1-0.6,0.3-0.8c0.6-0.3,19.9-13.9,22-15.4
		c-0.9-3.2-1.6-6.5-1.9-9.8c-0.7-5.1-1-10.2-0.9-15.3V73h-7.7v0.2c-0.6,2.7-0.6,3.2-0.6,3.2s-0.2-0.2-0.6-3.5h-2.8l-4.2,1.1
		c0,0.2-0.6,3.8-0.6,3.8s-0.2,0-0.6-3.5c-2.6,0.8-5.8,1.6-8.4,2.3c-0.2,1.3-0.5,2.6-1,3.9c0,0,0.2,0-0.3-3.4
		c-1.9,0.5-4.7,1.3-6.3,1.8s-25.7,9.5-25.7,9.5s-0.2-1.6-0.2-1.8c0-0.2,4.7-6.9,5.1-7.1c0.5-0.2,37.6-20.7,39.2-21.6
		c1.3-0.6-0.2-2.8-0.3-3.9c-0.4-2.3-0.6-4.7-0.6-7.1c-0.1-1.5,0.1-2.9,0.6-4.3c0.2-0.3,0.3-0.5,0.6-0.5s4.8-0.2,6.6,0
		c0.5,0.2,0.5,0.2,0.6,0.5c0.5,1.2,0.7,2.6,0.6,3.9c-0.1,2.4-0.4,4.7-0.8,7.1l0,0c1.4-1,3-2.3,3.5-2.6c1.5-1,2.7-2.3,3.7-3.8V36.1
		c-0.1-4.7,0.1-9.3,0.8-13.9c0.9-5.3,2.3-10.5,4.2-15.6c0.5-1.2,1-2.2,1.8-2.2s1.4,1,1.9,2.2c1.9,5,3.3,10.3,4.2,15.6
		c0.7,4.6,0.9,9.3,0.8,13.9v11.5c1,1.5,2.2,2.8,3.7,3.8c0.5,0.3,2.2,1.6,3.5,2.6l0,0c-0.4-2.3-0.7-4.7-0.8-7.1
		c-0.1-1.3,0.1-2.7,0.6-3.9c0.2-0.3,0.2-0.3,0.6-0.5c1.8-0.2,6.5,0,6.6,0s0.5,0.2,0.6,0.5c0.5,1.4,0.7,2.8,0.6,4.3
		c0,2.4-0.2,4.7-0.6,7.1c-0.2,1.1-1.6,3.3-0.3,3.9c1.6,0.8,38.7,21.1,39.2,21.6c0.5,0.4,5,6.9,5.1,7.1S190.7,88.6,190.7,88.7
		L190.7,88.7z"/>
</g>
</svg>
