<?xml version="1.0" encoding="utf-8"?>
<!-- Generator: Adobe Illustrator 22.1.0, SVG Export Plug-In . SVG Version: 6.00 Build 0)  -->
<svg version="1.1" id="Layer_1" xmlns="http://www.w3.org/2000/svg" xmlns:xlink="http://www.w3.org/1999/xlink" x="0px" y="0px"
	 viewBox="0 0 100 100" style="enable-background:new 0 0 100 100;" xml:space="preserve">
<style type="text/css">
	.st0{fill:#FFFFFF;}
</style>
<g transform="scale(1.44928)">
	<path class="st0" d="M61.6,42.4L61.6,42.4l-1.3-7.2l-0.1-0.1l0,0c-0.2-0.9-1.1-1.5-2-1.4l-2.7,0.5l-4-1.1l-1.1-4.6l5.2-3.7
		c0.2-0.1,0.3-0.1,0.5-0.1l4.6,0.7l0,0c0.8,0.1,1.6-0.2,2.2-0.7l3.4-3v0c0.4,1.7,0.6,3.5,0.6,5.3v0C66.9,32.6,65,38,61.6,42.4
		L61.6,42.4z M62.7,17.1L62.7,17.1L62.4,16l0,0c-0.2-0.6-0.7-1.1-1.3-1.1l-1.5-0.2l0,0c-0.4-0.1-0.9,0-1.3,0.2l-2.4,1.4l0,0
		c-0.5,0.2-0.8,0.7-0.9,1.2l-0.4,1.4H51l0.4-2.9l3.2-1.1l0,0c0.6-0.2,1.1-0.7,1.3-1.4l0,0c0.2-0.7,0-1.3-0.4-1.9l-0.6-0.8l4-2.2v0
		c2.3,2.1,4.1,4.6,5.4,7.4L62.7,17.1z M48.5,5.1L48.5,5.1l-1,2.2l-1.4-1.1c-0.2-1.1-0.5-2.6-0.7-3.8l0,0c0.9,0.1,1.8,0.2,2.7,0.5
		L48.5,5.1z M43.2,0L43.2,0L43.2,0c-8.9,0.1-17.1,4.8-21.7,12.4h-9.1l0,0c-0.6,0-1.1,0.5-1.1,1.1c0,0,0,0,0,0l0,0
		c-0.1,0.5,0.3,1.1,0.9,1.1c0.1,0,0.1,0,0.2,0h10.4l0,0c1.8-3.2,4.3-6,7.4-8.1L32,8.4l0,0c0.5,0.5,1.2,0.7,1.9,0.5l4.3-1.4l2.3,0.8
		v2.8l-3.5,1.1l0,0c-0.4,0.2-0.7,0.4-0.9,0.8l-2.3,3.5l0,0c-0.3,0.4-0.4,0.9-0.4,1.4l0.5,2.6L32.2,19l0,0c-0.3-0.5-0.9-0.8-1.5-0.8
		h-1.5l0,0c-0.5,0-1,0.2-1.3,0.6l0,0c-0.4,0.4-0.6,0.8-0.6,1.4v2.2v0c0,0.4,0.1,0.8,0.4,1.1l2.1,2.6l0.5,0.5l1.9,1.4l0,0
		c0.4,0.3,1,0.4,1.5,0.3l3.4-0.6l2.5,2.5l0.2,0.2l0,0c0.1,0.1,0.2,0.2,0.4,0.2l4.3,1.9l-2,9.5l-3.4,4.9l-1.6-3.6l-0.6-4.4l0,0
		c0-0.5-0.2-1-0.6-1.3l-5.2-3.7L30.4,30l0,0c-0.1-0.5-0.3-1-0.7-1.4l-3.7-3.5l-3.3-3.5L21.6,17h-2.4l0,0c-1.3,3.2-1.9,6.6-1.9,10v0
		c0,1.1,0.1,2.2,0.2,3.3H1.1l0,0c-0.6,0-1.1,0.5-1.1,1.1h0c0,0.6,0.4,1.2,1,1.2c0,0,0,0,0,0H18l0,0c0.4,2,1,4,1.9,5.9h-7.5l0,0
		c-0.6,0-1.1,0.6-1.1,1.2c0,0,0,0,0,0l0,0c0,0.6,0.5,1.1,1.1,1.1H27l0,0c0.6,0,1.1-0.5,1.1-1.1l0,0c0.1-0.6-0.4-1.2-1-1.2
		c0,0,0,0,0,0h-4.7l0,0C20.5,35,19.5,31,19.6,27v0c0-2.1,0.3-4.1,0.8-6.1l0.5,2.1l3.7,3.8c0,0.1,0.1,0.1,0.1,0.1l3.6,3.4l0.4,3.8
		l0,0c0.1,0.6,0.4,1.2,0.9,1.6l5,3.5l0.5,4.2l0,0c0,0.3,0.1,0.6,0.2,0.8l1.9,4.1v0.1l0,0c0.3,0.6,0.9,1,1.6,1h0.1l0,0
		c0.6,0,1.2-0.3,1.5-0.8l3.8-5.4v-0.1c0.1-0.2,0.2-0.2,0.2-0.4l2-10l0,0c0.3-0.9-0.1-2-1.1-2.3l-4.4-2l-2.7-2.6l-0.1-0.1l0,0
		c-0.4-0.4-1-0.5-1.6-0.4L33.2,26l-1.8-1.3l-2-2.5v-1.7h1l2.3,2.3l0,0c0.6,0.6,1.5,0.8,2.3,0.3l0,0c0.8-0.5,1.1-1.3,1-2.2l-0.6-3.1
		l2.1-3.3l3.7-1.2l0,0c0.8-0.2,1.4-1,1.4-1.8V8.1l0,0c0-0.8-0.5-1.5-1.2-1.8l-2.6-1l0,0c-0.4-0.2-0.8-0.2-1.2-0.1l-4.2,1.5L32,5.2
		l0,0c3.4-1.9,7.2-2.9,11.1-2.9c0.2,0.8,0.4,2,0.8,4.4l0,0c0.1,0.5,0.4,1,0.8,1.3l1.6,1.3l0,0c0.4,0.2,0.8,0.4,1.2,0.4H48l0,0
		c0.6-0.2,1-0.6,1.3-1.1L50.4,6l0,0c0.2-0.4,0.3-0.8,0.2-1.2l-0.2-1.3v0c2.4,0.8,4.6,2,6.6,3.5l-3.3,1.8l0,0c-0.6,0.2-1,0.7-1.2,1.4
		l0,0c-0.2,0.6,0,1.3,0.4,1.9l0.6,0.7l-3,1.1l0,0c-0.7,0.3-1.2,0.9-1.3,1.7l-0.5,3.2l0,0c-0.1,0.6,0.1,1.2,0.5,1.7l0,0
		c0.4,0.4,0.9,0.7,1.4,0.7h4l0,0c0.9,0,1.7-0.6,1.9-1.4l0.4-1.4l2.3-1.3l1.1,0.1l0.5,1.4l0,0c0.1,0.5,0.5,0.9,1,1.1l0,0
		c0.5,0.2,1,0.2,1.4-0.1l2-1.3v0c0.1,0.4,0.2,0.8,0.4,1.1L61.5,23l0,0c-0.2,0.1-0.3,0.1-0.5,0.1l-4.6-0.7l0,0
		c-0.7-0.1-1.4,0.1-2,0.5L49,26.7h-0.1l0,0c-0.6,0.5-0.8,1.3-0.7,2l1.2,5.1l0,0c0.1,0.7,0.6,1.2,1.3,1.4l4.2,1.2l0,0
		c0.2,0.1,0.5,0.1,0.8,0l2.4-0.4l1.4,7.1l0,0c0,0.4,0.2,0.8,0.4,1.1l0,0c-8.7,9.3-23.2,9.8-32.5,1.1c-0.8-0.7-1.5-1.5-2.2-2.3h-2.8
		l0,0C27.3,49.9,35,53.9,43.2,54C57.4,54,69,41.9,69,27S57.4,0,43.2,0L43.2,0z"/>
</g>
</svg>
