<?xml version="1.0" encoding="utf-8"?>
<!-- Generator: Adobe Illustrator 22.1.0, SVG Export Plug-In . SVG Version: 6.00 Build 0)  -->
<svg version="1.1" id="Layer_1" xmlns="http://www.w3.org/2000/svg" xmlns:xlink="http://www.w3.org/1999/xlink" x="0px" y="0px"
	 viewBox="0 0 150 150" style="enable-background:new 0 0 150 150;" xml:space="preserve">
<style type="text/css">
	.st0{fill:#FFFFFF;}
</style>
<g>
	<path class="st0" d="M126.8,87.1L126.8,87.1V69.3l-12.9-1.1l0,0c-0.7-3.8-2.1-7.3-4.1-10.5l8.6-10.4l-12.5-12.7L96.1,43l0,0
		c-3.2-2-6.6-3.6-10.4-4.6L84.8,25H67l-1.1,12.9l0,0c-3.7,0.9-7.1,2.3-10.5,4.1l-10.2-8.8L32.7,45.9l8.4,10l0,0
		c-2,3.2-3.6,6.8-4.6,10.5l-13.2,1.1v18l12.9,1.1l0,0c0.7,3.8,2.1,7.3,4.1,10.5l-8.6,10.4l12.5,12.7l11.1-9.3l-2.7-3.2l-8,6.8
		l-7.1-7.3l8-9.5l-0.9-1.2l0,0c-2.3-3.8-3.8-7.9-4.6-12.1l-0.5-1.6l-12.1-1.1V71.4l12.5-1.1l0.4-1.4l0,0c1.1-4.3,2.9-8.4,5.4-12
		l0.9-1.2l-8-9.5l7.1-7.1l9.5,8l1.2-0.7l0,0c3.8-2.3,7.9-3.8,12.1-4.6l1.4-0.4l1.1-12.1h10L81.8,42l1.4,0.2l0,0
		c4.1,1.1,8,2.9,11.6,5.2l1.6,0.9l9.3-7.9l7.1,7.3l-7.9,9.5l0.7,1.3l0,0c2.3,3.8,3.8,7.9,4.6,12.1l0.4,1.4l12.1,1.1v10.2l-12.5,1.1
		l-0.4,1.4l0,0c-1.1,4.3-2.9,8.2-5.2,12l-0.9,1.4l7.9,9.3l-7.1,7.3l-8.2-7.1l-2.7,3.2l11.2,9.8l12.5-12.7l-8.6-10.2l0,0
		c2-3.2,3.6-6.8,4.6-10.4L126.8,87.1z"/>
	<path class="st0" d="M88.8,101.2L88.8,101.2c8.9-11.2,9.5-21.8,9.5-22.7l0,0c0-12.9-10.4-23.2-23.2-23.2S51.8,65.7,51.8,78.6
		c0,0.9,0.5,11.4,9.5,22.7l0,0c0.9,1.6,1.6,3.4,1.8,5.4h-3v4.1h30.2v-4.1h-3l0,0C87.3,104.6,87.9,102.9,88.8,101.2z M56.1,78.6
		L56.1,78.6L56.1,78.6c0-10.5,8.6-18.9,18.9-18.9S93.9,68,93.9,78.6l0,0l0,0c-0.7,7.3-3.7,14.5-8.4,20.2v0.2l0,0
		c-1.3,1.6-2,3.4-2.3,5.4h-2L83.4,83l-4.3-0.4L77,104.3H73l-2.1-21.6L66.6,83l2.1,21.2h-2l0,0c-0.4-2-1.1-3.8-2.3-5.4v-0.2l0,0
		C59.6,93,56.8,85.9,56.1,78.6z"/>
	<path class="st0" d="M60.7,117.9L60.7,117.9h28.6v-5.4H60.7V117.9z"/>
	<path class="st0" d="M66.1,125L66.1,125h19.6v-5.4H66.1V125z"/>
</g>
</svg>
