<?xml version="1.0" encoding="utf-8"?>
<!-- Generator: Adobe Illustrator 22.1.0, SVG Export Plug-In . SVG Version: 6.00 Build 0)  -->
<svg version="1.1" id="Layer_1" xmlns="http://www.w3.org/2000/svg" xmlns:xlink="http://www.w3.org/1999/xlink" x="0px" y="0px"
	 viewBox="0 0 59 56" style="enable-background:new 0 0 59 56;" xml:space="preserve">
<style type="text/css">
	.st0{fill:#FFFFFF;}
</style>
<g>
	<path class="st0" d="M55.6,19.8L55.6,19.8L53,19.1l0,0c-0.4-0.1-0.8,0.1-1,0.3L48.5,23L45,19.4l0,0c-0.3-0.3-0.6-0.4-1-0.3
		l-2.8,0.8l0,0c-0.9,0.3-1.6,0.9-2.2,1.6l0,0c-0.6-0.8-1.4-1.3-2.3-1.6l-2.8-0.8l0,0c-0.4-0.1-0.7,0.1-1,0.3L29.5,23L26,19.4l0,0
		c-0.3-0.2-0.6-0.4-1-0.3l-2.8,0.8l0,0c-0.9,0.3-1.6,0.9-2.2,1.6l0,0c-0.6-0.8-1.3-1.3-2.2-1.6L15,19.1l0,0c-0.4-0.1-0.7,0-1,0.3
		L10.5,23l-3.4-3.6l0,0c-0.3-0.2-0.6-0.3-1-0.3l-2.8,0.8h0c-2,0.7-3.3,2.5-3.3,4.6v10.9l0,0c0,2.6,1.7,4.8,4.3,5.3v14.2l0,0
		c0,0.6,0.4,1.1,1,1.2h10.5l0,0c0.6-0.1,1-0.6,1-1.2V40.6l0,0c1.3-0.2,2.4-1,3.2-2.1l0,0c0.8,1.1,1.9,1.8,3.2,2.1v14.2l0,0
		c0,0.6,0.4,1.1,1,1.2h10.5l0,0c0.6-0.1,1-0.6,1-1.2V40.6l0,0c1.3-0.2,2.5-1,3.2-2.1l0,0c0.7,1.1,1.9,1.8,3.1,2.1v14.2l0,0
		c0,0.6,0.4,1.1,1,1.2h10.6l0,0c0.6-0.1,1-0.6,1-1.2V40.6l0,0c2.5-0.5,4.3-2.7,4.3-5.3V24.5v0C59,22.4,57.7,20.5,55.6,19.8
		L55.6,19.8z M19,35.4L19,35.4L19,35.4c0,1.3-0.8,2.6-2.1,3.1V26.6l0,0c0-0.6-0.5-1-1-1c-0.6,0-1,0.5-1,1v27.1h-3.3V37.5l0,0
		c0-0.6-0.5-1-1-1s-1,0.5-1,1v16.3H6.3V26.6l0,0c0-0.6-0.4-1-1-1.1l0,0c-0.6,0-1,0.4-1,1c0,0,0,0,0,0.1v11.8l0,0
		c-1.3-0.5-2.2-1.7-2.2-3.1V24.5l0,0c0-1.2,0.7-2.2,1.8-2.6l2-0.5l3.8,3.9l0,0c0.4,0.4,1.1,0.4,1.5,0l3.8-3.9l2.1,0.5l0,0
		c1.1,0.4,1.8,1.4,1.8,2.6L19,35.4z M37.9,35.4L37.9,35.4L37.9,35.4c0,1.4-0.8,2.6-2.1,3.1V26.6l0,0c0-0.6-0.5-1-1-1s-1,0.5-1,1
		v27.1h-3.2V37.5l0,0c0-0.6-0.5-1.1-1.1-1.1l0,0c-0.6,0-1,0.5-1,1.1v16.3h-3.2V26.6l0,0c0-0.6-0.5-1-1-1s-1,0.5-1,1v11.8l0,0
		C21.9,38,21,36.7,21,35.4V24.5v0c0-1.2,0.7-2.2,1.8-2.6l2.2-0.5l3.8,3.9l0,0c0.4,0.4,1,0.4,1.4,0c0,0,0,0,0,0l3.8-3.9l2.1,0.5l0,0
		c1.1,0.4,1.8,1.4,1.8,2.6L37.9,35.4z M56.9,35.4L56.9,35.4L56.9,35.4c0,1.4-0.9,2.6-2.2,3.1V26.6l0,0c0-0.6-0.4-1-0.9-1.1
		c0,0,0,0-0.1,0l0,0c-0.6,0-1,0.5-1,1.1v27.1h-3.3V37.5l0,0c0-0.6-0.5-1-1-1s-1,0.5-1,1v16.3h-3.2V26.6l0,0c0-0.6-0.5-1-1-1
		s-1,0.5-1,1v11.8l0,0c-1.3-0.5-2.1-1.7-2.1-3.1V24.5v0c0-1.1,0.7-2.2,1.7-2.6l2.2-0.5l3.8,3.9l0,0c0.4,0.4,1.1,0.4,1.5,0l3.8-3.9
		l2,0.5l0,0c1.1,0.4,1.9,1.4,1.9,2.6L56.9,35.4z"/>
	<path class="st0" d="M19.5,11L19.5,11L19.5,11c3,0,5.5-2.5,5.5-5.5S22.5,0,19.5,0c-3,0-5.5,2.5-5.5,5.5v0C14,8.5,16.4,11,19.5,11
		C19.5,11,19.5,11,19.5,11L19.5,11z M19.5,2L19.5,2L19.5,2C21.4,2,23,3.6,23,5.5l0,0C23,7.4,21.4,9,19.5,9S16,7.4,16,5.5v0
		C16,3.6,17.6,2,19.5,2z"/>
	<path class="st0" d="M38.5,11L38.5,11L38.5,11c3,0,5.5-2.5,5.5-5.5S41.5,0,38.5,0c-3,0-5.5,2.5-5.5,5.5v0C33,8.5,35.4,11,38.5,11
		C38.5,11,38.5,11,38.5,11L38.5,11z M38.5,2L38.5,2L38.5,2C40.4,2,42,3.6,42,5.5l0,0C42,7.4,40.4,9,38.5,9S35,7.4,35,5.5v0
		C35,3.6,36.6,2,38.5,2z"/>
	<path class="st0" d="M10.5,19L10.5,19L10.5,19c2.9,0.1,5.3-2.1,5.5-5v0c-0.2-2.9-2.6-5.1-5.5-5l0,0C7.6,8.9,5.2,11.1,5,14v0
		C5.2,16.9,7.6,19.1,10.5,19z M10.5,10.8L10.5,10.8L10.5,10.8c1.8-0.1,3.4,1.3,3.5,3.2c0,0,0,0,0,0v0c-0.1,1.8-1.6,3.3-3.5,3.2
		c0,0,0,0,0,0l0,0C8.7,17.3,7.1,15.9,7,14c0,0,0,0,0,0l0,0C7.1,12.2,8.6,10.7,10.5,10.8C10.5,10.8,10.5,10.8,10.5,10.8z"/>
	<path class="st0" d="M29.5,19L29.5,19L29.5,19c2.9,0.1,5.3-2.1,5.5-5v0c-0.2-2.9-2.6-5.1-5.5-5l0,0c-2.9-0.1-5.3,2.1-5.5,5v0
		C24.2,16.9,26.6,19.1,29.5,19z M29.5,10.8L29.5,10.8L29.5,10.8c1.8-0.1,3.4,1.3,3.5,3.2c0,0,0,0,0,0v0c-0.1,1.8-1.6,3.3-3.5,3.2
		c0,0,0,0,0,0l0,0c-1.8,0.1-3.4-1.3-3.5-3.1c0,0,0,0,0,0l0,0C26.1,12.2,27.6,10.7,29.5,10.8C29.5,10.8,29.5,10.8,29.5,10.8z"/>
	<path class="st0" d="M48.5,19L48.5,19L48.5,19c2.9,0.1,5.4-2.1,5.5-5c0,0,0,0,0,0v0c-0.1-2.9-2.6-5.1-5.5-5c0,0,0,0,0,0l0,0
		c-2.9-0.1-5.3,2.1-5.5,5v0C43.2,16.9,45.6,19.1,48.5,19z M48.5,10.8L48.5,10.8L48.5,10.8c1.8-0.1,3.4,1.3,3.5,3.2c0,0,0,0,0,0v0
		c-0.1,1.8-1.6,3.3-3.5,3.2c0,0,0,0,0,0l0,0c-1.8,0.1-3.4-1.3-3.5-3.2v0C45.1,12.2,46.7,10.8,48.5,10.8z"/>
</g>
</svg>
