<?xml version="1.0" encoding="utf-8"?>
<!-- Generator: Adobe Illustrator 22.1.0, SVG Export Plug-In . SVG Version: 6.00 Build 0)  -->
<svg version="1.1" id="Layer_1" xmlns="http://www.w3.org/2000/svg" xmlns:xlink="http://www.w3.org/1999/xlink" x="0px" y="0px"
	 viewBox="0 0 150 150" style="enable-background:new 0 0 150 150;" xml:space="preserve">
<style type="text/css">
	.st0{fill:#FFFFFF;}
</style>
<path class="st0" d="M39.5,61L39.5,61v51.2h-6.8V83.8l0,0c0-1.3-0.9-2.2-2.2-2.2s-2.2,0.9-2.2,2.2v28.3h-6.5V62l0,0
	c0-1.1-1.1-2.2-2.2-2.2l0,0c-1.1,0-2.2,1.1-2.2,2.2v19.2l0,0c-2.6-0.7-4.6-3.3-4.6-6.1V57.7l0,0c0-2.4,1.3-4.4,3.7-5.2l4.4-1.1
	l8.1,7.8l0,0c0.9,0.9,2.2,0.9,3,0l8.3-8.1H70l0,0c-0.9,2.6-3.5,4.4-6.3,4.4h-19l0,0C42.1,55.5,39.5,57.9,39.5,61z M30.8,42.4
	L30.8,42.4L30.8,42.4c-3.7,0-6.5-2.8-6.8-6.5l0,0c0-3.7,3-6.5,6.8-6.5s6.8,3,6.8,6.5l0,0l0,0C37.1,39.4,34.3,42.4,30.8,42.4z
	 M123.6,88.2L123.6,88.2v-61l0,0c0-1.3-0.9-2.2-2.2-2.2H30.8l0,0c-6.1-0.2-11.1,4.6-11.1,10.7v0.2l0,0c0,6.1,5,11.1,11.1,11.1
	s11.1-5,11.1-11.1l0,0c0-2.4-0.9-4.8-2.4-6.5h79.7V86H44.1V61c0-0.4,0.4-1.1,1.1-1.1h19l0,0c6.1,0,11.1-4.8,11.1-10.9l0,0
	c0-1.3-1.1-2.2-2.2-2.2H39.5l0,0c-0.7,0-1.1,0.2-1.7,0.4l-7.2,7.2l-7.4-7.2l0,0c-0.4-0.4-1.3-0.7-2-0.4l-5.9,1.5l0,0
	c-4.1,1.3-6.8,5-6.8,9.4v17.4l0,0c0,5.2,3.7,9.8,8.9,10.7v28.5l0,0c0,1.3,0.9,2.2,2.2,2.2h22l0,0c1.3,0,2.2-0.9,2.4-2c0,0,0,0,0-0.2
	v-24h77.3l0,0C122.7,90.4,123.6,89.3,123.6,88.2L123.6,88.2z M113.4,120.9L113.4,120.9L113.4,120.9c2.8-2.6,6.3-4.1,10.2-4.4l0,0
	c3.7,0.2,7.4,1.7,10.2,4.4H113.4z M123.6,99.1L123.6,99.1L123.6,99.1c3.7,0,6.5,2.8,6.8,6.5l0,0c0,3.7-3,6.5-6.5,6.5
	c-3.5,0-6.5-3-6.5-6.5l0,0C117.1,102.1,119.9,99.1,123.6,99.1z M82.4,120.9L82.4,120.9L82.4,120.9c2.8-2.6,6.3-4.1,10.2-4.4l0,0
	c3.7,0.2,7.4,1.7,10.2,4.4H82.4z M92.7,99.1L92.7,99.1L92.7,99.1c3.7,0,6.5,2.8,6.8,6.5l0,0c0,3.7-3,6.5-6.5,6.5s-6.5-3-6.5-6.5l0,0
	C86.1,102.1,89,99.1,92.7,99.1z M51.5,120.9L51.5,120.9L51.5,120.9c2.8-2.6,6.5-4.1,10.2-4.4l0,0c3.7,0.2,7.4,1.7,10.2,4.4H51.5z
	 M61.7,99.1L61.7,99.1L61.7,99.1c3.5,0,6.5,3,6.5,6.5l0,0c0,3.7-3,6.5-6.5,6.5c-3.5,0-6.5-3-6.5-6.5l0,0C55,101.9,58,99.1,61.7,99.1
	z M141,121.7L141,121.7L141,121.7c-2.8-3.3-6.3-6.1-10.2-7.8l0,0c2.4-2,3.9-5,3.9-8.3l0,0c0-6.1-5-11.1-11.1-11.1
	c-6.1,0-11.1,5-11.1,11.1l0,0c0,3.3,1.5,6.3,3.9,8.3l0,0c-3,1.5-5.9,3.5-8.3,5.9l0,0c-2.4-2.4-5.2-4.6-8.3-5.9l0,0
	c2.4-2,3.9-5,3.9-8.3l0,0c-0.2-6.1-5.4-10.9-11.5-10.7c-5.7,0.2-10.2,4.8-10.7,10.7l0,0c0,3.3,1.5,6.3,3.9,8.3l0,0
	c-3,1.5-5.9,3.5-8.3,5.9l0,0c-2.4-2.4-5.2-4.6-8.3-5.9l0,0c2.4-2,3.9-5,3.9-8.3l0,0c-0.2-6.1-5.4-10.9-11.5-10.7
	c-5.7,0.2-10.2,4.8-10.7,10.7l0,0c0,3.3,1.5,6.3,3.9,8.3l0,0c-3.9,2-7.4,4.6-10.2,7.8l0,0c-0.4,0.7-0.4,1.5-0.2,2.2l0,0
	c0.4,0.7,1.1,1.1,2,1.1h93.2l0,0c0.9,0,1.5-0.4,2-1.1l0,0C141.5,123.3,141.5,122.4,141,121.7L141,121.7z"/>
</svg>
