<?xml version="1.0" encoding="utf-8"?>
<!-- Generator: Adobe Illustrator 22.1.0, SVG Export Plug-In . SVG Version: 6.00 Build 0)  -->
<svg version="1.1" id="Layer_1" xmlns="http://www.w3.org/2000/svg" xmlns:xlink="http://www.w3.org/1999/xlink" x="0px" y="0px"
	 viewBox="0 0 100 100" style="enable-background:new 0 0 100 100;" xml:space="preserve">
<style type="text/css">
	.st0{fill:#FFFFFF;}
</style>
<g transform="scale(1.75439)">
	<path class="st0" d="M47.5,38.8L47.5,38.8L47.5,38.8c0.5-2,0.7-4.1,0.7-6.1v0c0-2.1-0.2-4.2-0.7-6.2h6.1v0c1.5,4,1.5,8.3,0,12.3
		L47.5,38.8z M40.5,50.3L40.5,50.3L40.5,50.3c3.1-2.4,5.4-5.7,6.5-9.5h5.7l0,0C50.1,45.5,45.7,48.9,40.5,50.3L40.5,50.3z M36.2,40.8
		h8.5c-1.7,5-4.8,8.5-8.5,9.1V40.8z M36.2,26.5h9.2l0,0c0.5,2,0.7,4.1,0.7,6.2v0c0,2.1-0.2,4.1-0.7,6.1h-9.1L36.2,26.5z M36.2,15.4
		L36.2,15.4c3.7,0.6,6.9,4.1,8.5,9h-8.6L36.2,15.4z M52.8,24.4H47c-1.4-4.1-3.7-7.5-6.5-9.4l0,0C45.7,16.3,50.1,19.7,52.8,24.4
		L52.8,24.4z M34,24.4h-8.6c1.7-5,4.9-8.4,8.5-9L34,24.4z M34,38.8h-9.2v0c-0.5-2-0.7-4.1-0.7-6.1v0c0-2.1,0.2-4.2,0.7-6.2H34
		L34,38.8z M34,49.9L34,49.9c-3.7-0.6-6.9-4.2-8.5-9.1H34V49.9z M19.7,44.1L19.7,44.1v-3.3h3.4c1.4,4.2,3.7,7.6,6.6,9.5l0,0
		C25.8,49.3,22.3,47.1,19.7,44.1z M18.6,20.4L18.6,20.4L18.6,20.4c-0.6,0-1,0.4-1.1,0.9c0,0,0,0.1,0,0.1V51h-4.4V33.6v0
		c0-0.6-0.4-1-1-1c0,0,0,0-0.1,0l0,0c-0.6,0-1.1,0.4-1.1,1V51H6.6V21.4l0,0c0-0.6-0.5-1.1-1.1-1l0,0c-0.6,0-1.1,0.5-1.1,1v11l0,0
		c-1.3-0.4-2.2-1.5-2.2-2.9v-12v0c0-1.1,0.8-2.1,1.9-2.5l2.2-0.7l5,4.7l0,0c0.4,0.4,1.1,0.4,1.5,0l5-4.7l2.2,0.8l0,0
		c1.1,0.3,1.9,1.3,1.9,2.4v12v0c0,1.3-0.9,2.5-2.2,2.9v-11l0,0c0-0.6-0.4-1-0.9-1.1C18.7,20.4,18.7,20.4,18.6,20.4z M22.6,38.8h-2.9
		v-4.2l0,0c0.8-0.1,1.6-0.5,2.3-0.9v0C22,35.3,22.2,37.1,22.6,38.8L22.6,38.8z M29.7,15L29.7,15L29.7,15c-2.5,1.7-4.4,4.2-5.6,6.9
		v-4.5h0C25.8,16.3,27.7,15.5,29.7,15z M35.1,12.2L35.1,12.2L35.1,12.2c-4.1,0-8.1,1-11.6,3.1l0,0c-0.6-1-1.6-1.7-2.7-2.1l-2.9-0.9
		l0,0c-0.4-0.2-0.8-0.1-1.1,0.2l-4.6,4.4l-4.7-4.4l0,0c-0.3-0.3-0.8-0.4-1.2-0.2l-2.8,0.9h0c-2,0.5-3.4,2.3-3.4,4.4v12l0,0
		c0,2.5,1.9,4.6,4.3,5V52l0,0c0,0.6,0.5,1,1.1,1h13.2l0,0c0.6,0,1-0.4,1.1-0.9c0,0,0,0,0-0.1v-4.8l0,0C23.9,51,29.4,53,35.1,53
		C47.2,53,57,43.9,57,32.6S47.2,12.2,35.1,12.2L35.1,12.2z M12.1,2L12.1,2L12.1,2c2.3-0.1,4.3,1.8,4.4,4.1v0c-0.1,2.3-2,4.1-4.4,4.1
		l0,0c-2.3,0.1-4.3-1.7-4.4-4v0C7.7,3.8,9.7,1.9,12.1,2C12,2,12,2,12.1,2z M12.1,12.2L12.1,12.2L12.1,12.2c3.5,0.1,6.4-2.6,6.6-6.1
		v0c-0.2-3.5-3.1-6.2-6.6-6.1v0C8.5-0.2,5.6,2.6,5.4,6.1c0,0,0,0,0,0v0C5.6,9.6,8.5,12.4,12.1,12.2C12.1,12.2,12.1,12.2,12.1,12.2
		L12.1,12.2z"/>
</g>
</svg>
