<?xml version="1.0" encoding="utf-8"?>
<!-- Generator: Adobe Illustrator 22.1.0, SVG Export Plug-In . SVG Version: 6.00 Build 0)  -->
<svg version="1.1" id="Layer_1" xmlns="http://www.w3.org/2000/svg" xmlns:xlink="http://www.w3.org/1999/xlink" x="0px" y="0px"
	 viewBox="0 0 150 150" style="enable-background:new 0 0 150 150;" xml:space="preserve">
<style type="text/css">
	.st0{fill:#FFFFFF;}
</style>
<g transform="scale(0.998869)">
	<path class="st0" d="M19.5,25h111.8v6.4H19.5V25z"/>
	<path class="st0" d="M27.8,59.7h43v9h-43V59.7z"/>
	<path class="st0" d="M22.5,40.5h4.7v5.3h-4.7V40.5z"/>
	<path class="st0" d="M29.8,40.5h5.5v5.3h-5.5V40.5z"/>
	<path class="st0" d="M37.4,40.5h5.5v5.3h-5.5V40.5z"/>
	<path class="st0" d="M27.8,77.3h43v4.3h-43V77.3z"/>
	<path class="st0" d="M27.8,86.9h43v4.3h-43V86.9z"/>
	<path class="st0" d="M27.8,95.7h43v4.3h-43V95.7z"/>
	<path class="st0" d="M27.8,104.6h35.6v5.5H27.8V104.6z"/>
	<path class="st0" d="M79.8,104.6h24.3v5.5H79.8V104.6z"/>
	<path class="st0" d="M79.8,77.3h43.4v4.3H79.8V77.3z"/>
	<path class="st0" d="M79.8,86.9h43.4v4.3H79.8V86.9z"/>
	<path class="st0" d="M79.8,95.7h43.4v4.3H79.8V95.7z"/>
	<path class="st0" d="M14.9,35.2v89.9h120.3V35.2H14.9z M130.5,119.7H20.2V52.2h110.5v67.5H130.5z M130.5,47.7H20.2v-8.1h110.5v8.1
		H130.5z"/>
</g>
</svg>
