<svg id="Jeppesen_White" data-name="Jeppesen White" xmlns="http://www.w3.org/2000/svg" viewBox="0 0 706.16 101.08"><defs><style>.cls-1{fill:#fff;}.cls-2{fill:#bfbfbf;}.cls-3{fill:#8c8c8c;}.cls-4{fill:#666;}.cls-5{fill:#00369c;}.cls-6{fill:#013171;}.cls-7{fill:#1a2741;}</style></defs><title>Jeppesen_rev_large</title><path class="cls-1" d="M336.13,147.72H304.92l-9.37,10.55h37.3c5.35,0,8.41-.55,10.63-1.9,3.78-2.37,4.78-5.47,4.78-14.9V105.52H336.13Z" transform="translate(-105.51 -105.51)"/><polygon class="cls-1" points="254.88 52.77 307.6 52.77 307.6 42.21 267.01 42.21 267.01 31.66 295.46 31.66 304.81 21.11 267.01 21.11 267.01 10.56 307.6 10.56 307.6 0.01 254.88 0.01 254.88 52.77"/><polygon class="cls-1" points="450.43 52.77 503.15 52.77 503.15 42.21 462.56 42.21 462.56 31.66 491.02 31.66 500.36 21.11 462.57 21.11 462.56 10.56 503.15 10.56 503.15 0.01 450.43 0.01 450.43 52.77"/><polygon class="cls-1" points="579.35 52.77 632.06 52.77 632.06 42.21 591.48 42.21 591.48 31.66 619.93 31.66 629.28 21.11 591.48 21.11 591.48 10.56 632.06 10.56 632.06 0.01 579.35 0.01 579.35 52.77"/><path class="cls-1" d="M461.8,105.52H425.24v52.76h12.13V137.17h27c6.85,0,9-.33,11-1.45,3.28-2.06,4.85-6.82,4.85-15.06a23.39,23.39,0,0,0-2.07-9.76C476.22,107,471.86,105.52,461.8,105.52Zm6.2,21.1H437.37V116.07H468Z" transform="translate(-105.51 -105.51)"/><path class="cls-1" d="M527.06,105.52H490.5v52.76h12.14V137.17h27c6.86,0,9-.33,10.95-1.45,3.28-2.06,4.85-6.82,4.85-15.06a23.23,23.23,0,0,0-2.07-9.76C541.48,107,537.12,105.52,527.06,105.52Zm6.21,21.1H502.63V116.07h30.64Z" transform="translate(-105.51 -105.51)"/><path class="cls-1" d="M660.68,126.64l-29.35,0V116.07h41.4V105.51H638c-14.85,0-18.77,3.33-18.77,15.94,0,7.54,1.64,12,5.07,14.43,1.71,1.19,4.71,1.28,9.91,1.28h28v10.55l-41.39,0v10.55h35.1c9.78,0,11.21-.06,13.86-1.65,3.57-2.06,4.56-5.39,4.56-15.06,0-4.67-.43-7.61-1.42-9.59C671.1,128.36,666.82,126.64,660.68,126.64Z" transform="translate(-105.51 -105.51)"/><polygon class="cls-1" points="693.96 0.01 693.96 41.24 661.96 0.01 644.19 0.01 644.19 52.82 656.32 52.82 656.32 12.46 687.46 52.82 706.16 52.82 706.16 0.01 693.96 0.01"/><path class="cls-2" d="M208.23,136.76c-1.69-.41-3.56-.82-5.34-1.24l-73.75,0s13.18,2.39,30.16,5.73c15.52,3.05,34.21,6.9,48.93,10.46a259.33,259.33,0,0,1,53.69,19.43l31.31-35.7H280.09l-18.17,20.71a259.33,259.33,0,0,0-53.69-19.43" transform="translate(-105.51 -105.51)"/><polygon class="cls-3" points="174.57 14.99 161.43 29.97 174.57 29.96 187.72 14.98 174.57 14.99"/><path class="cls-3" d="M208.23,121.78c-1.69-.41-3.57-.83-5.35-1.24l-85.55,0s26.22,2.6,44.31,6.18c13.22,2.61,28.27,5.74,41.25,8.76l46.63,0a270.71,270.71,0,0,0-41.29-13.71" transform="translate(-105.51 -105.51)"/><path class="cls-4" d="M261.92,141.21s-4.59-2.4-12.4-5.72l-46.63,0c1.78.42,3.65.83,5.34,1.24a259.33,259.33,0,0,1,53.69,19.43l18.17-20.71H266.94Z" transform="translate(-105.51 -105.51)"/><path class="cls-5" d="M293.23,105.52l-187.72.08s38.37,2.66,56.77,6.31c13.05,2.58,27.82,5.65,40.6,8.63l77.21,0Z" transform="translate(-105.51 -105.51)"/><path class="cls-6" d="M249.52,135.49h17.42l13.15-15-77.22,0c1.79.41,3.67.83,5.36,1.24a270.71,270.71,0,0,1,41.29,13.71" transform="translate(-105.51 -105.51)"/><path class="cls-7" d="M261.92,141.21l5-5.73H249.52c7.81,3.32,12.4,5.72,12.4,5.72" transform="translate(-105.51 -105.51)"/><path class="cls-1" d="M457.85,182.43h2l7.35,18.75h-1.92L463,195.35h-8.54l-2.26,5.83h-1.92ZM455,193.83h7.38l-3.62-9.61Z" transform="translate(-105.51 -105.51)"/><path class="cls-1" d="M476.2,182.43h7.94c3.15,0,6,1.1,6,4.6a4.25,4.25,0,0,1-3.25,4.2v.05a4.4,4.4,0,0,1,4,4.57c0,1.79-.63,5.33-6.72,5.33H476.2Zm1.79,8.22h6.15c2.86,0,4.23-1.42,4.23-3.18,0-2.34-1.45-3.52-4.23-3.52H478Zm0,9h6.15c2.65,0,4.94-.87,4.94-3.86,0-2.39-1.82-3.63-4.94-3.63H478Z" transform="translate(-105.51 -105.51)"/><path class="cls-1" d="M505.44,194.41c0,3.88-2.26,7.17-6.41,7.17s-6.41-3.29-6.41-7.17,2.26-7.17,6.41-7.17S505.44,190.52,505.44,194.41Zm-11.17,0c0,2.89,1.58,5.78,4.76,5.78s4.75-2.89,4.75-5.78-1.57-5.78-4.75-5.78S494.27,191.52,494.27,194.41Z" transform="translate(-105.51 -105.51)"/><path class="cls-1" d="M508.77,194.85c0,2.42,1.29,5.34,4.46,5.34a4.14,4.14,0,0,0,4.26-3.47h1.65c-.71,3.07-2.49,4.86-5.91,4.86-4.3,0-6.12-3.31-6.12-7.17,0-3.58,1.82-7.17,6.12-7.17s6.1,3.8,6,7.61Zm8.77-1.39c-.08-2.49-1.63-4.83-4.31-4.83s-4.2,2.36-4.46,4.83Z" transform="translate(-105.51 -105.51)"/><path class="cls-1" d="M521.43,182.43h1.65v2.65h-1.65Zm0,5.2h1.65v13.55h-1.65Z" transform="translate(-105.51 -105.51)"/><path class="cls-1" d="M526,187.63h1.66V190h.05a4.59,4.59,0,0,1,4.33-2.73c3.81,0,5,2,5,5.22v8.72h-1.66v-8.45c0-2.34-.76-4.1-3.44-4.1s-4.2,2-4.25,4.65v7.9H526Z" transform="translate(-105.51 -105.51)"/><path class="cls-1" d="M551.42,200.08c0,4-1.58,6.51-6,6.51-2.7,0-5.38-1.2-5.62-4.09h1.66c.36,2,2.12,2.7,4,2.7,3.05,0,4.36-1.81,4.36-5.12v-1.84h0A4.69,4.69,0,0,1,545.4,201c-4.33,0-6.12-3.1-6.12-7s2.21-6.83,6.12-6.83a4.77,4.77,0,0,1,4.31,2.73h0v-2.34h1.66Zm-1.66-5.83c0-2.65-1.23-5.62-4.36-5.62s-4.46,2.81-4.46,5.62,1.42,5.38,4.46,5.38C548.27,199.63,549.76,197,549.76,194.25Z" transform="translate(-105.51 -105.51)"/><path class="cls-1" d="M575.89,188.1a5.68,5.68,0,0,0-5.75-4.54c-5,0-7.06,4.15-7.06,8.25s2.1,8.24,7.06,8.24c3.47,0,5.68-2.67,6-6h1.78c-.5,4.6-3.41,7.54-7.8,7.54-5.91,0-8.85-4.65-8.85-9.77s2.94-9.77,8.85-9.77c3.55,0,7.07,2.12,7.54,6.06Z" transform="translate(-105.51 -105.51)"/><path class="cls-1" d="M592.41,194.41c0,3.88-2.26,7.17-6.41,7.17s-6.41-3.29-6.41-7.17,2.26-7.17,6.41-7.17S592.41,190.52,592.41,194.41Zm-11.16,0c0,2.89,1.57,5.78,4.75,5.78s4.76-2.89,4.76-5.78-1.58-5.78-4.76-5.78S581.25,191.52,581.25,194.41Z" transform="translate(-105.51 -105.51)"/><path class="cls-1" d="M594.72,187.63h1.52v2.29h.08a4.74,4.74,0,0,1,4.44-2.68,3.76,3.76,0,0,1,3.89,2.65,4.57,4.57,0,0,1,4.31-2.65c3,0,4.49,1.55,4.49,4.75v9.19h-1.66v-9.11c0-2.23-.84-3.44-3.2-3.44-2.86,0-3.68,2.36-3.68,4.88v7.67h-1.65V192c0-1.84-.74-3.36-2.84-3.36-2.86,0-4,2.15-4,5v7.56h-1.66Z" transform="translate(-105.51 -105.51)"/><path class="cls-1" d="M616.44,187.63H618v2.57H618a5.07,5.07,0,0,1,4.83-3c4.12,0,6.09,3.33,6.09,7.17s-2,7.17-6.09,7.17a4.84,4.84,0,0,1-4.7-3h-.06v7.59h-1.65Zm6.41,1c-3.65,0-4.76,2.7-4.76,5.78,0,2.81,1.24,5.78,4.76,5.78,3.15,0,4.44-3,4.44-5.78S626,188.63,622.85,188.63Z" transform="translate(-105.51 -105.51)"/><path class="cls-1" d="M631.12,191.78c.16-3.18,2.39-4.54,5.49-4.54,2.39,0,5,.73,5,4.36v7.19a.88.88,0,0,0,1,1,1.67,1.67,0,0,0,.53-.1v1.39a4.51,4.51,0,0,1-1.08.1c-1.68,0-1.94-.94-1.94-2.36H640a5.16,5.16,0,0,1-4.94,2.76c-2.49,0-4.54-1.24-4.54-4,0-3.81,3.7-3.94,7.28-4.36,1.36-.16,2.12-.34,2.12-1.84,0-2.23-1.6-2.78-3.54-2.78s-3.57.94-3.63,3.15Zm8.82,2h-.05c-.21.39-.94.52-1.39.6-2.81.5-6.3.47-6.3,3.13a2.83,2.83,0,0,0,3,2.68c2.52,0,4.75-1.61,4.72-4.26Z" transform="translate(-105.51 -105.51)"/><path class="cls-1" d="M644.83,187.63h1.65V190h0a4.6,4.6,0,0,1,4.34-2.73c3.81,0,5,2,5,5.22v8.72h-1.65v-8.45c0-2.34-.76-4.1-3.44-4.1s-4.21,2-4.26,4.65v7.9h-1.65Z" transform="translate(-105.51 -105.51)"/><path class="cls-1" d="M656.91,187.63h1.76l4.46,11.56,4.18-11.56H669l-5.88,15.63c-1,2.28-1.5,2.94-3.57,2.94a4.6,4.6,0,0,1-1.26-.13v-1.39a5.59,5.59,0,0,0,1.12.13c1.48,0,1.82-.87,2.37-2.13l.58-1.55Z" transform="translate(-105.51 -105.51)"/></svg>